G04 EAGLE Gerber X2 export*
%TF.Part,Single*%
%TF.FileFunction,Copper,L1,Top,Mixed*%
%TF.FilePolarity,Positive*%
%TF.GenerationSoftware,Autodesk,EAGLE,9.0.1*%
%TF.CreationDate,2019-06-07T13:03:31Z*%
G75*
%MOMM*%
%FSLAX34Y34*%
%LPD*%
%AMOC8*
5,1,8,0,0,1.08239X$1,22.5*%
G01*
%ADD10R,1.500000X1.300000*%
%ADD11R,1.524000X1.270000*%
%ADD12R,1.300000X1.500000*%
%ADD13C,1.879600*%
%ADD14R,1.200000X1.200000*%
%ADD15R,1.400000X1.100000*%
%ADD16R,1.100000X1.400000*%
%ADD17R,0.508000X0.508000*%
%ADD18C,0.230000*%
%ADD19R,4.270000X4.270000*%
%ADD20R,1.500000X2.000000*%
%ADD21R,3.800000X2.000000*%
%ADD22R,1.300000X1.300000*%
%ADD23R,2.000000X1.401600*%
%ADD24R,0.750000X0.700000*%
%ADD25R,1.550000X1.300000*%
%ADD26R,0.320000X0.480000*%
%ADD27R,0.480000X0.320000*%
%ADD28C,0.006400*%
%ADD29R,0.670000X0.670000*%
%ADD30C,0.656400*%
%ADD31C,0.254000*%
%ADD32C,0.152400*%

G36*
X127579Y10164D02*
X127579Y10164D01*
X127598Y10162D01*
X127700Y10184D01*
X127802Y10200D01*
X127819Y10210D01*
X127839Y10214D01*
X127928Y10267D01*
X128019Y10316D01*
X128033Y10330D01*
X128050Y10340D01*
X128117Y10419D01*
X128189Y10494D01*
X128197Y10512D01*
X128210Y10527D01*
X128249Y10623D01*
X128292Y10717D01*
X128294Y10737D01*
X128302Y10755D01*
X128320Y10922D01*
X128320Y11774D01*
X132423Y11774D01*
X132442Y11777D01*
X132462Y11775D01*
X132472Y11777D01*
X132499Y11774D01*
X136602Y11774D01*
X136602Y10922D01*
X136605Y10902D01*
X136603Y10883D01*
X136625Y10781D01*
X136641Y10679D01*
X136651Y10662D01*
X136655Y10642D01*
X136708Y10553D01*
X136757Y10462D01*
X136771Y10448D01*
X136781Y10431D01*
X136860Y10364D01*
X136935Y10292D01*
X136953Y10284D01*
X136968Y10271D01*
X137064Y10232D01*
X137158Y10189D01*
X137178Y10187D01*
X137196Y10179D01*
X137363Y10161D01*
X137559Y10161D01*
X137579Y10164D01*
X137598Y10162D01*
X137700Y10184D01*
X137802Y10200D01*
X137819Y10210D01*
X137839Y10214D01*
X137928Y10267D01*
X138019Y10316D01*
X138033Y10330D01*
X138050Y10340D01*
X138117Y10419D01*
X138189Y10494D01*
X138197Y10512D01*
X138210Y10527D01*
X138249Y10623D01*
X138292Y10717D01*
X138294Y10737D01*
X138302Y10755D01*
X138320Y10922D01*
X138320Y11774D01*
X142423Y11774D01*
X142442Y11777D01*
X142462Y11775D01*
X142472Y11777D01*
X142499Y11774D01*
X148423Y11774D01*
X148442Y11777D01*
X148462Y11775D01*
X148472Y11777D01*
X148499Y11774D01*
X153423Y11774D01*
X153442Y11777D01*
X153462Y11775D01*
X153472Y11777D01*
X153499Y11774D01*
X158423Y11774D01*
X158442Y11777D01*
X158462Y11775D01*
X158472Y11777D01*
X158499Y11774D01*
X163423Y11774D01*
X163442Y11777D01*
X163462Y11775D01*
X163472Y11777D01*
X163499Y11774D01*
X168423Y11774D01*
X168442Y11777D01*
X168462Y11775D01*
X168564Y11797D01*
X168666Y11813D01*
X168683Y11823D01*
X168703Y11827D01*
X168792Y11880D01*
X168883Y11929D01*
X168897Y11943D01*
X168914Y11953D01*
X168957Y12004D01*
X168959Y12005D01*
X168973Y12019D01*
X168990Y12029D01*
X169057Y12108D01*
X169129Y12183D01*
X169137Y12201D01*
X169150Y12216D01*
X169189Y12313D01*
X169232Y12406D01*
X169234Y12426D01*
X169242Y12444D01*
X169260Y12611D01*
X169260Y17514D01*
X170396Y17514D01*
X171042Y17341D01*
X171621Y17006D01*
X171906Y16721D01*
X171980Y16668D01*
X172050Y16608D01*
X172080Y16596D01*
X172106Y16577D01*
X172193Y16550D01*
X172278Y16516D01*
X172319Y16512D01*
X172341Y16505D01*
X172373Y16506D01*
X172445Y16498D01*
X185275Y16498D01*
X185295Y16501D01*
X185314Y16499D01*
X185416Y16521D01*
X185518Y16537D01*
X185535Y16547D01*
X185555Y16551D01*
X185644Y16604D01*
X185735Y16653D01*
X185749Y16667D01*
X185766Y16677D01*
X185833Y16756D01*
X185905Y16831D01*
X185913Y16849D01*
X185926Y16864D01*
X185965Y16960D01*
X186008Y17054D01*
X186010Y17074D01*
X186018Y17092D01*
X186036Y17259D01*
X186036Y64276D01*
X186025Y64343D01*
X186024Y64410D01*
X186006Y64463D01*
X185997Y64519D01*
X185965Y64578D01*
X185942Y64642D01*
X185908Y64686D01*
X185881Y64736D01*
X185832Y64783D01*
X185791Y64836D01*
X185727Y64883D01*
X185703Y64905D01*
X185684Y64914D01*
X185656Y64935D01*
X185301Y65140D01*
X185016Y65425D01*
X184942Y65478D01*
X184872Y65538D01*
X184842Y65550D01*
X184816Y65569D01*
X184729Y65596D01*
X184644Y65630D01*
X184603Y65634D01*
X184581Y65641D01*
X184549Y65640D01*
X184477Y65648D01*
X153647Y65648D01*
X153627Y65645D01*
X153608Y65647D01*
X153506Y65625D01*
X153404Y65609D01*
X153387Y65599D01*
X153367Y65595D01*
X153278Y65542D01*
X153187Y65493D01*
X153173Y65479D01*
X153156Y65469D01*
X153089Y65390D01*
X153017Y65315D01*
X153009Y65297D01*
X152996Y65282D01*
X152957Y65186D01*
X152914Y65092D01*
X152912Y65072D01*
X152904Y65054D01*
X152886Y64887D01*
X152886Y28171D01*
X152897Y28101D01*
X152899Y28029D01*
X152917Y27980D01*
X152925Y27929D01*
X152959Y27865D01*
X152984Y27798D01*
X153016Y27757D01*
X153041Y27711D01*
X153093Y27662D01*
X153137Y27606D01*
X153181Y27578D01*
X153219Y27542D01*
X153284Y27512D01*
X153344Y27473D01*
X153395Y27460D01*
X153442Y27438D01*
X153513Y27430D01*
X153583Y27413D01*
X153635Y27417D01*
X153686Y27411D01*
X153757Y27426D01*
X153828Y27432D01*
X153876Y27452D01*
X153927Y27463D01*
X153988Y27500D01*
X154054Y27528D01*
X154110Y27573D01*
X154138Y27590D01*
X154153Y27607D01*
X154185Y27633D01*
X156759Y30207D01*
X160741Y30207D01*
X163175Y27773D01*
X163249Y27720D01*
X163318Y27660D01*
X163349Y27648D01*
X163375Y27629D01*
X163462Y27602D01*
X163547Y27568D01*
X163588Y27564D01*
X163610Y27557D01*
X163642Y27558D01*
X163713Y27550D01*
X167938Y27550D01*
X167938Y23182D01*
X165777Y23182D01*
X165130Y23355D01*
X164605Y23659D01*
X164564Y23674D01*
X164527Y23698D01*
X164449Y23718D01*
X164375Y23746D01*
X164331Y23748D01*
X164288Y23758D01*
X164209Y23752D01*
X164129Y23755D01*
X164087Y23742D01*
X164043Y23739D01*
X163970Y23708D01*
X163893Y23685D01*
X163857Y23660D01*
X163817Y23643D01*
X163703Y23552D01*
X163692Y23544D01*
X163690Y23541D01*
X163686Y23538D01*
X160741Y20593D01*
X156759Y20593D01*
X156289Y21063D01*
X156215Y21116D01*
X156146Y21176D01*
X156115Y21188D01*
X156089Y21207D01*
X156002Y21234D01*
X155917Y21268D01*
X155876Y21272D01*
X155854Y21279D01*
X155822Y21278D01*
X155751Y21286D01*
X154663Y21286D01*
X154643Y21283D01*
X154624Y21285D01*
X154522Y21263D01*
X154420Y21247D01*
X154403Y21237D01*
X154383Y21233D01*
X154294Y21180D01*
X154203Y21131D01*
X154189Y21117D01*
X154172Y21107D01*
X154105Y21028D01*
X154033Y20953D01*
X154025Y20935D01*
X154012Y20920D01*
X153973Y20824D01*
X153930Y20730D01*
X153928Y20710D01*
X153920Y20692D01*
X153902Y20525D01*
X153902Y19372D01*
X148999Y19372D01*
X148980Y19369D01*
X148960Y19371D01*
X148950Y19369D01*
X148923Y19372D01*
X144020Y19372D01*
X144020Y20507D01*
X144193Y21154D01*
X144528Y21733D01*
X144813Y22018D01*
X144866Y22092D01*
X144926Y22162D01*
X144938Y22192D01*
X144957Y22218D01*
X144984Y22305D01*
X145018Y22390D01*
X145022Y22431D01*
X145029Y22453D01*
X145028Y22485D01*
X145036Y22557D01*
X145036Y36071D01*
X145035Y36079D01*
X145035Y36083D01*
X145033Y36092D01*
X145035Y36110D01*
X145013Y36212D01*
X144997Y36314D01*
X144987Y36331D01*
X144983Y36351D01*
X144930Y36440D01*
X144881Y36531D01*
X144867Y36545D01*
X144857Y36562D01*
X144778Y36629D01*
X144703Y36701D01*
X144685Y36709D01*
X144670Y36722D01*
X144574Y36761D01*
X144480Y36804D01*
X144460Y36806D01*
X144442Y36814D01*
X144275Y36832D01*
X143260Y36832D01*
X143260Y41735D01*
X143257Y41754D01*
X143259Y41774D01*
X143237Y41876D01*
X143221Y41978D01*
X143211Y41995D01*
X143207Y42015D01*
X143154Y42104D01*
X143105Y42195D01*
X143091Y42209D01*
X143081Y42226D01*
X143030Y42269D01*
X143029Y42271D01*
X143015Y42285D01*
X143005Y42302D01*
X142926Y42369D01*
X142851Y42441D01*
X142833Y42449D01*
X142818Y42462D01*
X142721Y42501D01*
X142628Y42544D01*
X142608Y42546D01*
X142590Y42554D01*
X142423Y42572D01*
X138320Y42572D01*
X138320Y44507D01*
X138493Y45154D01*
X138828Y45733D01*
X139301Y46206D01*
X139880Y46541D01*
X140527Y46714D01*
X141763Y46714D01*
X141833Y46725D01*
X141905Y46727D01*
X141954Y46745D01*
X142005Y46753D01*
X142069Y46787D01*
X142136Y46812D01*
X142177Y46844D01*
X142223Y46869D01*
X142272Y46921D01*
X142328Y46965D01*
X142356Y47009D01*
X142392Y47047D01*
X142422Y47112D01*
X142461Y47172D01*
X142474Y47223D01*
X142496Y47270D01*
X142504Y47341D01*
X142521Y47411D01*
X142517Y47463D01*
X142523Y47514D01*
X142508Y47585D01*
X142502Y47656D01*
X142482Y47704D01*
X142471Y47755D01*
X142434Y47816D01*
X142406Y47882D01*
X142361Y47938D01*
X142344Y47966D01*
X142327Y47981D01*
X142301Y48013D01*
X141477Y48837D01*
X141477Y51582D01*
X141474Y51602D01*
X141476Y51621D01*
X141454Y51723D01*
X141438Y51825D01*
X141428Y51842D01*
X141424Y51862D01*
X141371Y51951D01*
X141322Y52042D01*
X141308Y52056D01*
X141298Y52073D01*
X141219Y52140D01*
X141144Y52212D01*
X141126Y52220D01*
X141111Y52233D01*
X141015Y52272D01*
X140921Y52315D01*
X140901Y52317D01*
X140883Y52325D01*
X140716Y52343D01*
X139764Y52343D01*
X138185Y53922D01*
X138127Y53964D01*
X138075Y54013D01*
X138028Y54035D01*
X137986Y54066D01*
X137917Y54087D01*
X137852Y54117D01*
X137800Y54123D01*
X137750Y54138D01*
X137679Y54136D01*
X137608Y54144D01*
X137557Y54133D01*
X137505Y54132D01*
X137437Y54107D01*
X137367Y54092D01*
X137322Y54065D01*
X137274Y54047D01*
X137218Y54002D01*
X137156Y53965D01*
X137122Y53926D01*
X137082Y53893D01*
X137043Y53833D01*
X136996Y53779D01*
X136977Y53730D01*
X136949Y53686D01*
X136931Y53617D01*
X136904Y53550D01*
X136896Y53479D01*
X136888Y53448D01*
X136890Y53425D01*
X136886Y53384D01*
X136886Y46341D01*
X136574Y46030D01*
X136549Y45994D01*
X136516Y45965D01*
X136477Y45895D01*
X136431Y45830D01*
X136418Y45788D01*
X136396Y45750D01*
X136382Y45671D01*
X136358Y45595D01*
X136359Y45551D01*
X136351Y45508D01*
X136363Y45429D01*
X136365Y45349D01*
X136380Y45308D01*
X136386Y45264D01*
X136419Y45188D01*
X136602Y44507D01*
X136602Y42572D01*
X132499Y42572D01*
X132480Y42569D01*
X132460Y42571D01*
X132450Y42569D01*
X132423Y42572D01*
X128320Y42572D01*
X128320Y44507D01*
X128498Y45170D01*
X128522Y45234D01*
X128562Y45320D01*
X128565Y45348D01*
X128575Y45374D01*
X128579Y45470D01*
X128589Y45564D01*
X128583Y45592D01*
X128584Y45620D01*
X128557Y45712D01*
X128537Y45805D01*
X128522Y45829D01*
X128514Y45856D01*
X128460Y45934D01*
X128411Y46016D01*
X128389Y46034D01*
X128373Y46057D01*
X128296Y46114D01*
X128224Y46176D01*
X128197Y46186D01*
X128175Y46203D01*
X128084Y46232D01*
X127996Y46268D01*
X127960Y46272D01*
X127940Y46278D01*
X127908Y46278D01*
X127829Y46286D01*
X124519Y46286D01*
X124429Y46272D01*
X124338Y46264D01*
X124309Y46252D01*
X124277Y46247D01*
X124196Y46204D01*
X124112Y46168D01*
X124080Y46142D01*
X124059Y46131D01*
X124037Y46108D01*
X123981Y46063D01*
X123911Y45993D01*
X119929Y45993D01*
X117113Y48809D01*
X117113Y52791D01*
X119664Y55342D01*
X119676Y55358D01*
X119691Y55370D01*
X119747Y55458D01*
X119807Y55541D01*
X119813Y55560D01*
X119824Y55577D01*
X119849Y55678D01*
X119880Y55777D01*
X119879Y55796D01*
X119884Y55816D01*
X119876Y55919D01*
X119873Y56022D01*
X119867Y56041D01*
X119865Y56061D01*
X119825Y56156D01*
X119789Y56253D01*
X119777Y56269D01*
X119769Y56287D01*
X119664Y56418D01*
X117113Y58969D01*
X117113Y62951D01*
X119929Y65767D01*
X123911Y65767D01*
X126727Y62951D01*
X126727Y59703D01*
X126741Y59613D01*
X126749Y59522D01*
X126761Y59492D01*
X126766Y59460D01*
X126809Y59379D01*
X126845Y59295D01*
X126871Y59263D01*
X126882Y59242D01*
X126905Y59220D01*
X126950Y59164D01*
X127737Y58377D01*
X127795Y58335D01*
X127847Y58286D01*
X127894Y58264D01*
X127936Y58234D01*
X128005Y58213D01*
X128070Y58182D01*
X128122Y58177D01*
X128172Y58161D01*
X128243Y58163D01*
X128314Y58155D01*
X128365Y58166D01*
X128417Y58168D01*
X128485Y58192D01*
X128555Y58207D01*
X128600Y58234D01*
X128648Y58252D01*
X128704Y58297D01*
X128766Y58334D01*
X128800Y58373D01*
X128840Y58406D01*
X128879Y58466D01*
X128926Y58521D01*
X128945Y58569D01*
X128973Y58613D01*
X128991Y58682D01*
X129018Y58749D01*
X129026Y58820D01*
X129034Y58851D01*
X129032Y58875D01*
X129036Y58915D01*
X129036Y65805D01*
X129168Y65936D01*
X129207Y65991D01*
X129255Y66040D01*
X129279Y66090D01*
X129312Y66136D01*
X129331Y66201D01*
X129361Y66262D01*
X129367Y66317D01*
X129384Y66371D01*
X129382Y66439D01*
X129390Y66506D01*
X129378Y66584D01*
X129378Y66617D01*
X129370Y66637D01*
X129365Y66672D01*
X129320Y66838D01*
X129320Y68774D01*
X133423Y68774D01*
X133442Y68777D01*
X133462Y68775D01*
X133564Y68797D01*
X133666Y68813D01*
X133683Y68823D01*
X133703Y68827D01*
X133792Y68880D01*
X133883Y68929D01*
X133897Y68943D01*
X133914Y68953D01*
X133957Y69004D01*
X133959Y69005D01*
X133973Y69019D01*
X133990Y69029D01*
X134057Y69108D01*
X134129Y69183D01*
X134137Y69201D01*
X134150Y69216D01*
X134189Y69313D01*
X134232Y69406D01*
X134234Y69426D01*
X134242Y69444D01*
X134260Y69611D01*
X134260Y74514D01*
X135395Y74514D01*
X136042Y74341D01*
X136621Y74006D01*
X136906Y73721D01*
X136980Y73668D01*
X137050Y73608D01*
X137080Y73596D01*
X137106Y73577D01*
X137193Y73550D01*
X137278Y73516D01*
X137319Y73512D01*
X137341Y73505D01*
X137373Y73506D01*
X137445Y73498D01*
X140413Y73498D01*
X140433Y73501D01*
X140452Y73499D01*
X140554Y73521D01*
X140656Y73537D01*
X140673Y73547D01*
X140693Y73551D01*
X140782Y73604D01*
X140873Y73653D01*
X140887Y73667D01*
X140904Y73677D01*
X140971Y73756D01*
X141043Y73831D01*
X141051Y73849D01*
X141064Y73864D01*
X141103Y73960D01*
X141146Y74054D01*
X141148Y74074D01*
X141156Y74092D01*
X141174Y74259D01*
X141174Y75712D01*
X141171Y75732D01*
X141173Y75751D01*
X141151Y75853D01*
X141135Y75955D01*
X141125Y75972D01*
X141121Y75992D01*
X141068Y76081D01*
X141019Y76172D01*
X141005Y76186D01*
X140995Y76203D01*
X140916Y76270D01*
X140841Y76342D01*
X140823Y76350D01*
X140808Y76363D01*
X140712Y76402D01*
X140618Y76445D01*
X140598Y76447D01*
X140580Y76455D01*
X140413Y76473D01*
X140249Y76473D01*
X137433Y79289D01*
X137433Y83271D01*
X140249Y86087D01*
X144231Y86087D01*
X147047Y83271D01*
X147047Y79289D01*
X145971Y78213D01*
X145918Y78139D01*
X145858Y78070D01*
X145846Y78039D01*
X145827Y78013D01*
X145800Y77926D01*
X145766Y77841D01*
X145762Y77800D01*
X145755Y77778D01*
X145756Y77746D01*
X145748Y77675D01*
X145748Y74259D01*
X145751Y74239D01*
X145749Y74220D01*
X145771Y74118D01*
X145787Y74016D01*
X145797Y73999D01*
X145801Y73979D01*
X145854Y73890D01*
X145903Y73799D01*
X145917Y73785D01*
X145927Y73768D01*
X146006Y73701D01*
X146081Y73629D01*
X146099Y73621D01*
X146114Y73608D01*
X146210Y73569D01*
X146304Y73526D01*
X146324Y73524D01*
X146342Y73516D01*
X146509Y73498D01*
X164905Y73498D01*
X164925Y73501D01*
X164944Y73499D01*
X165046Y73521D01*
X165148Y73537D01*
X165165Y73547D01*
X165185Y73551D01*
X165274Y73604D01*
X165365Y73653D01*
X165379Y73667D01*
X165396Y73677D01*
X165463Y73756D01*
X165535Y73831D01*
X165543Y73849D01*
X165556Y73864D01*
X165595Y73960D01*
X165638Y74054D01*
X165640Y74074D01*
X165648Y74092D01*
X165666Y74259D01*
X165666Y76141D01*
X165652Y76231D01*
X165644Y76322D01*
X165632Y76351D01*
X165627Y76383D01*
X165584Y76464D01*
X165548Y76548D01*
X165522Y76580D01*
X165511Y76601D01*
X165488Y76623D01*
X165443Y76679D01*
X162833Y79289D01*
X162833Y83271D01*
X165649Y86087D01*
X169631Y86087D01*
X172182Y83536D01*
X172198Y83524D01*
X172210Y83509D01*
X172298Y83453D01*
X172381Y83393D01*
X172400Y83387D01*
X172417Y83376D01*
X172518Y83351D01*
X172617Y83320D01*
X172636Y83321D01*
X172656Y83316D01*
X172759Y83324D01*
X172862Y83327D01*
X172881Y83333D01*
X172901Y83335D01*
X172996Y83375D01*
X173093Y83411D01*
X173109Y83423D01*
X173127Y83431D01*
X173258Y83536D01*
X175809Y86087D01*
X179791Y86087D01*
X182607Y83271D01*
X182607Y79289D01*
X181479Y78161D01*
X181426Y78087D01*
X181366Y78018D01*
X181354Y77987D01*
X181335Y77961D01*
X181308Y77874D01*
X181274Y77789D01*
X181270Y77748D01*
X181263Y77726D01*
X181264Y77694D01*
X181256Y77623D01*
X181256Y74259D01*
X181259Y74239D01*
X181257Y74220D01*
X181279Y74118D01*
X181295Y74016D01*
X181305Y73999D01*
X181309Y73979D01*
X181362Y73890D01*
X181411Y73799D01*
X181425Y73785D01*
X181435Y73768D01*
X181514Y73701D01*
X181589Y73629D01*
X181607Y73621D01*
X181622Y73608D01*
X181718Y73569D01*
X181812Y73526D01*
X181832Y73524D01*
X181850Y73516D01*
X182017Y73498D01*
X184477Y73498D01*
X184567Y73512D01*
X184658Y73520D01*
X184688Y73532D01*
X184720Y73537D01*
X184801Y73580D01*
X184885Y73616D01*
X184917Y73642D01*
X184937Y73653D01*
X184960Y73676D01*
X185016Y73721D01*
X185301Y74006D01*
X185880Y74341D01*
X186527Y74514D01*
X187662Y74514D01*
X187662Y69611D01*
X187665Y69592D01*
X187663Y69572D01*
X187685Y69470D01*
X187701Y69368D01*
X187711Y69351D01*
X187715Y69331D01*
X187768Y69242D01*
X187817Y69151D01*
X187831Y69137D01*
X187841Y69120D01*
X187892Y69077D01*
X187893Y69075D01*
X187907Y69061D01*
X187917Y69044D01*
X187996Y68977D01*
X188071Y68905D01*
X188089Y68897D01*
X188104Y68884D01*
X188201Y68845D01*
X188294Y68802D01*
X188314Y68800D01*
X188332Y68792D01*
X188499Y68774D01*
X192602Y68774D01*
X192602Y67404D01*
X192616Y67314D01*
X192624Y67223D01*
X192636Y67193D01*
X192641Y67161D01*
X192684Y67080D01*
X192720Y66997D01*
X192746Y66964D01*
X192757Y66944D01*
X192780Y66922D01*
X192825Y66866D01*
X193886Y65805D01*
X193886Y41621D01*
X193889Y41601D01*
X193887Y41582D01*
X193909Y41480D01*
X193925Y41378D01*
X193935Y41361D01*
X193939Y41341D01*
X193992Y41252D01*
X194041Y41161D01*
X194055Y41147D01*
X194065Y41130D01*
X194144Y41063D01*
X194219Y40991D01*
X194237Y40983D01*
X194252Y40970D01*
X194348Y40931D01*
X194442Y40888D01*
X194462Y40886D01*
X194480Y40878D01*
X194647Y40860D01*
X196060Y40860D01*
X196151Y40874D01*
X196241Y40882D01*
X196271Y40894D01*
X196303Y40899D01*
X196384Y40942D01*
X196468Y40978D01*
X196500Y41004D01*
X196521Y41015D01*
X196543Y41038D01*
X196599Y41083D01*
X198170Y42654D01*
X198223Y42728D01*
X198283Y42798D01*
X198295Y42828D01*
X198314Y42854D01*
X198341Y42941D01*
X198375Y43026D01*
X198379Y43067D01*
X198386Y43089D01*
X198385Y43121D01*
X198393Y43193D01*
X198393Y46441D01*
X201209Y49257D01*
X205191Y49257D01*
X208007Y46441D01*
X208007Y42459D01*
X205191Y39643D01*
X201943Y39643D01*
X201852Y39629D01*
X201762Y39621D01*
X201732Y39609D01*
X201700Y39604D01*
X201619Y39561D01*
X201535Y39525D01*
X201503Y39499D01*
X201482Y39488D01*
X201460Y39465D01*
X201404Y39420D01*
X199143Y37159D01*
X199101Y37101D01*
X199052Y37049D01*
X199030Y37002D01*
X199000Y36960D01*
X198979Y36891D01*
X198948Y36826D01*
X198943Y36774D01*
X198927Y36724D01*
X198929Y36653D01*
X198921Y36582D01*
X198932Y36531D01*
X198934Y36479D01*
X198958Y36411D01*
X198973Y36341D01*
X199000Y36296D01*
X199018Y36248D01*
X199063Y36192D01*
X199100Y36130D01*
X199139Y36096D01*
X199172Y36056D01*
X199232Y36017D01*
X199287Y35970D01*
X199335Y35951D01*
X199379Y35923D01*
X199448Y35905D01*
X199515Y35878D01*
X199586Y35870D01*
X199617Y35862D01*
X199641Y35864D01*
X199681Y35860D01*
X200197Y35860D01*
X200287Y35874D01*
X200378Y35882D01*
X200407Y35894D01*
X200439Y35899D01*
X200520Y35942D01*
X200604Y35978D01*
X200636Y36004D01*
X200657Y36015D01*
X200679Y36038D01*
X200735Y36083D01*
X201209Y36557D01*
X205191Y36557D01*
X208007Y33741D01*
X208007Y29759D01*
X205191Y26943D01*
X201209Y26943D01*
X198393Y29759D01*
X198393Y30525D01*
X198390Y30545D01*
X198392Y30564D01*
X198370Y30666D01*
X198354Y30768D01*
X198344Y30785D01*
X198340Y30805D01*
X198287Y30894D01*
X198238Y30985D01*
X198224Y30999D01*
X198214Y31016D01*
X198135Y31083D01*
X198060Y31155D01*
X198042Y31163D01*
X198027Y31176D01*
X197931Y31215D01*
X197837Y31258D01*
X197817Y31260D01*
X197799Y31268D01*
X197632Y31286D01*
X194647Y31286D01*
X194627Y31283D01*
X194608Y31285D01*
X194506Y31263D01*
X194404Y31247D01*
X194387Y31237D01*
X194367Y31233D01*
X194278Y31180D01*
X194187Y31131D01*
X194173Y31117D01*
X194156Y31107D01*
X194089Y31028D01*
X194017Y30953D01*
X194009Y30935D01*
X193996Y30920D01*
X193957Y30824D01*
X193914Y30730D01*
X193912Y30710D01*
X193904Y30692D01*
X193886Y30525D01*
X193886Y16341D01*
X192993Y15448D01*
X192347Y15448D01*
X192327Y15445D01*
X192308Y15447D01*
X192206Y15425D01*
X192104Y15409D01*
X192087Y15399D01*
X192067Y15395D01*
X191978Y15342D01*
X191887Y15293D01*
X191873Y15279D01*
X191856Y15269D01*
X191789Y15190D01*
X191717Y15115D01*
X191709Y15097D01*
X191696Y15082D01*
X191657Y14986D01*
X191614Y14892D01*
X191612Y14872D01*
X191604Y14854D01*
X191586Y14687D01*
X191586Y10922D01*
X191589Y10902D01*
X191587Y10883D01*
X191609Y10781D01*
X191625Y10679D01*
X191635Y10662D01*
X191639Y10642D01*
X191692Y10553D01*
X191741Y10462D01*
X191755Y10448D01*
X191765Y10431D01*
X191844Y10364D01*
X191919Y10292D01*
X191937Y10284D01*
X191952Y10271D01*
X192048Y10232D01*
X192142Y10189D01*
X192162Y10187D01*
X192180Y10179D01*
X192347Y10161D01*
X323598Y10161D01*
X323618Y10164D01*
X323637Y10162D01*
X323739Y10184D01*
X323841Y10200D01*
X323858Y10210D01*
X323878Y10214D01*
X323967Y10267D01*
X324058Y10316D01*
X324072Y10330D01*
X324089Y10340D01*
X324156Y10419D01*
X324228Y10494D01*
X324236Y10512D01*
X324249Y10527D01*
X324288Y10623D01*
X324331Y10717D01*
X324333Y10737D01*
X324341Y10755D01*
X324359Y10922D01*
X324359Y101600D01*
X324356Y101620D01*
X324358Y101639D01*
X324336Y101741D01*
X324320Y101843D01*
X324310Y101860D01*
X324306Y101880D01*
X324253Y101969D01*
X324204Y102060D01*
X324190Y102074D01*
X324180Y102091D01*
X324101Y102158D01*
X324026Y102230D01*
X324008Y102238D01*
X323993Y102251D01*
X323897Y102290D01*
X323803Y102333D01*
X323783Y102335D01*
X323765Y102343D01*
X323598Y102361D01*
X323068Y102361D01*
X323048Y102358D01*
X323029Y102360D01*
X322927Y102338D01*
X322825Y102322D01*
X322808Y102312D01*
X322788Y102308D01*
X322699Y102255D01*
X322608Y102206D01*
X322594Y102192D01*
X322577Y102182D01*
X322510Y102103D01*
X322438Y102028D01*
X322430Y102010D01*
X322417Y101995D01*
X322378Y101899D01*
X322335Y101805D01*
X322333Y101785D01*
X322325Y101767D01*
X322307Y101600D01*
X322307Y99609D01*
X319491Y96793D01*
X315509Y96793D01*
X312693Y99609D01*
X312693Y101600D01*
X312690Y101620D01*
X312692Y101639D01*
X312670Y101741D01*
X312654Y101843D01*
X312644Y101860D01*
X312640Y101880D01*
X312587Y101969D01*
X312538Y102060D01*
X312524Y102074D01*
X312514Y102091D01*
X312435Y102158D01*
X312360Y102230D01*
X312342Y102238D01*
X312327Y102251D01*
X312231Y102290D01*
X312137Y102333D01*
X312117Y102335D01*
X312099Y102343D01*
X311932Y102361D01*
X63500Y102361D01*
X63480Y102358D01*
X63461Y102360D01*
X63359Y102338D01*
X63257Y102322D01*
X63240Y102312D01*
X63220Y102308D01*
X63131Y102255D01*
X63040Y102206D01*
X63026Y102192D01*
X63009Y102182D01*
X62942Y102103D01*
X62871Y102028D01*
X62862Y102010D01*
X62849Y101995D01*
X62810Y101899D01*
X62767Y101805D01*
X62765Y101785D01*
X62757Y101767D01*
X62739Y101600D01*
X62739Y10922D01*
X62742Y10902D01*
X62740Y10883D01*
X62762Y10781D01*
X62779Y10679D01*
X62788Y10662D01*
X62792Y10642D01*
X62845Y10553D01*
X62894Y10462D01*
X62908Y10448D01*
X62918Y10431D01*
X62997Y10364D01*
X63072Y10292D01*
X63090Y10284D01*
X63105Y10271D01*
X63201Y10232D01*
X63295Y10189D01*
X63315Y10187D01*
X63333Y10179D01*
X63500Y10161D01*
X127559Y10161D01*
X127579Y10164D01*
G37*
%LPC*%
G36*
X315509Y58693D02*
X315509Y58693D01*
X312693Y61509D01*
X312693Y65491D01*
X315509Y68307D01*
X319491Y68307D01*
X322307Y65491D01*
X322307Y61509D01*
X319491Y58693D01*
X315509Y58693D01*
G37*
%LPD*%
%LPC*%
G36*
X315509Y20593D02*
X315509Y20593D01*
X312693Y23409D01*
X312693Y27391D01*
X315509Y30207D01*
X319491Y30207D01*
X322307Y27391D01*
X322307Y23409D01*
X319491Y20593D01*
X315509Y20593D01*
G37*
%LPD*%
%LPC*%
G36*
X74209Y20593D02*
X74209Y20593D01*
X71393Y23409D01*
X71393Y27391D01*
X74209Y30207D01*
X78191Y30207D01*
X81007Y27391D01*
X81007Y23409D01*
X78191Y20593D01*
X74209Y20593D01*
G37*
%LPD*%
%LPC*%
G36*
X239309Y20593D02*
X239309Y20593D01*
X236493Y23409D01*
X236493Y27391D01*
X239309Y30207D01*
X243291Y30207D01*
X246107Y27391D01*
X246107Y23409D01*
X243291Y20593D01*
X239309Y20593D01*
G37*
%LPD*%
%LPC*%
G36*
X277409Y20593D02*
X277409Y20593D01*
X274593Y23409D01*
X274593Y27391D01*
X277409Y30207D01*
X281391Y30207D01*
X284207Y27391D01*
X284207Y23409D01*
X281391Y20593D01*
X277409Y20593D01*
G37*
%LPD*%
%LPC*%
G36*
X153460Y13371D02*
X153460Y13371D01*
X153450Y13369D01*
X153423Y13372D01*
X148499Y13372D01*
X148480Y13369D01*
X148460Y13371D01*
X148450Y13369D01*
X148423Y13372D01*
X143260Y13372D01*
X143260Y17514D01*
X143279Y17517D01*
X143298Y17515D01*
X143400Y17537D01*
X143502Y17553D01*
X143519Y17563D01*
X143539Y17567D01*
X143628Y17620D01*
X143719Y17669D01*
X143733Y17683D01*
X143750Y17693D01*
X143817Y17772D01*
X143819Y17774D01*
X148923Y17774D01*
X148942Y17777D01*
X148962Y17775D01*
X148972Y17777D01*
X148999Y17774D01*
X154093Y17774D01*
X154160Y17717D01*
X154235Y17645D01*
X154253Y17637D01*
X154268Y17624D01*
X154364Y17585D01*
X154458Y17542D01*
X154478Y17540D01*
X154496Y17532D01*
X154663Y17514D01*
X155395Y17514D01*
X155764Y17415D01*
X155879Y17404D01*
X155992Y17390D01*
X156002Y17391D01*
X156009Y17391D01*
X156030Y17396D01*
X156158Y17415D01*
X156527Y17514D01*
X157662Y17514D01*
X157662Y13372D01*
X153499Y13372D01*
X153480Y13369D01*
X153460Y13371D01*
G37*
%LPD*%
%LPC*%
G36*
X170984Y30596D02*
X170984Y30596D01*
X170984Y34964D01*
X173145Y34964D01*
X173792Y34791D01*
X174371Y34456D01*
X174844Y33983D01*
X175179Y33404D01*
X175352Y32757D01*
X175352Y30596D01*
X170984Y30596D01*
G37*
%LPD*%
%LPC*%
G36*
X170984Y54596D02*
X170984Y54596D01*
X170984Y58964D01*
X173146Y58964D01*
X173792Y58791D01*
X174371Y58456D01*
X174844Y57983D01*
X175179Y57404D01*
X175352Y56757D01*
X175352Y54596D01*
X170984Y54596D01*
G37*
%LPD*%
%LPC*%
G36*
X163570Y54596D02*
X163570Y54596D01*
X163570Y56757D01*
X163743Y57404D01*
X164078Y57983D01*
X164551Y58456D01*
X165130Y58791D01*
X165777Y58964D01*
X167938Y58964D01*
X167938Y54596D01*
X163570Y54596D01*
G37*
%LPD*%
%LPC*%
G36*
X163570Y30596D02*
X163570Y30596D01*
X163570Y32757D01*
X163743Y33404D01*
X164078Y33983D01*
X164551Y34456D01*
X165130Y34791D01*
X165777Y34964D01*
X167938Y34964D01*
X167938Y30596D01*
X163570Y30596D01*
G37*
%LPD*%
%LPC*%
G36*
X170984Y47182D02*
X170984Y47182D01*
X170984Y51550D01*
X175352Y51550D01*
X175352Y49389D01*
X175179Y48742D01*
X174844Y48163D01*
X174371Y47690D01*
X173792Y47355D01*
X173145Y47182D01*
X170984Y47182D01*
G37*
%LPD*%
%LPC*%
G36*
X170984Y23182D02*
X170984Y23182D01*
X170984Y27550D01*
X175352Y27550D01*
X175352Y25389D01*
X175179Y24742D01*
X174844Y24163D01*
X174371Y23690D01*
X173792Y23355D01*
X173145Y23182D01*
X170984Y23182D01*
G37*
%LPD*%
%LPC*%
G36*
X165777Y47182D02*
X165777Y47182D01*
X165130Y47355D01*
X164551Y47690D01*
X164078Y48163D01*
X163743Y48742D01*
X163570Y49389D01*
X163570Y51550D01*
X167938Y51550D01*
X167938Y47182D01*
X165777Y47182D01*
G37*
%LPD*%
%LPC*%
G36*
X164260Y13372D02*
X164260Y13372D01*
X164260Y17514D01*
X165395Y17514D01*
X165764Y17415D01*
X165878Y17404D01*
X165992Y17390D01*
X166002Y17391D01*
X166009Y17391D01*
X166030Y17396D01*
X166158Y17415D01*
X166527Y17514D01*
X167662Y17514D01*
X167662Y13372D01*
X164260Y13372D01*
G37*
%LPD*%
%LPC*%
G36*
X159260Y13372D02*
X159260Y13372D01*
X159260Y17514D01*
X160395Y17514D01*
X160764Y17415D01*
X160878Y17404D01*
X160992Y17390D01*
X161002Y17391D01*
X161009Y17391D01*
X161030Y17396D01*
X161158Y17415D01*
X161527Y17514D01*
X162662Y17514D01*
X162662Y13372D01*
X159260Y13372D01*
G37*
%LPD*%
%LPC*%
G36*
X189260Y70372D02*
X189260Y70372D01*
X189260Y74514D01*
X190395Y74514D01*
X191042Y74341D01*
X191621Y74006D01*
X192094Y73533D01*
X192429Y72954D01*
X192602Y72307D01*
X192602Y70372D01*
X189260Y70372D01*
G37*
%LPD*%
%LPC*%
G36*
X133260Y36832D02*
X133260Y36832D01*
X133260Y40974D01*
X136602Y40974D01*
X136602Y39039D01*
X136429Y38392D01*
X136094Y37813D01*
X135621Y37340D01*
X135042Y37005D01*
X134395Y36832D01*
X133260Y36832D01*
G37*
%LPD*%
%LPC*%
G36*
X129320Y70372D02*
X129320Y70372D01*
X129320Y72307D01*
X129493Y72954D01*
X129828Y73533D01*
X130301Y74006D01*
X130880Y74341D01*
X131527Y74514D01*
X132662Y74514D01*
X132662Y70372D01*
X129320Y70372D01*
G37*
%LPD*%
%LPC*%
G36*
X138320Y13372D02*
X138320Y13372D01*
X138320Y15307D01*
X138493Y15954D01*
X138828Y16533D01*
X139301Y17006D01*
X139880Y17341D01*
X140527Y17514D01*
X141662Y17514D01*
X141662Y13372D01*
X138320Y13372D01*
G37*
%LPD*%
%LPC*%
G36*
X140527Y36832D02*
X140527Y36832D01*
X139880Y37005D01*
X139301Y37340D01*
X138828Y37813D01*
X138493Y38392D01*
X138320Y39039D01*
X138320Y40974D01*
X141662Y40974D01*
X141662Y36832D01*
X140527Y36832D01*
G37*
%LPD*%
%LPC*%
G36*
X130527Y36832D02*
X130527Y36832D01*
X129880Y37005D01*
X129301Y37340D01*
X128828Y37813D01*
X128493Y38392D01*
X128320Y39039D01*
X128320Y40974D01*
X131662Y40974D01*
X131662Y36832D01*
X130527Y36832D01*
G37*
%LPD*%
%LPC*%
G36*
X133260Y13372D02*
X133260Y13372D01*
X133260Y17514D01*
X134368Y17514D01*
X135022Y17338D01*
X135609Y17000D01*
X136088Y16521D01*
X136426Y15934D01*
X136602Y15280D01*
X136602Y13372D01*
X133260Y13372D01*
G37*
%LPD*%
%LPC*%
G36*
X128320Y13372D02*
X128320Y13372D01*
X128320Y15280D01*
X128496Y15934D01*
X128834Y16521D01*
X129313Y17000D01*
X129900Y17338D01*
X130554Y17514D01*
X131662Y17514D01*
X131662Y13372D01*
X128320Y13372D01*
G37*
%LPD*%
%LPC*%
G36*
X169460Y53072D02*
X169460Y53072D01*
X169460Y53074D01*
X169462Y53074D01*
X169462Y53072D01*
X169460Y53072D01*
G37*
%LPD*%
%LPC*%
G36*
X169460Y29072D02*
X169460Y29072D01*
X169460Y29074D01*
X169462Y29074D01*
X169462Y29072D01*
X169460Y29072D01*
G37*
%LPD*%
D10*
X241300Y448700D03*
X241300Y465700D03*
X208280Y448700D03*
X208280Y465700D03*
X175260Y448700D03*
X175260Y465700D03*
D11*
X187960Y130175D03*
X187960Y149225D03*
X215900Y130175D03*
X215900Y149225D03*
D12*
X124850Y476250D03*
X141850Y476250D03*
X141850Y439420D03*
X124850Y439420D03*
D13*
X271780Y248920D03*
X297180Y248920D03*
X271780Y223520D03*
X297180Y223520D03*
X271780Y198120D03*
X297180Y198120D03*
X271780Y172720D03*
X297180Y172720D03*
X73660Y474980D03*
X48260Y474980D03*
D14*
X157480Y373720D03*
X157480Y352720D03*
X119380Y373720D03*
X119380Y352720D03*
D15*
X119380Y302420D03*
X119380Y322420D03*
D16*
X223680Y299720D03*
X243680Y299720D03*
D15*
X157480Y322420D03*
X157480Y302420D03*
D17*
X60960Y139700D03*
X60960Y281940D03*
X73660Y139700D03*
X73660Y281940D03*
D18*
X187610Y189854D02*
X190226Y187238D01*
X186691Y183703D02*
X184075Y186319D01*
X180539Y182783D02*
X183155Y180167D01*
X179620Y176632D02*
X177004Y179248D01*
X173468Y175712D02*
X176084Y173096D01*
X193762Y190774D02*
X191146Y193390D01*
X194681Y196925D02*
X197297Y194309D01*
X200833Y197845D02*
X198217Y200461D01*
X201752Y203996D02*
X204368Y201380D01*
X207904Y204916D02*
X205288Y207532D01*
X187610Y231786D02*
X190226Y234402D01*
X186691Y237937D02*
X184075Y235321D01*
X180539Y238857D02*
X183155Y241473D01*
X179620Y245008D02*
X177004Y242392D01*
X173468Y245928D02*
X176084Y248544D01*
X193762Y230866D02*
X191146Y228250D01*
X194681Y224715D02*
X197297Y227331D01*
X200833Y223795D02*
X198217Y221179D01*
X201752Y217644D02*
X204368Y220260D01*
X207904Y216724D02*
X205288Y214108D01*
X149214Y228250D02*
X146598Y230866D01*
X143063Y227331D02*
X145679Y224715D01*
X142143Y221179D02*
X139527Y223795D01*
X135992Y220260D02*
X138608Y217644D01*
X135072Y214108D02*
X132456Y216724D01*
X150134Y234402D02*
X152750Y231786D01*
X156285Y235321D02*
X153669Y237937D01*
X157205Y241473D02*
X159821Y238857D01*
X163356Y242392D02*
X160740Y245008D01*
X164276Y248544D02*
X166892Y245928D01*
X149214Y193390D02*
X146598Y190774D01*
X143063Y194309D02*
X145679Y196925D01*
X142143Y200461D02*
X139527Y197845D01*
X135992Y201380D02*
X138608Y203996D01*
X135072Y207532D02*
X132456Y204916D01*
X150134Y187238D02*
X152750Y189854D01*
X156285Y186319D02*
X153669Y183703D01*
X157205Y180167D02*
X159821Y182783D01*
X163356Y179248D02*
X160740Y176632D01*
X164276Y173096D02*
X166892Y175712D01*
D19*
G36*
X139987Y210820D02*
X170180Y241013D01*
X200373Y210820D01*
X170180Y180627D01*
X139987Y210820D01*
G37*
D20*
X66040Y431550D03*
D21*
X66040Y368550D03*
D20*
X89040Y431550D03*
X43040Y431550D03*
D22*
X43180Y227260D03*
D23*
X100965Y238760D03*
D22*
X43180Y250260D03*
X43180Y168840D03*
D23*
X100965Y180340D03*
D22*
X43180Y191840D03*
D24*
G36*
X236660Y181338D02*
X244158Y181233D01*
X244060Y174234D01*
X236562Y174339D01*
X236660Y181338D01*
G37*
G36*
X230561Y174423D02*
X223063Y174528D01*
X223161Y181527D01*
X230659Y181422D01*
X230561Y174423D01*
G37*
G36*
X230700Y184422D02*
X223202Y184527D01*
X223300Y191526D01*
X230798Y191421D01*
X230700Y184422D01*
G37*
G36*
X236799Y191337D02*
X244297Y191232D01*
X244199Y184233D01*
X236701Y184338D01*
X236799Y191337D01*
G37*
D25*
X183770Y358500D03*
X263270Y358500D03*
X183770Y403500D03*
X263270Y403500D03*
D26*
X148461Y12573D03*
X153461Y12573D03*
X158461Y12573D03*
X163461Y12573D03*
X168461Y12573D03*
X173461Y12573D03*
X178461Y12573D03*
X183461Y12573D03*
X188461Y12573D03*
D27*
X189961Y18573D03*
X189961Y23573D03*
X189961Y28573D03*
X189961Y33573D03*
X189961Y38573D03*
X189961Y43573D03*
X189961Y48573D03*
X189961Y53573D03*
X189961Y58573D03*
X189961Y63573D03*
D26*
X188461Y69573D03*
X183461Y69573D03*
X178461Y69573D03*
X173461Y69573D03*
X168461Y69573D03*
X163461Y69573D03*
X158461Y69573D03*
X153461Y69573D03*
X148461Y69573D03*
X143461Y69573D03*
X138461Y69573D03*
X133461Y69573D03*
D27*
X132961Y63573D03*
X132961Y58573D03*
X132961Y53573D03*
X132961Y48573D03*
X148961Y63573D03*
X148961Y58573D03*
X148961Y53573D03*
X148961Y48573D03*
X148961Y43573D03*
X148961Y38573D03*
X148961Y33573D03*
X148961Y28573D03*
X148961Y23573D03*
X148961Y18573D03*
D26*
X132461Y41773D03*
D28*
X134029Y14941D02*
X134029Y10205D01*
X130893Y10205D01*
X130893Y14941D01*
X134029Y14941D01*
X134029Y10268D02*
X130893Y10268D01*
X130893Y10331D02*
X134029Y10331D01*
X134029Y10394D02*
X130893Y10394D01*
X130893Y10457D02*
X134029Y10457D01*
X134029Y10520D02*
X130893Y10520D01*
X130893Y10583D02*
X134029Y10583D01*
X134029Y10646D02*
X130893Y10646D01*
X130893Y10709D02*
X134029Y10709D01*
X134029Y10772D02*
X130893Y10772D01*
X130893Y10835D02*
X134029Y10835D01*
X134029Y10898D02*
X130893Y10898D01*
X130893Y10961D02*
X134029Y10961D01*
X134029Y11024D02*
X130893Y11024D01*
X130893Y11087D02*
X134029Y11087D01*
X134029Y11150D02*
X130893Y11150D01*
X130893Y11213D02*
X134029Y11213D01*
X134029Y11276D02*
X130893Y11276D01*
X130893Y11339D02*
X134029Y11339D01*
X134029Y11402D02*
X130893Y11402D01*
X130893Y11465D02*
X134029Y11465D01*
X134029Y11528D02*
X130893Y11528D01*
X130893Y11591D02*
X134029Y11591D01*
X134029Y11654D02*
X130893Y11654D01*
X130893Y11717D02*
X134029Y11717D01*
X134029Y11780D02*
X130893Y11780D01*
X130893Y11843D02*
X134029Y11843D01*
X134029Y11906D02*
X130893Y11906D01*
X130893Y11969D02*
X134029Y11969D01*
X134029Y12032D02*
X130893Y12032D01*
X130893Y12095D02*
X134029Y12095D01*
X134029Y12158D02*
X130893Y12158D01*
X130893Y12221D02*
X134029Y12221D01*
X134029Y12284D02*
X130893Y12284D01*
X130893Y12347D02*
X134029Y12347D01*
X134029Y12410D02*
X130893Y12410D01*
X130893Y12473D02*
X134029Y12473D01*
X134029Y12536D02*
X130893Y12536D01*
X130893Y12599D02*
X134029Y12599D01*
X134029Y12662D02*
X130893Y12662D01*
X130893Y12725D02*
X134029Y12725D01*
X134029Y12788D02*
X130893Y12788D01*
X130893Y12851D02*
X134029Y12851D01*
X134029Y12914D02*
X130893Y12914D01*
X130893Y12977D02*
X134029Y12977D01*
X134029Y13040D02*
X130893Y13040D01*
X130893Y13103D02*
X134029Y13103D01*
X134029Y13166D02*
X130893Y13166D01*
X130893Y13229D02*
X134029Y13229D01*
X134029Y13292D02*
X130893Y13292D01*
X130893Y13355D02*
X134029Y13355D01*
X134029Y13418D02*
X130893Y13418D01*
X130893Y13481D02*
X134029Y13481D01*
X134029Y13544D02*
X130893Y13544D01*
X130893Y13607D02*
X134029Y13607D01*
X134029Y13670D02*
X130893Y13670D01*
X130893Y13733D02*
X134029Y13733D01*
X134029Y13796D02*
X130893Y13796D01*
X130893Y13859D02*
X134029Y13859D01*
X134029Y13922D02*
X130893Y13922D01*
X130893Y13985D02*
X134029Y13985D01*
X134029Y14048D02*
X130893Y14048D01*
X130893Y14111D02*
X134029Y14111D01*
X134029Y14174D02*
X130893Y14174D01*
X130893Y14237D02*
X134029Y14237D01*
X134029Y14300D02*
X130893Y14300D01*
X130893Y14363D02*
X134029Y14363D01*
X134029Y14426D02*
X130893Y14426D01*
X130893Y14489D02*
X134029Y14489D01*
X134029Y14552D02*
X130893Y14552D01*
X130893Y14615D02*
X134029Y14615D01*
X134029Y14678D02*
X130893Y14678D01*
X130893Y14741D02*
X134029Y14741D01*
X134029Y14804D02*
X130893Y14804D01*
X130893Y14867D02*
X134029Y14867D01*
X134029Y14930D02*
X130893Y14930D01*
D26*
X142461Y41773D03*
X142461Y12573D03*
D29*
X169461Y53073D03*
X169461Y29073D03*
D13*
X38100Y30480D03*
X38100Y55880D03*
X38100Y81280D03*
X38100Y106680D03*
X295910Y134620D03*
X270510Y134620D03*
D30*
X89040Y431550D03*
X124850Y439420D03*
X141850Y476250D03*
X175260Y465700D03*
X208280Y465700D03*
X241300Y465700D03*
X157480Y373720D03*
X119380Y373720D03*
X243680Y299720D03*
X43180Y250260D03*
X43180Y191840D03*
X187960Y130175D03*
X215900Y130175D03*
D31*
X188461Y80511D02*
X188461Y69573D01*
X188461Y80511D02*
X190500Y82550D01*
D30*
X190500Y82550D03*
D31*
X180482Y53073D02*
X169461Y53073D01*
X180482Y53073D02*
X182755Y50800D01*
D30*
X182755Y50800D03*
D31*
X179082Y29073D02*
X169461Y29073D01*
X179082Y29073D02*
X182755Y25400D01*
D30*
X182755Y25400D03*
D31*
X132461Y12573D02*
X131592Y13442D01*
X88900Y13442D01*
D30*
X88900Y13442D03*
D31*
X115198Y41773D02*
X132461Y41773D01*
X115198Y41773D02*
X113411Y43561D01*
D30*
X113411Y43561D03*
D31*
X162048Y243700D02*
X156341Y249408D01*
X152400Y249408D01*
D30*
X152400Y249408D03*
D31*
X206596Y206224D02*
X209620Y203200D01*
X222250Y203200D01*
D30*
X222250Y203200D03*
D31*
X43040Y444360D02*
X73660Y474980D01*
X43040Y444360D02*
X43040Y431550D01*
X73660Y474980D02*
X123580Y474980D01*
X124850Y476250D01*
X263270Y358500D02*
X263270Y339470D01*
X247650Y323850D02*
X234950Y323850D01*
X223680Y312580D01*
X223680Y299720D01*
X247650Y323850D02*
X263270Y339470D01*
X206359Y222250D02*
X203060Y218952D01*
X270510Y222250D02*
X271780Y223520D01*
X270510Y222250D02*
X206359Y222250D01*
D30*
X266700Y311150D03*
D31*
X263270Y314580D01*
X263270Y339470D01*
D32*
X226861Y177975D02*
X220703Y177975D01*
X199525Y199153D01*
X203835Y165100D02*
X187960Y149225D01*
X203835Y165100D02*
X215900Y165100D01*
X226861Y176061D01*
X226861Y177975D01*
X208899Y196850D02*
X203060Y202688D01*
X231434Y196850D02*
X240499Y187785D01*
X231434Y196850D02*
X208899Y196850D01*
X240499Y187785D02*
X244773Y183511D01*
X245132Y183511D01*
X247650Y180993D01*
X247650Y165100D01*
X241300Y158750D01*
X222250Y158750D01*
X215900Y152400D01*
X215900Y149225D01*
X185829Y236629D02*
X185383Y236629D01*
X185829Y236629D02*
X190500Y241300D01*
X224289Y241300D01*
X266700Y266700D02*
X273050Y266700D01*
D30*
X273050Y266700D03*
D32*
X235970Y252980D02*
X224289Y241300D01*
X235970Y252980D02*
X236989Y254000D01*
X243339Y260350D01*
X260350Y260350D02*
X266700Y266700D01*
X260350Y260350D02*
X243339Y260350D01*
X190500Y234676D02*
X188918Y233094D01*
X190500Y234676D02*
X190500Y234950D01*
X188918Y233094D02*
X193812Y237988D01*
X193823Y237998D01*
X193812Y237988D02*
X196573Y237988D01*
X196583Y237998D01*
X225298Y237998D02*
X237998Y250698D01*
X225298Y237998D02*
X196583Y237998D01*
X237998Y250698D02*
X244348Y250698D01*
X247650Y254000D01*
D30*
X247650Y254000D03*
D32*
X201615Y231648D02*
X195989Y226023D01*
D30*
X247650Y241300D03*
D32*
X237998Y231648D02*
X201615Y231648D01*
X237998Y231648D02*
X247650Y241300D01*
X205638Y228600D02*
X199525Y222487D01*
D30*
X247650Y228600D03*
D32*
X205638Y228600D01*
X241300Y247650D02*
X254000Y247650D01*
X297180Y204470D02*
X297180Y198120D01*
X283464Y228360D02*
X276620Y235204D01*
X266446Y235204D02*
X254000Y247650D01*
X283464Y218186D02*
X297180Y204470D01*
X276620Y235204D02*
X266446Y235204D01*
X283464Y228360D02*
X283464Y218186D01*
X197846Y234950D02*
X192454Y229558D01*
X197846Y234950D02*
X228600Y234950D01*
X241300Y247650D01*
X157480Y322420D02*
X157480Y352720D01*
X101600Y238760D02*
X100965Y238760D01*
D30*
X121920Y238760D03*
D32*
X101600Y238760D01*
D30*
X132080Y248920D03*
D32*
X163900Y248920D02*
X165584Y247236D01*
X73660Y266700D02*
X73660Y281940D01*
X73660Y266700D02*
X101600Y238760D01*
X152470Y260350D02*
X165584Y247236D01*
X143510Y260350D02*
X132080Y248920D01*
X143510Y260350D02*
X152470Y260350D01*
X106680Y186055D02*
X100965Y180340D01*
X106680Y186055D02*
X106680Y213360D01*
X121920Y228600D01*
X132080Y228600D01*
D30*
X132080Y228600D03*
X142240Y238760D03*
D32*
X154838Y243840D02*
X158513Y240165D01*
X147320Y243840D02*
X142240Y238760D01*
X147320Y243840D02*
X154838Y243840D01*
X100965Y180340D02*
X73660Y153035D01*
X73660Y139700D01*
X119380Y251013D02*
X119380Y302420D01*
X119380Y251013D02*
X144371Y226023D01*
X119380Y322420D02*
X119380Y352720D01*
X148961Y23573D02*
X156923Y23573D01*
X158750Y25400D01*
D30*
X158750Y25400D03*
X127000Y107950D03*
D32*
X127000Y199460D02*
X133764Y206224D01*
X127000Y199460D02*
X127000Y107950D01*
X189961Y33573D02*
X201377Y33573D01*
X203200Y31750D01*
D30*
X203200Y31750D03*
D32*
X275590Y114300D02*
X295910Y134620D01*
X275590Y114300D02*
X171450Y114300D01*
X133350Y152400D01*
X133350Y191668D02*
X140835Y199153D01*
X133350Y191668D02*
X133350Y152400D01*
X189961Y38573D02*
X197323Y38573D01*
X203200Y44450D01*
D30*
X203200Y44450D03*
X146050Y165100D03*
D32*
X139700Y171450D01*
X139700Y190947D02*
X144371Y195617D01*
X139700Y190947D02*
X139700Y171450D01*
D31*
X66040Y368550D02*
X66040Y431550D01*
X66040Y368550D02*
X60960Y363470D01*
X60960Y281940D01*
X60960Y245040D01*
X43180Y227260D01*
X63500Y206940D01*
X63500Y189160D02*
X43180Y168840D01*
X63500Y189160D02*
X63500Y206940D01*
X43180Y168840D02*
X60960Y151060D01*
X168461Y80459D02*
X168461Y69573D01*
X168461Y80459D02*
X167640Y81280D01*
D30*
X167640Y81280D03*
D31*
X178461Y80619D02*
X178461Y69573D01*
X178461Y80619D02*
X177800Y81280D01*
D30*
X177800Y81280D03*
D31*
X66040Y431550D02*
X91690Y457200D01*
X127000Y457200D01*
X141850Y442350D01*
X141850Y439420D01*
X165980Y439420D01*
X175260Y448700D01*
X208280Y448700D01*
X241300Y448700D01*
X263270Y426730D01*
X263270Y403500D01*
X200300Y403500D01*
X194314Y397514D01*
X194314Y395843D01*
X192677Y394206D01*
X191006Y394206D01*
X172720Y375920D02*
X172720Y309880D01*
X165260Y302420D01*
X158750Y302420D01*
X157480Y302420D01*
X172720Y375920D02*
X191006Y394206D01*
X177800Y250260D02*
X174776Y247236D01*
X177800Y283370D02*
X158750Y302420D01*
X177800Y283370D02*
X177800Y250260D01*
X279400Y387370D02*
X263270Y403500D01*
X279400Y256540D02*
X271780Y248920D01*
X279400Y298450D02*
X279400Y387370D01*
X279400Y298450D02*
X279400Y256540D01*
X209366Y218186D02*
X206596Y215416D01*
X232664Y218186D02*
X241300Y209550D01*
D30*
X241300Y209550D03*
X260350Y279400D03*
D31*
X279400Y298450D01*
X232664Y218186D02*
X209366Y218186D01*
X60960Y151060D02*
X60960Y139700D01*
X60960Y129540D01*
X69850Y120650D01*
D30*
X69850Y120650D03*
D32*
X129307Y53573D02*
X132961Y53573D01*
X129307Y53573D02*
X121920Y60960D01*
D30*
X121920Y60960D03*
D32*
X124147Y48573D02*
X132961Y48573D01*
X124147Y48573D02*
X121920Y50800D01*
D30*
X121920Y50800D03*
D32*
X143461Y69573D02*
X143461Y80059D01*
X142240Y81280D01*
D30*
X142240Y81280D03*
D32*
X144975Y48573D02*
X148961Y48573D01*
X144975Y48573D02*
X143764Y49784D01*
X143764Y55141D01*
X141755Y57150D01*
D30*
X141755Y57150D03*
X317500Y25400D03*
X317500Y63500D03*
X317500Y101600D03*
X279400Y25400D03*
X241300Y25400D03*
X76200Y25400D03*
M02*
