M48
;GenerationSoftware,Autodesk,EAGLE,9.0.1*%
;CreationDate,2019-06-07T13:03:31Z*%
FMAT,2
ICI,OFF
METRIC,TZ,000.000
T2C0.250
T1C1.016
%
G90
M71
T1
X27051Y13462
X29718Y17272
X27178Y24892
X29718Y24892
X27178Y22352
X29718Y22352
X27178Y19812
X29718Y19812
X27178Y17272
X7366Y47498
X4826Y47498
X3810Y3048
X3810Y5588
X3810Y8128
X3810Y10668
X29591Y13462
T2
X8890Y1344
X11341Y4356
X15240Y24941
X22225Y20320
X26670Y31115
X27305Y26670
X24765Y25400
X24765Y24130
X24765Y22860
X12192Y23876
X13208Y24892
X13208Y22860
X14224Y23876
X15875Y2540
X12700Y10795
X20320Y3175
X24368Y29972
X14605Y16510
X16764Y8128
X17780Y8128
X24130Y20955
X26035Y27940
X6985Y12065
X12192Y6096
X12192Y5080
X14224Y8128
X14175Y5715
X31750Y2540
X31750Y6350
X31750Y10160
X27940Y2540
X24130Y2540
X8904Y43155
X12485Y43942
X14185Y47625
X17526Y46570
X20828Y46570
X24130Y46570
X15748Y37372
X11938Y37372
X20320Y4445
X4318Y25026
X4318Y19184
X18796Y13017
X21590Y13017
X19050Y8255
X18276Y5080
X18276Y2540
X7620Y2540
M30