G04 EAGLE Gerber X2 export*
%TF.Part,Single*%
%TF.FileFunction,Legend,Top,1*%
%TF.FilePolarity,Positive*%
%TF.GenerationSoftware,Autodesk,EAGLE,9.0.1*%
%TF.CreationDate,2019-06-07T13:03:31Z*%
G75*
%MOMM*%
%FSLAX34Y34*%
%LPD*%
%AMOC8*
5,1,8,0,0,1.08239X$1,22.5*%
G01*
%ADD10R,0.050800X0.025400*%
%ADD11R,0.025400X0.025400*%
%ADD12R,0.101600X0.025400*%
%ADD13R,0.076200X0.025400*%
%ADD14R,0.152400X0.025400*%
%ADD15R,0.177800X0.025400*%
%ADD16R,0.127000X0.025400*%
%ADD17R,0.228600X0.025400*%
%ADD18R,0.279400X0.025400*%
%ADD19R,0.355600X0.025400*%
%ADD20R,0.406400X0.025400*%
%ADD21R,0.254000X0.025400*%
%ADD22R,0.203200X0.025400*%
%ADD23R,0.304800X0.025400*%
%ADD24R,0.431800X0.025400*%
%ADD25R,0.330200X0.025400*%
%ADD26R,0.381000X0.025400*%
%ADD27R,0.609600X0.025400*%
%ADD28R,0.457200X0.025400*%
%ADD29R,0.482600X0.025400*%
%ADD30R,0.533400X0.025400*%
%ADD31R,0.558800X0.025400*%
%ADD32R,0.685800X0.025400*%
%ADD33R,0.914400X0.025400*%
%ADD34R,0.812800X0.025400*%
%ADD35R,0.787400X0.025400*%
%ADD36R,1.041400X0.025400*%
%ADD37R,1.117600X0.025400*%
%ADD38R,0.863600X0.025400*%
%ADD39R,1.270000X0.025400*%
%ADD40R,1.371600X0.025400*%
%ADD41R,1.346200X0.025400*%
%ADD42R,1.422400X0.025400*%
%ADD43R,1.473200X0.025400*%
%ADD44R,1.447800X0.025400*%
%ADD45R,0.660400X0.025400*%
%ADD46R,0.736600X0.025400*%
%ADD47R,0.508000X0.025400*%
%ADD48R,0.762000X0.025400*%
%ADD49R,0.838200X0.025400*%
%ADD50R,2.590800X0.025400*%
%ADD51R,2.616200X0.025400*%
%ADD52R,2.641600X0.025400*%
%ADD53R,2.667000X0.025400*%
%ADD54R,2.692400X0.025400*%
%ADD55R,2.717800X0.025400*%
%ADD56R,2.794000X0.025400*%
%ADD57R,2.844800X0.025400*%
%ADD58R,2.895600X0.025400*%
%ADD59R,2.768600X0.025400*%
%ADD60R,3.175000X0.025400*%
%ADD61R,3.200400X0.025400*%
%ADD62R,2.870200X0.025400*%
%ADD63R,2.921000X0.025400*%
%ADD64R,2.387600X0.025400*%
%ADD65R,2.286000X0.025400*%
%ADD66R,2.260600X0.025400*%
%ADD67R,2.235200X0.025400*%
%ADD68R,2.209800X0.025400*%
%ADD69R,2.159000X0.025400*%
%ADD70R,2.133600X0.025400*%
%ADD71R,2.082800X0.025400*%
%ADD72R,2.057400X0.025400*%
%ADD73R,2.006600X0.025400*%
%ADD74R,1.955800X0.025400*%
%ADD75R,1.905000X0.025400*%
%ADD76R,0.889000X0.025400*%
%ADD77R,1.854200X0.025400*%
%ADD78R,1.803400X0.025400*%
%ADD79R,1.752600X0.025400*%
%ADD80R,1.701800X0.025400*%
%ADD81R,1.651000X0.025400*%
%ADD82R,1.574800X0.025400*%
%ADD83R,1.498600X0.025400*%
%ADD84R,1.244600X0.025400*%
%ADD85R,1.143000X0.025400*%
%ADD86R,0.584200X0.025400*%
%ADD87C,0.050800*%
%ADD88C,0.101600*%
%ADD89C,0.152400*%
%ADD90C,0.203200*%
%ADD91C,0.127000*%
%ADD92R,0.200000X0.200000*%
%ADD93R,1.400000X0.650000*%
%ADD94R,0.650000X1.400000*%
%ADD95C,0.150000*%
%ADD96C,0.200000*%
%ADD97C,0.100000*%


D10*
X261747Y64770D03*
D11*
X303784Y64770D03*
D12*
X261747Y65024D03*
D13*
X303784Y65024D03*
D14*
X261747Y65278D03*
X303657Y65278D03*
D15*
X261874Y65532D03*
D13*
X303022Y65532D03*
X304292Y65532D03*
X261112Y65786D03*
X262636Y65786D03*
X302768Y65786D03*
X304546Y65786D03*
X260858Y66040D03*
X262890Y66040D03*
X302514Y66040D03*
X304800Y66040D03*
X260604Y66294D03*
D12*
X263017Y66294D03*
D13*
X302260Y66294D03*
X305054Y66294D03*
X260350Y66548D03*
X262636Y66548D03*
X263652Y66548D03*
D16*
X302260Y66548D03*
D10*
X305181Y66548D03*
D13*
X260096Y66802D03*
X262382Y66802D03*
D12*
X263779Y66802D03*
D14*
X302133Y66802D03*
D10*
X305435Y66802D03*
D13*
X259842Y67056D03*
D10*
X262255Y67056D03*
D16*
X263906Y67056D03*
D12*
X301371Y67056D03*
X302641Y67056D03*
D13*
X305562Y67056D03*
D10*
X259715Y67310D03*
X262001Y67310D03*
D15*
X263906Y67310D03*
D12*
X301117Y67310D03*
D16*
X302768Y67310D03*
D13*
X305816Y67310D03*
D10*
X259461Y67564D03*
X261747Y67564D03*
D17*
X263906Y67564D03*
D12*
X300863Y67564D03*
D10*
X302387Y67564D03*
D13*
X303276Y67564D03*
X306070Y67564D03*
X259334Y67818D03*
D10*
X261493Y67818D03*
D18*
X263906Y67818D03*
D12*
X300609Y67818D03*
D13*
X302514Y67818D03*
X303530Y67818D03*
X306324Y67818D03*
X259080Y68072D03*
X261366Y68072D03*
D19*
X264033Y68072D03*
D13*
X300228Y68072D03*
X302514Y68072D03*
X303784Y68072D03*
X306578Y68072D03*
X258826Y68326D03*
D10*
X260985Y68326D03*
D20*
X264033Y68326D03*
D13*
X299974Y68326D03*
X302514Y68326D03*
X304038Y68326D03*
X306832Y68326D03*
X258572Y68580D03*
D10*
X260731Y68580D03*
D17*
X262890Y68580D03*
D14*
X265557Y68580D03*
X300101Y68580D03*
D10*
X302641Y68580D03*
D13*
X304292Y68580D03*
D10*
X306959Y68580D03*
D13*
X258318Y68834D03*
X260604Y68834D03*
D14*
X262255Y68834D03*
D15*
X265684Y68834D03*
D21*
X300355Y68834D03*
D10*
X302641Y68834D03*
D13*
X304546Y68834D03*
X307086Y68834D03*
X258318Y69088D03*
X260350Y69088D03*
D12*
X261747Y69088D03*
D22*
X265811Y69088D03*
D13*
X298958Y69088D03*
D23*
X301371Y69088D03*
D13*
X304800Y69088D03*
D12*
X307213Y69088D03*
D13*
X258572Y69342D03*
D10*
X260223Y69342D03*
D12*
X261747Y69342D03*
D17*
X265938Y69342D03*
D12*
X298831Y69342D03*
D13*
X300482Y69342D03*
D22*
X302387Y69342D03*
D12*
X304927Y69342D03*
X306959Y69342D03*
D13*
X258826Y69596D03*
D10*
X259969Y69596D03*
D16*
X261620Y69596D03*
D21*
X266065Y69596D03*
D14*
X298831Y69596D03*
D13*
X300736Y69596D03*
D17*
X303276Y69596D03*
D12*
X305181Y69596D03*
X306705Y69596D03*
D14*
X259461Y69850D03*
X261493Y69850D03*
D23*
X266319Y69850D03*
D22*
X298831Y69850D03*
D10*
X300863Y69850D03*
D24*
X304546Y69850D03*
D12*
X259461Y70104D03*
D15*
X261366Y70104D03*
D25*
X266446Y70104D03*
D13*
X270510Y70104D03*
D10*
X295021Y70104D03*
D13*
X297942Y70104D03*
D16*
X299466Y70104D03*
D10*
X301117Y70104D03*
D13*
X302768Y70104D03*
D21*
X305181Y70104D03*
D13*
X259588Y70358D03*
D15*
X261112Y70358D03*
D19*
X266573Y70358D03*
D16*
X270510Y70358D03*
D12*
X295021Y70358D03*
D13*
X297688Y70358D03*
D10*
X299085Y70358D03*
D13*
X299974Y70358D03*
X301244Y70358D03*
D10*
X302895Y70358D03*
D14*
X305435Y70358D03*
D21*
X260731Y70612D03*
D20*
X266573Y70612D03*
D14*
X270637Y70612D03*
D15*
X294894Y70612D03*
D13*
X297434Y70612D03*
X299212Y70612D03*
X300228Y70612D03*
X301498Y70612D03*
D10*
X302895Y70612D03*
D13*
X305562Y70612D03*
D17*
X260858Y70866D03*
D24*
X266700Y70866D03*
D10*
X269875Y70866D03*
D13*
X271272Y70866D03*
D12*
X294259Y70866D03*
X295529Y70866D03*
X297053Y70866D03*
D13*
X299212Y70866D03*
X300482Y70866D03*
X301752Y70866D03*
D10*
X302895Y70866D03*
D12*
X305181Y70866D03*
D15*
X261112Y71120D03*
D22*
X265303Y71120D03*
D14*
X268351Y71120D03*
D13*
X269748Y71120D03*
X271526Y71120D03*
X294132Y71120D03*
D22*
X296291Y71120D03*
D13*
X299212Y71120D03*
X300736Y71120D03*
X302006Y71120D03*
D10*
X302895Y71120D03*
D12*
X304927Y71120D03*
D14*
X261239Y71374D03*
D17*
X264414Y71374D03*
X268732Y71374D03*
D13*
X271526Y71374D03*
X294132Y71374D03*
D14*
X296291Y71374D03*
D10*
X299339Y71374D03*
D13*
X300990Y71374D03*
D16*
X302514Y71374D03*
D12*
X304673Y71374D03*
D16*
X261366Y71628D03*
D18*
X263652Y71628D03*
D22*
X268605Y71628D03*
D13*
X271272Y71628D03*
X294386Y71628D03*
D15*
X296672Y71628D03*
D10*
X299339Y71628D03*
X301117Y71628D03*
D16*
X302768Y71628D03*
D12*
X304419Y71628D03*
D20*
X263017Y71882D03*
D15*
X268478Y71882D03*
D13*
X271018Y71882D03*
D20*
X282575Y71882D03*
D10*
X294513Y71882D03*
D21*
X297307Y71882D03*
D10*
X299339Y71882D03*
D13*
X301244Y71882D03*
D12*
X302895Y71882D03*
D13*
X304038Y71882D03*
D26*
X263144Y72136D03*
D15*
X268478Y72136D03*
D13*
X270764Y72136D03*
D27*
X282575Y72136D03*
D13*
X294894Y72136D03*
D25*
X297942Y72136D03*
D13*
X301498Y72136D03*
D14*
X303403Y72136D03*
D19*
X263271Y72390D03*
D14*
X268097Y72390D03*
D13*
X270510Y72390D03*
D22*
X279781Y72390D03*
X285369Y72390D03*
D13*
X294894Y72390D03*
X296926Y72390D03*
D21*
X299339Y72390D03*
D12*
X301879Y72390D03*
D16*
X303276Y72390D03*
D23*
X263271Y72644D03*
D14*
X268097Y72644D03*
D13*
X270510Y72644D03*
D14*
X279019Y72644D03*
X286131Y72644D03*
D13*
X295148Y72644D03*
X297180Y72644D03*
D25*
X300736Y72644D03*
D13*
X303276Y72644D03*
D21*
X263525Y72898D03*
D16*
X267970Y72898D03*
X270510Y72898D03*
X278384Y72898D03*
X286766Y72898D03*
D14*
X295021Y72898D03*
D13*
X297434Y72898D03*
X299466Y72898D03*
D25*
X301752Y72898D03*
D17*
X263652Y73152D03*
D12*
X267843Y73152D03*
D15*
X270510Y73152D03*
D12*
X278003Y73152D03*
X287147Y73152D03*
X294513Y73152D03*
D13*
X295656Y73152D03*
X297688Y73152D03*
X299466Y73152D03*
D22*
X302133Y73152D03*
X263779Y73406D03*
D12*
X267589Y73406D03*
D21*
X270637Y73406D03*
D12*
X277495Y73406D03*
X287655Y73406D03*
X294259Y73406D03*
D13*
X295910Y73406D03*
X297942Y73406D03*
D10*
X299593Y73406D03*
D12*
X302387Y73406D03*
D15*
X263906Y73660D03*
D14*
X267081Y73660D03*
D23*
X270637Y73660D03*
D12*
X277241Y73660D03*
X287909Y73660D03*
D13*
X293878Y73660D03*
D10*
X296037Y73660D03*
D13*
X298196Y73660D03*
D10*
X299593Y73660D03*
D13*
X302006Y73660D03*
D14*
X264033Y73914D03*
D22*
X266573Y73914D03*
D19*
X270637Y73914D03*
D12*
X276987Y73914D03*
X288163Y73914D03*
X293751Y73914D03*
D13*
X296418Y73914D03*
X298196Y73914D03*
D10*
X299593Y73914D03*
D13*
X301752Y73914D03*
D26*
X265430Y74168D03*
D23*
X270129Y74168D03*
D13*
X272288Y74168D03*
X276606Y74168D03*
X288290Y74168D03*
D14*
X293751Y74168D03*
X296291Y74168D03*
D13*
X298450Y74168D03*
D10*
X299593Y74168D03*
D13*
X301498Y74168D03*
D25*
X265430Y74422D03*
D18*
X269748Y74422D03*
D12*
X272415Y74422D03*
D13*
X276352Y74422D03*
X288544Y74422D03*
D28*
X295021Y74422D03*
D13*
X298704Y74422D03*
D10*
X299593Y74422D03*
D12*
X301117Y74422D03*
D21*
X265557Y74676D03*
D15*
X268986Y74676D03*
D16*
X272542Y74676D03*
D13*
X276352Y74676D03*
X288798Y74676D03*
D12*
X292735Y74676D03*
D10*
X293751Y74676D03*
D22*
X295275Y74676D03*
D13*
X296926Y74676D03*
D14*
X299339Y74676D03*
D12*
X300863Y74676D03*
D22*
X265557Y74930D03*
X269113Y74930D03*
D14*
X272669Y74930D03*
D13*
X276098Y74930D03*
X289052Y74930D03*
D12*
X292481Y74930D03*
D10*
X293751Y74930D03*
D13*
X295402Y74930D03*
X297180Y74930D03*
D17*
X299974Y74930D03*
D15*
X265684Y75184D03*
D21*
X269113Y75184D03*
D22*
X272923Y75184D03*
D13*
X275844Y75184D03*
D10*
X289179Y75184D03*
D12*
X292227Y75184D03*
D10*
X293751Y75184D03*
D13*
X295148Y75184D03*
X297434Y75184D03*
D22*
X299847Y75184D03*
D16*
X265684Y75438D03*
D23*
X269113Y75438D03*
D17*
X273050Y75438D03*
D10*
X275717Y75438D03*
D13*
X289306Y75438D03*
X291846Y75438D03*
D10*
X293751Y75438D03*
D13*
X294894Y75438D03*
X297688Y75438D03*
D16*
X299720Y75438D03*
D13*
X265684Y75692D03*
D19*
X269113Y75692D03*
D21*
X273177Y75692D03*
D13*
X275590Y75692D03*
D10*
X289433Y75692D03*
D13*
X291592Y75692D03*
D10*
X293751Y75692D03*
D13*
X294640Y75692D03*
X297942Y75692D03*
D12*
X299847Y75692D03*
D13*
X265430Y75946D03*
D20*
X269113Y75946D03*
D18*
X273304Y75946D03*
D10*
X275463Y75946D03*
X289433Y75946D03*
D13*
X291338Y75946D03*
D14*
X294005Y75946D03*
D13*
X298196Y75946D03*
X299974Y75946D03*
X265176Y76200D03*
D29*
X269240Y76200D03*
D19*
X273939Y76200D03*
D13*
X289560Y76200D03*
X291084Y76200D03*
D16*
X293878Y76200D03*
D13*
X298450Y76200D03*
D10*
X300355Y76200D03*
X265049Y76454D03*
D30*
X269240Y76454D03*
D25*
X273812Y76454D03*
D19*
X282575Y76454D03*
D10*
X289687Y76454D03*
D12*
X290703Y76454D03*
D16*
X293624Y76454D03*
D10*
X298577Y76454D03*
X300609Y76454D03*
X264795Y76708D03*
D31*
X269367Y76708D03*
D23*
X273939Y76708D03*
D32*
X282702Y76708D03*
D14*
X290195Y76708D03*
D13*
X293370Y76708D03*
D12*
X298577Y76708D03*
D13*
X300736Y76708D03*
D10*
X264541Y76962D03*
D33*
X270891Y76962D03*
D25*
X279908Y76962D03*
D13*
X282448Y76962D03*
D23*
X285369Y76962D03*
D16*
X290068Y76962D03*
D13*
X293116Y76962D03*
D15*
X298704Y76962D03*
D12*
X300863Y76962D03*
D13*
X264668Y77216D03*
X266446Y77216D03*
D34*
X271145Y77216D03*
D22*
X278511Y77216D03*
D10*
X282575Y77216D03*
D22*
X286639Y77216D03*
D10*
X289941Y77216D03*
D13*
X292862Y77216D03*
D12*
X298069Y77216D03*
X299339Y77216D03*
X300863Y77216D03*
D13*
X264922Y77470D03*
X266192Y77470D03*
D35*
X271272Y77470D03*
D22*
X277749Y77470D03*
D10*
X282575Y77470D03*
D17*
X287274Y77470D03*
D10*
X289941Y77470D03*
D12*
X292481Y77470D03*
D13*
X297688Y77470D03*
D22*
X300101Y77470D03*
D14*
X265557Y77724D03*
D31*
X270383Y77724D03*
D16*
X274574Y77724D03*
D14*
X276987Y77724D03*
D10*
X278511Y77724D03*
X282575Y77724D03*
D13*
X286512Y77724D03*
D14*
X288163Y77724D03*
D23*
X291211Y77724D03*
D13*
X297434Y77724D03*
D16*
X299974Y77724D03*
D12*
X265557Y77978D03*
D21*
X269367Y77978D03*
D22*
X272669Y77978D03*
D13*
X274828Y77978D03*
D16*
X276352Y77978D03*
D10*
X278511Y77978D03*
X282575Y77978D03*
D13*
X286512Y77978D03*
D16*
X288798Y77978D03*
D18*
X291084Y77978D03*
D13*
X297180Y77978D03*
X299974Y77978D03*
D11*
X265684Y78232D03*
D17*
X269494Y78232D03*
X272796Y78232D03*
D22*
X275463Y78232D03*
D10*
X278511Y78232D03*
X282575Y78232D03*
D13*
X286512Y78232D03*
D15*
X289560Y78232D03*
D12*
X291719Y78232D03*
D13*
X296926Y78232D03*
D11*
X299974Y78232D03*
D22*
X269621Y78486D03*
D21*
X272923Y78486D03*
D14*
X275209Y78486D03*
D10*
X278511Y78486D03*
X282575Y78486D03*
D13*
X286512Y78486D03*
D16*
X289814Y78486D03*
D12*
X291465Y78486D03*
X296545Y78486D03*
D15*
X269748Y78740D03*
D26*
X273558Y78740D03*
D10*
X278511Y78740D03*
X282575Y78740D03*
D13*
X286512Y78740D03*
D12*
X289941Y78740D03*
D13*
X291084Y78740D03*
D12*
X296291Y78740D03*
D14*
X269875Y78994D03*
D19*
X273431Y78994D03*
D10*
X278511Y78994D03*
X282575Y78994D03*
D13*
X286512Y78994D03*
D16*
X290576Y78994D03*
D12*
X296037Y78994D03*
D36*
X265430Y79248D03*
D25*
X273304Y79248D03*
D10*
X278511Y79248D03*
D28*
X282575Y79248D03*
D13*
X286512Y79248D03*
D12*
X290449Y79248D03*
D37*
X300863Y79248D03*
D36*
X265430Y79502D03*
D25*
X273304Y79502D03*
D38*
X282575Y79502D03*
D13*
X290322Y79502D03*
D39*
X301371Y79502D03*
D10*
X260477Y79756D03*
D18*
X263652Y79756D03*
D25*
X266954Y79756D03*
D14*
X269875Y79756D03*
D25*
X273304Y79756D03*
D23*
X279273Y79756D03*
D10*
X282575Y79756D03*
D18*
X285750Y79756D03*
D10*
X290195Y79756D03*
D40*
X301625Y79756D03*
D10*
X260477Y80010D03*
X262509Y80010D03*
X270383Y80010D03*
D25*
X273304Y80010D03*
D22*
X278003Y80010D03*
D10*
X282575Y80010D03*
D22*
X286893Y80010D03*
D10*
X290195Y80010D03*
D13*
X294894Y80010D03*
D14*
X308229Y80010D03*
D10*
X260477Y80264D03*
X262509Y80264D03*
X265049Y80264D03*
X268859Y80264D03*
X270383Y80264D03*
D25*
X273304Y80264D03*
D21*
X277495Y80264D03*
D10*
X282575Y80264D03*
D17*
X287274Y80264D03*
D10*
X290195Y80264D03*
D12*
X294513Y80264D03*
X308737Y80264D03*
D10*
X260477Y80518D03*
X262509Y80518D03*
D12*
X265049Y80518D03*
X268859Y80518D03*
D10*
X270383Y80518D03*
D25*
X273304Y80518D03*
D14*
X276479Y80518D03*
D10*
X278511Y80518D03*
X282575Y80518D03*
D13*
X286512Y80518D03*
D16*
X288290Y80518D03*
D10*
X290195Y80518D03*
D12*
X294259Y80518D03*
X309245Y80518D03*
D10*
X260477Y80772D03*
D12*
X262255Y80772D03*
D14*
X265049Y80772D03*
X268859Y80772D03*
D10*
X270383Y80772D03*
D25*
X273304Y80772D03*
D16*
X275844Y80772D03*
D10*
X278511Y80772D03*
X282575Y80772D03*
D13*
X286512Y80772D03*
D16*
X288798Y80772D03*
D10*
X290195Y80772D03*
D12*
X294005Y80772D03*
X309499Y80772D03*
D10*
X260477Y81026D03*
D12*
X262001Y81026D03*
D13*
X264414Y81026D03*
X265684Y81026D03*
X268224Y81026D03*
X269494Y81026D03*
D10*
X270383Y81026D03*
D24*
X273812Y81026D03*
D10*
X278511Y81026D03*
X282575Y81026D03*
D13*
X286512Y81026D03*
D15*
X289560Y81026D03*
D12*
X293751Y81026D03*
X309753Y81026D03*
D10*
X260477Y81280D03*
D13*
X261620Y81280D03*
X264160Y81280D03*
X265938Y81280D03*
X267970Y81280D03*
D16*
X270002Y81280D03*
D26*
X273558Y81280D03*
D10*
X278511Y81280D03*
X282575Y81280D03*
D13*
X286512Y81280D03*
D16*
X289814Y81280D03*
D41*
X299720Y81280D03*
D13*
X310134Y81280D03*
D10*
X260477Y81534D03*
X261493Y81534D03*
D13*
X263906Y81534D03*
X266192Y81534D03*
X267716Y81534D03*
D12*
X270129Y81534D03*
D25*
X273304Y81534D03*
D10*
X278511Y81534D03*
X282575Y81534D03*
D13*
X286512Y81534D03*
X290068Y81534D03*
D42*
X299847Y81534D03*
D13*
X310388Y81534D03*
D10*
X260477Y81788D03*
X261239Y81788D03*
D13*
X263652Y81788D03*
X266446Y81788D03*
X267462Y81788D03*
X270256Y81788D03*
D10*
X271907Y81788D03*
D21*
X273685Y81788D03*
D10*
X278511Y81788D03*
X282575Y81788D03*
D13*
X286512Y81788D03*
X290068Y81788D03*
X292862Y81788D03*
D16*
X306832Y81788D03*
D13*
X310388Y81788D03*
D10*
X260477Y82042D03*
X261239Y82042D03*
D13*
X263398Y82042D03*
D16*
X266954Y82042D03*
D10*
X270383Y82042D03*
X271907Y82042D03*
D17*
X273812Y82042D03*
D10*
X278511Y82042D03*
D25*
X282448Y82042D03*
D13*
X286512Y82042D03*
X290068Y82042D03*
X292608Y82042D03*
D12*
X307213Y82042D03*
D13*
X310642Y82042D03*
D10*
X260477Y82296D03*
X261239Y82296D03*
D13*
X263398Y82296D03*
D16*
X266954Y82296D03*
D10*
X270383Y82296D03*
X271907Y82296D03*
D22*
X273939Y82296D03*
D10*
X278511Y82296D03*
D27*
X282575Y82296D03*
D13*
X286512Y82296D03*
D10*
X289941Y82296D03*
D12*
X292227Y82296D03*
D13*
X307594Y82296D03*
D10*
X310769Y82296D03*
X260477Y82550D03*
X261239Y82550D03*
D13*
X263652Y82550D03*
D15*
X266954Y82550D03*
D13*
X270256Y82550D03*
D10*
X271907Y82550D03*
D15*
X274066Y82550D03*
D23*
X279781Y82550D03*
D25*
X285242Y82550D03*
D10*
X289941Y82550D03*
D12*
X291973Y82550D03*
D13*
X307848Y82550D03*
X310896Y82550D03*
D10*
X260477Y82804D03*
X261493Y82804D03*
D13*
X263906Y82804D03*
D12*
X266319Y82804D03*
D13*
X267716Y82804D03*
D12*
X270129Y82804D03*
D10*
X271907Y82804D03*
D14*
X274193Y82804D03*
D22*
X278765Y82804D03*
X286131Y82804D03*
D10*
X289941Y82804D03*
D12*
X291719Y82804D03*
D13*
X308102Y82804D03*
D10*
X311023Y82804D03*
X260477Y83058D03*
D13*
X261620Y83058D03*
X264160Y83058D03*
D12*
X266065Y83058D03*
D13*
X267970Y83058D03*
D16*
X270002Y83058D03*
D10*
X271907Y83058D03*
D16*
X274320Y83058D03*
D14*
X278003Y83058D03*
D15*
X287020Y83058D03*
D10*
X289941Y83058D03*
D24*
X293116Y83058D03*
D13*
X308102Y83058D03*
X311150Y83058D03*
D10*
X260477Y83312D03*
D16*
X262128Y83312D03*
D13*
X264414Y83312D03*
D12*
X265811Y83312D03*
D13*
X268224Y83312D03*
X269494Y83312D03*
D10*
X270383Y83312D03*
X271907Y83312D03*
D12*
X274701Y83312D03*
D16*
X277368Y83312D03*
D14*
X287655Y83312D03*
D10*
X289941Y83312D03*
D13*
X291084Y83312D03*
D20*
X293751Y83312D03*
D10*
X308229Y83312D03*
X311277Y83312D03*
X260477Y83566D03*
D12*
X262255Y83566D03*
D15*
X265176Y83566D03*
D14*
X268859Y83566D03*
D10*
X270383Y83566D03*
X271907Y83566D03*
D13*
X274828Y83566D03*
D16*
X276860Y83566D03*
X288290Y83566D03*
D13*
X289814Y83566D03*
X290830Y83566D03*
D10*
X291973Y83566D03*
X293751Y83566D03*
D14*
X295529Y83566D03*
D13*
X308356Y83566D03*
D10*
X311277Y83566D03*
X260477Y83820D03*
X262509Y83820D03*
D16*
X265176Y83820D03*
D12*
X268859Y83820D03*
D10*
X270383Y83820D03*
X271907Y83820D03*
X274955Y83820D03*
D16*
X276352Y83820D03*
D12*
X288671Y83820D03*
D14*
X290195Y83820D03*
D11*
X292100Y83820D03*
X293624Y83820D03*
D22*
X295783Y83820D03*
D10*
X308483Y83820D03*
D13*
X311404Y83820D03*
D10*
X260477Y84074D03*
X262509Y84074D03*
D13*
X265176Y84074D03*
D10*
X268859Y84074D03*
X270383Y84074D03*
X271907Y84074D03*
D15*
X275590Y84074D03*
D22*
X289687Y84074D03*
D11*
X292100Y84074D03*
X293624Y84074D03*
X294894Y84074D03*
D16*
X296418Y84074D03*
D10*
X308483Y84074D03*
D13*
X311404Y84074D03*
D10*
X260477Y84328D03*
X262509Y84328D03*
D11*
X265176Y84328D03*
D10*
X270383Y84328D03*
X271907Y84328D03*
D16*
X275336Y84328D03*
D14*
X289687Y84328D03*
D10*
X292227Y84328D03*
D11*
X293624Y84328D03*
D10*
X294767Y84328D03*
D13*
X296926Y84328D03*
D10*
X308483Y84328D03*
D13*
X311404Y84328D03*
D10*
X260477Y84582D03*
X262509Y84582D03*
X270383Y84582D03*
D13*
X272034Y84582D03*
D12*
X274955Y84582D03*
D16*
X282448Y84582D03*
D12*
X289941Y84582D03*
D13*
X292100Y84582D03*
D11*
X293624Y84582D03*
D10*
X294767Y84582D03*
X297053Y84582D03*
D13*
X308610Y84582D03*
X311150Y84582D03*
D36*
X265430Y84836D03*
D19*
X273431Y84836D03*
D22*
X282321Y84836D03*
D18*
X291084Y84836D03*
D10*
X293497Y84836D03*
X294767Y84836D03*
D43*
X303911Y84836D03*
D36*
X265430Y85090D03*
D25*
X273304Y85090D03*
D21*
X282321Y85090D03*
D17*
X291338Y85090D03*
D10*
X293497Y85090D03*
X294767Y85090D03*
D44*
X303784Y85090D03*
D10*
X270383Y85344D03*
X271907Y85344D03*
D13*
X274066Y85344D03*
D18*
X282448Y85344D03*
D13*
X290830Y85344D03*
D10*
X292227Y85344D03*
X293497Y85344D03*
X294767Y85344D03*
X296799Y85344D03*
X270383Y85598D03*
X271907Y85598D03*
D13*
X273812Y85598D03*
D23*
X282321Y85598D03*
D12*
X291211Y85598D03*
D10*
X292227Y85598D03*
X293497Y85598D03*
D13*
X294640Y85598D03*
X296672Y85598D03*
D10*
X270383Y85852D03*
X271907Y85852D03*
D13*
X273558Y85852D03*
D23*
X282321Y85852D03*
D14*
X291719Y85852D03*
D10*
X293497Y85852D03*
X294513Y85852D03*
D13*
X296418Y85852D03*
D10*
X270383Y86106D03*
X271907Y86106D03*
D13*
X273304Y86106D03*
D23*
X282321Y86106D03*
D16*
X291846Y86106D03*
D10*
X293497Y86106D03*
X294513Y86106D03*
D13*
X296418Y86106D03*
D10*
X270383Y86360D03*
X271907Y86360D03*
D13*
X273050Y86360D03*
D23*
X282321Y86360D03*
D12*
X291973Y86360D03*
D10*
X293497Y86360D03*
X294513Y86360D03*
D13*
X296164Y86360D03*
D22*
X271145Y86614D03*
D13*
X272796Y86614D03*
D21*
X282321Y86614D03*
D13*
X292100Y86614D03*
D10*
X293497Y86614D03*
D11*
X294386Y86614D03*
D10*
X296037Y86614D03*
D14*
X271145Y86868D03*
D13*
X272542Y86868D03*
D21*
X282321Y86868D03*
D13*
X292354Y86868D03*
D10*
X293497Y86868D03*
X294259Y86868D03*
D13*
X295910Y86868D03*
D10*
X272415Y87122D03*
D22*
X282321Y87122D03*
D11*
X288544Y87122D03*
D16*
X292862Y87122D03*
D10*
X294259Y87122D03*
X295783Y87122D03*
D13*
X272288Y87376D03*
D12*
X282321Y87376D03*
D11*
X288544Y87376D03*
D12*
X292989Y87376D03*
D13*
X294386Y87376D03*
X295656Y87376D03*
X272034Y87630D03*
D11*
X288544Y87630D03*
D23*
X294259Y87630D03*
D13*
X271780Y87884D03*
D10*
X288417Y87884D03*
D16*
X293370Y87884D03*
D12*
X295275Y87884D03*
D10*
X271653Y88138D03*
D13*
X288544Y88138D03*
X293370Y88138D03*
X295402Y88138D03*
X271526Y88392D03*
X288544Y88392D03*
D10*
X293243Y88392D03*
X295529Y88392D03*
X271399Y88646D03*
D18*
X276860Y88646D03*
D13*
X288544Y88646D03*
D10*
X293243Y88646D03*
D13*
X295656Y88646D03*
X271272Y88900D03*
D20*
X276987Y88900D03*
D13*
X288544Y88900D03*
D10*
X293243Y88900D03*
D13*
X295656Y88900D03*
X271018Y89154D03*
D29*
X276860Y89154D03*
D13*
X288544Y89154D03*
D10*
X293243Y89154D03*
X295529Y89154D03*
X270891Y89408D03*
D31*
X276987Y89408D03*
D13*
X288544Y89408D03*
X293370Y89408D03*
X295402Y89408D03*
X270764Y89662D03*
D27*
X276987Y89662D03*
D13*
X288544Y89662D03*
X293624Y89662D03*
X295148Y89662D03*
D10*
X270637Y89916D03*
D45*
X276987Y89916D03*
D12*
X288671Y89916D03*
D22*
X294513Y89916D03*
D10*
X270637Y90170D03*
D32*
X276860Y90170D03*
D19*
X288671Y90170D03*
D16*
X294386Y90170D03*
D13*
X270510Y90424D03*
D46*
X276860Y90424D03*
D47*
X288671Y90424D03*
D10*
X294513Y90424D03*
X270383Y90678D03*
D48*
X276987Y90678D03*
D27*
X288671Y90678D03*
D10*
X294513Y90678D03*
X270383Y90932D03*
D35*
X276860Y90932D03*
D32*
X288544Y90932D03*
D13*
X294640Y90932D03*
X270256Y91186D03*
D34*
X276987Y91186D03*
D15*
X285750Y91186D03*
D16*
X288544Y91186D03*
D15*
X291592Y91186D03*
D10*
X294767Y91186D03*
X270129Y91440D03*
D49*
X276860Y91440D03*
D13*
X284988Y91440D03*
D16*
X288544Y91440D03*
D13*
X292354Y91440D03*
D10*
X294767Y91440D03*
X270129Y91694D03*
D49*
X276860Y91694D03*
D16*
X288544Y91694D03*
D13*
X294894Y91694D03*
X270002Y91948D03*
D38*
X276987Y91948D03*
D16*
X288544Y91948D03*
D10*
X295021Y91948D03*
X269875Y92202D03*
D38*
X276987Y92202D03*
D16*
X288544Y92202D03*
D10*
X295021Y92202D03*
X269875Y92456D03*
D38*
X276987Y92456D03*
D16*
X288544Y92456D03*
D10*
X295021Y92456D03*
D50*
X282575Y92710D03*
X282575Y92964D03*
D51*
X282448Y93218D03*
X282448Y93472D03*
X282448Y93726D03*
X282448Y93980D03*
D52*
X282575Y94234D03*
D53*
X282702Y94488D03*
D54*
X282829Y94742D03*
D55*
X282956Y94996D03*
D56*
X282829Y95250D03*
D57*
X282829Y95504D03*
D58*
X282829Y95758D03*
D12*
X268605Y96012D03*
D57*
X283591Y96012D03*
D59*
X281686Y96266D03*
D12*
X297561Y96266D03*
D56*
X281559Y96520D03*
D12*
X297815Y96520D03*
D16*
X267970Y96774D03*
D51*
X282448Y96774D03*
D12*
X298069Y96774D03*
D14*
X267589Y97028D03*
D51*
X282448Y97028D03*
D16*
X298196Y97028D03*
D12*
X267081Y97282D03*
D10*
X268097Y97282D03*
D51*
X282702Y97282D03*
D14*
X298323Y97282D03*
D12*
X266827Y97536D03*
D10*
X268097Y97536D03*
D53*
X282702Y97536D03*
D15*
X298450Y97536D03*
D12*
X266573Y97790D03*
D10*
X268097Y97790D03*
D55*
X282702Y97790D03*
D17*
X298704Y97790D03*
D13*
X266192Y98044D03*
D10*
X268097Y98044D03*
D59*
X282702Y98044D03*
D21*
X298831Y98044D03*
D13*
X265938Y98298D03*
X267970Y98298D03*
X268986Y98298D03*
D55*
X283210Y98298D03*
D21*
X299085Y98298D03*
D13*
X265684Y98552D03*
D14*
X268351Y98552D03*
D55*
X283464Y98552D03*
D18*
X299212Y98552D03*
D13*
X265430Y98806D03*
D16*
X268224Y98806D03*
D59*
X283718Y98806D03*
D18*
X299466Y98806D03*
D12*
X265049Y99060D03*
D16*
X267970Y99060D03*
D56*
X283845Y99060D03*
D23*
X299593Y99060D03*
D12*
X264795Y99314D03*
D13*
X267716Y99314D03*
D56*
X284099Y99314D03*
D25*
X299974Y99314D03*
D12*
X264541Y99568D03*
D13*
X267462Y99568D03*
D60*
X286004Y99568D03*
D13*
X264160Y99822D03*
X267208Y99822D03*
D61*
X286131Y99822D03*
D13*
X263906Y100076D03*
D12*
X266827Y100076D03*
D61*
X286385Y100076D03*
D13*
X263652Y100330D03*
D16*
X266446Y100330D03*
D62*
X284734Y100330D03*
D23*
X301117Y100330D03*
D26*
X264922Y100584D03*
D58*
X285115Y100584D03*
D17*
X301752Y100584D03*
D20*
X264541Y100838D03*
D63*
X285242Y100838D03*
D13*
X302768Y100838D03*
D16*
X262890Y101092D03*
D12*
X264287Y101092D03*
D13*
X265684Y101092D03*
D64*
X282321Y101092D03*
D31*
X297307Y101092D03*
D12*
X303149Y101092D03*
D14*
X262763Y101346D03*
D13*
X265430Y101346D03*
D64*
X282067Y101346D03*
D31*
X297561Y101346D03*
D16*
X303276Y101346D03*
D13*
X262128Y101600D03*
D10*
X263017Y101600D03*
D13*
X265176Y101600D03*
D12*
X270383Y101600D03*
D65*
X282575Y101600D03*
D31*
X297815Y101600D03*
D14*
X303403Y101600D03*
D13*
X261874Y101854D03*
D10*
X263017Y101854D03*
D13*
X264922Y101854D03*
X270002Y101854D03*
D66*
X282448Y101854D03*
D31*
X298069Y101854D03*
D15*
X303530Y101854D03*
D13*
X261620Y102108D03*
D10*
X263017Y102108D03*
D12*
X264541Y102108D03*
D13*
X269748Y102108D03*
D67*
X282575Y102108D03*
D31*
X298323Y102108D03*
D22*
X303657Y102108D03*
D13*
X261366Y102362D03*
D10*
X263017Y102362D03*
D12*
X264287Y102362D03*
D13*
X269494Y102362D03*
D68*
X282448Y102362D03*
D31*
X298831Y102362D03*
D22*
X303911Y102362D03*
D13*
X261112Y102616D03*
X262890Y102616D03*
D12*
X264033Y102616D03*
D13*
X269240Y102616D03*
D69*
X282448Y102616D03*
D31*
X299085Y102616D03*
D17*
X304038Y102616D03*
D12*
X260731Y102870D03*
D10*
X262763Y102870D03*
D12*
X263779Y102870D03*
X268859Y102870D03*
D70*
X282575Y102870D03*
D31*
X299339Y102870D03*
D18*
X304292Y102870D03*
D12*
X260477Y103124D03*
D16*
X263144Y103124D03*
D12*
X268605Y103124D03*
D71*
X282575Y103124D03*
D31*
X299593Y103124D03*
D18*
X304546Y103124D03*
D12*
X260223Y103378D03*
D16*
X262890Y103378D03*
D12*
X268351Y103378D03*
D72*
X282448Y103378D03*
D31*
X299847Y103378D03*
D23*
X304673Y103378D03*
D13*
X259842Y103632D03*
D12*
X262763Y103632D03*
D13*
X267970Y103632D03*
D73*
X282448Y103632D03*
D31*
X300101Y103632D03*
D23*
X304927Y103632D03*
D13*
X259588Y103886D03*
D12*
X262509Y103886D03*
D13*
X267716Y103886D03*
D74*
X282448Y103886D03*
D31*
X300355Y103886D03*
D25*
X305054Y103886D03*
D13*
X259334Y104140D03*
D12*
X262255Y104140D03*
D13*
X267462Y104140D03*
D75*
X282448Y104140D03*
D76*
X302514Y104140D03*
D13*
X259080Y104394D03*
D12*
X262001Y104394D03*
D13*
X267208Y104394D03*
D77*
X282448Y104394D03*
D76*
X302768Y104394D03*
D13*
X258826Y104648D03*
D16*
X261620Y104648D03*
D12*
X266827Y104648D03*
D78*
X282448Y104648D03*
D31*
X301371Y104648D03*
D23*
X305943Y104648D03*
D13*
X258572Y104902D03*
D14*
X260985Y104902D03*
D12*
X266573Y104902D03*
D79*
X282448Y104902D03*
D31*
X301625Y104902D03*
D21*
X306451Y104902D03*
D19*
X259715Y105156D03*
D12*
X266319Y105156D03*
D80*
X282448Y105156D03*
D31*
X301879Y105156D03*
D16*
X307340Y105156D03*
D19*
X259461Y105410D03*
D12*
X266065Y105410D03*
D81*
X282448Y105410D03*
D31*
X302133Y105410D03*
D10*
X307721Y105410D03*
D16*
X258318Y105664D03*
D13*
X260604Y105664D03*
X265684Y105664D03*
D82*
X282575Y105664D03*
D31*
X302387Y105664D03*
D12*
X307721Y105664D03*
D14*
X258191Y105918D03*
D13*
X260350Y105918D03*
X265430Y105918D03*
D83*
X282448Y105918D03*
D30*
X302768Y105918D03*
D16*
X307594Y105918D03*
D10*
X257683Y106172D03*
D13*
X258826Y106172D03*
D10*
X260223Y106172D03*
D13*
X265176Y106172D03*
D42*
X282575Y106172D03*
D30*
X303022Y106172D03*
D14*
X307721Y106172D03*
D13*
X257556Y106426D03*
D10*
X258953Y106426D03*
D13*
X260096Y106426D03*
X264922Y106426D03*
D41*
X282448Y106426D03*
D47*
X303149Y106426D03*
D15*
X307594Y106426D03*
D10*
X257429Y106680D03*
D13*
X259080Y106680D03*
D10*
X259969Y106680D03*
D12*
X264541Y106680D03*
D84*
X282448Y106680D03*
D29*
X303276Y106680D03*
D17*
X307594Y106680D03*
D10*
X257429Y106934D03*
D16*
X259588Y106934D03*
D12*
X264287Y106934D03*
D85*
X282448Y106934D03*
D29*
X303530Y106934D03*
D17*
X307594Y106934D03*
D13*
X257302Y107188D03*
D12*
X259461Y107188D03*
X264033Y107188D03*
D36*
X282448Y107188D03*
D28*
X303657Y107188D03*
D17*
X307594Y107188D03*
D10*
X257175Y107442D03*
D13*
X259588Y107442D03*
X263652Y107442D03*
D33*
X282575Y107442D03*
D20*
X303911Y107442D03*
D17*
X307594Y107442D03*
D10*
X257175Y107696D03*
D13*
X259588Y107696D03*
X263398Y107696D03*
D48*
X282575Y107696D03*
D26*
X304038Y107696D03*
D21*
X307721Y107696D03*
D10*
X257175Y107950D03*
D13*
X259588Y107950D03*
X263144Y107950D03*
D86*
X282448Y107950D03*
D19*
X304165Y107950D03*
D21*
X307721Y107950D03*
D10*
X257175Y108204D03*
D13*
X259588Y108204D03*
X262890Y108204D03*
D21*
X282575Y108204D03*
D25*
X304292Y108204D03*
D21*
X307721Y108204D03*
D13*
X257048Y108458D03*
D12*
X259461Y108458D03*
X262509Y108458D03*
D23*
X304419Y108458D03*
D21*
X307721Y108458D03*
D13*
X257048Y108712D03*
D16*
X259588Y108712D03*
D12*
X262255Y108712D03*
D21*
X304419Y108712D03*
D17*
X307848Y108712D03*
D13*
X257048Y108966D03*
X259080Y108966D03*
D10*
X259969Y108966D03*
D12*
X262001Y108966D03*
D17*
X304546Y108966D03*
X307848Y108966D03*
D10*
X257175Y109220D03*
X258953Y109220D03*
D13*
X260096Y109220D03*
X261620Y109220D03*
D14*
X304673Y109220D03*
D22*
X307975Y109220D03*
D10*
X257175Y109474D03*
D13*
X258826Y109474D03*
D10*
X260223Y109474D03*
D13*
X261366Y109474D03*
D16*
X304800Y109474D03*
D14*
X307975Y109474D03*
D10*
X257175Y109728D03*
D12*
X258445Y109728D03*
D14*
X260731Y109728D03*
D13*
X304800Y109728D03*
D16*
X308102Y109728D03*
D10*
X257175Y109982D03*
D12*
X258191Y109982D03*
X260731Y109982D03*
D13*
X305054Y109982D03*
D12*
X308229Y109982D03*
D22*
X257937Y110236D03*
D13*
X260604Y110236D03*
D12*
X305435Y110236D03*
D10*
X307467Y110236D03*
D13*
X308356Y110236D03*
D17*
X258318Y110490D03*
D12*
X260223Y110490D03*
X305689Y110490D03*
D15*
X307594Y110490D03*
D13*
X257556Y110744D03*
D15*
X259588Y110744D03*
D23*
X306959Y110744D03*
D13*
X257556Y110998D03*
D16*
X259588Y110998D03*
D21*
X307213Y110998D03*
D10*
X257683Y111252D03*
D13*
X259334Y111252D03*
D22*
X307213Y111252D03*
X258445Y111506D03*
D14*
X307213Y111506D03*
X258445Y111760D03*
D12*
X307213Y111760D03*
D10*
X258445Y112014D03*
D87*
X258459Y57714D02*
X259390Y57714D01*
X259390Y54610D01*
X257528Y54610D01*
X257458Y54612D01*
X257389Y54618D01*
X257320Y54628D01*
X257252Y54641D01*
X257184Y54659D01*
X257118Y54680D01*
X257053Y54705D01*
X256989Y54733D01*
X256927Y54765D01*
X256867Y54800D01*
X256809Y54839D01*
X256754Y54881D01*
X256700Y54926D01*
X256650Y54974D01*
X256602Y55024D01*
X256557Y55078D01*
X256515Y55133D01*
X256476Y55191D01*
X256441Y55251D01*
X256409Y55313D01*
X256381Y55377D01*
X256356Y55442D01*
X256335Y55508D01*
X256317Y55576D01*
X256304Y55644D01*
X256294Y55713D01*
X256288Y55782D01*
X256286Y55852D01*
X256286Y58956D01*
X256288Y59026D01*
X256294Y59095D01*
X256304Y59164D01*
X256317Y59232D01*
X256335Y59300D01*
X256356Y59366D01*
X256381Y59431D01*
X256409Y59495D01*
X256441Y59557D01*
X256476Y59617D01*
X256515Y59675D01*
X256557Y59730D01*
X256602Y59784D01*
X256650Y59834D01*
X256700Y59882D01*
X256754Y59927D01*
X256809Y59969D01*
X256867Y60008D01*
X256927Y60043D01*
X256989Y60075D01*
X257053Y60103D01*
X257118Y60128D01*
X257184Y60149D01*
X257252Y60167D01*
X257320Y60180D01*
X257389Y60190D01*
X257458Y60196D01*
X257528Y60198D01*
X259390Y60198D01*
X262958Y56783D02*
X264355Y56783D01*
X262958Y56784D02*
X262894Y56782D01*
X262829Y56776D01*
X262766Y56767D01*
X262703Y56754D01*
X262641Y56737D01*
X262580Y56716D01*
X262520Y56692D01*
X262462Y56664D01*
X262405Y56633D01*
X262351Y56599D01*
X262298Y56561D01*
X262248Y56520D01*
X262201Y56477D01*
X262156Y56431D01*
X262114Y56382D01*
X262075Y56331D01*
X262039Y56277D01*
X262006Y56222D01*
X261977Y56164D01*
X261951Y56106D01*
X261928Y56045D01*
X261909Y55984D01*
X261894Y55921D01*
X261883Y55857D01*
X261875Y55794D01*
X261871Y55729D01*
X261871Y55665D01*
X261875Y55600D01*
X261883Y55537D01*
X261894Y55473D01*
X261909Y55410D01*
X261928Y55349D01*
X261951Y55288D01*
X261977Y55230D01*
X262006Y55172D01*
X262039Y55117D01*
X262075Y55063D01*
X262114Y55012D01*
X262156Y54963D01*
X262201Y54917D01*
X262248Y54874D01*
X262298Y54833D01*
X262351Y54795D01*
X262405Y54761D01*
X262462Y54730D01*
X262520Y54702D01*
X262580Y54678D01*
X262641Y54657D01*
X262703Y54640D01*
X262766Y54627D01*
X262829Y54618D01*
X262894Y54612D01*
X262958Y54610D01*
X264355Y54610D01*
X264355Y57404D01*
X264354Y57404D02*
X264352Y57462D01*
X264347Y57521D01*
X264338Y57578D01*
X264325Y57636D01*
X264308Y57692D01*
X264289Y57747D01*
X264265Y57800D01*
X264239Y57853D01*
X264209Y57903D01*
X264176Y57951D01*
X264140Y57997D01*
X264102Y58041D01*
X264060Y58083D01*
X264016Y58121D01*
X263970Y58157D01*
X263922Y58190D01*
X263872Y58220D01*
X263819Y58246D01*
X263766Y58270D01*
X263711Y58289D01*
X263655Y58306D01*
X263597Y58319D01*
X263540Y58328D01*
X263481Y58333D01*
X263423Y58335D01*
X262182Y58335D01*
X267053Y58335D02*
X267053Y54610D01*
X267053Y58335D02*
X268916Y58335D01*
X268916Y57714D01*
X270894Y58335D02*
X270894Y54610D01*
X270894Y58335D02*
X272756Y58335D01*
X272756Y57714D01*
X275450Y54610D02*
X277002Y54610D01*
X275450Y54610D02*
X275392Y54612D01*
X275333Y54617D01*
X275276Y54626D01*
X275218Y54639D01*
X275162Y54656D01*
X275107Y54675D01*
X275054Y54699D01*
X275001Y54725D01*
X274951Y54755D01*
X274903Y54788D01*
X274857Y54824D01*
X274813Y54862D01*
X274771Y54904D01*
X274733Y54948D01*
X274697Y54994D01*
X274664Y55042D01*
X274634Y55092D01*
X274608Y55145D01*
X274584Y55198D01*
X274565Y55253D01*
X274548Y55309D01*
X274535Y55367D01*
X274526Y55424D01*
X274521Y55483D01*
X274519Y55541D01*
X274519Y57094D01*
X274518Y57094D02*
X274520Y57164D01*
X274526Y57233D01*
X274536Y57302D01*
X274549Y57370D01*
X274567Y57438D01*
X274588Y57504D01*
X274613Y57569D01*
X274641Y57633D01*
X274673Y57695D01*
X274708Y57755D01*
X274747Y57813D01*
X274789Y57868D01*
X274834Y57922D01*
X274882Y57972D01*
X274932Y58020D01*
X274986Y58065D01*
X275041Y58107D01*
X275099Y58146D01*
X275159Y58181D01*
X275221Y58213D01*
X275285Y58241D01*
X275350Y58266D01*
X275416Y58287D01*
X275484Y58305D01*
X275552Y58318D01*
X275621Y58328D01*
X275690Y58334D01*
X275760Y58336D01*
X275830Y58334D01*
X275899Y58328D01*
X275968Y58318D01*
X276036Y58305D01*
X276104Y58287D01*
X276170Y58266D01*
X276235Y58241D01*
X276299Y58213D01*
X276361Y58181D01*
X276421Y58146D01*
X276479Y58107D01*
X276534Y58065D01*
X276588Y58020D01*
X276638Y57972D01*
X276686Y57922D01*
X276731Y57868D01*
X276773Y57813D01*
X276812Y57755D01*
X276847Y57695D01*
X276879Y57633D01*
X276907Y57569D01*
X276932Y57504D01*
X276953Y57438D01*
X276971Y57370D01*
X276984Y57302D01*
X276994Y57233D01*
X277000Y57164D01*
X277002Y57094D01*
X277002Y56473D01*
X274519Y56473D01*
X278807Y58335D02*
X280670Y58335D01*
X279428Y60198D02*
X279428Y55541D01*
X279430Y55483D01*
X279435Y55424D01*
X279444Y55367D01*
X279457Y55309D01*
X279474Y55253D01*
X279493Y55198D01*
X279517Y55145D01*
X279543Y55092D01*
X279573Y55042D01*
X279606Y54994D01*
X279642Y54948D01*
X279680Y54904D01*
X279722Y54862D01*
X279766Y54824D01*
X279812Y54788D01*
X279860Y54755D01*
X279911Y54725D01*
X279963Y54699D01*
X280016Y54675D01*
X280071Y54656D01*
X280127Y54639D01*
X280185Y54626D01*
X280242Y54617D01*
X280301Y54612D01*
X280359Y54610D01*
X280670Y54610D01*
X282282Y58335D02*
X284144Y58335D01*
X282903Y60198D02*
X282903Y55541D01*
X282905Y55483D01*
X282910Y55424D01*
X282919Y55367D01*
X282932Y55309D01*
X282949Y55253D01*
X282968Y55198D01*
X282992Y55145D01*
X283018Y55092D01*
X283048Y55042D01*
X283081Y54994D01*
X283117Y54948D01*
X283155Y54904D01*
X283197Y54862D01*
X283241Y54824D01*
X283287Y54788D01*
X283335Y54755D01*
X283386Y54725D01*
X283438Y54699D01*
X283491Y54675D01*
X283546Y54656D01*
X283602Y54639D01*
X283660Y54626D01*
X283717Y54617D01*
X283776Y54612D01*
X283834Y54610D01*
X284144Y54610D01*
X290246Y54610D02*
X289004Y60198D01*
X291488Y58335D02*
X290246Y54610D01*
X292730Y54610D02*
X291488Y58335D01*
X293971Y60198D02*
X292730Y54610D01*
X296098Y55852D02*
X296098Y57094D01*
X296100Y57164D01*
X296106Y57233D01*
X296116Y57302D01*
X296129Y57370D01*
X296147Y57438D01*
X296168Y57504D01*
X296193Y57569D01*
X296221Y57633D01*
X296253Y57695D01*
X296288Y57755D01*
X296327Y57813D01*
X296369Y57868D01*
X296414Y57922D01*
X296462Y57972D01*
X296512Y58020D01*
X296566Y58065D01*
X296621Y58107D01*
X296679Y58146D01*
X296739Y58181D01*
X296801Y58213D01*
X296865Y58241D01*
X296930Y58266D01*
X296996Y58287D01*
X297064Y58305D01*
X297132Y58318D01*
X297201Y58328D01*
X297270Y58334D01*
X297340Y58336D01*
X297410Y58334D01*
X297479Y58328D01*
X297548Y58318D01*
X297616Y58305D01*
X297684Y58287D01*
X297750Y58266D01*
X297815Y58241D01*
X297879Y58213D01*
X297941Y58181D01*
X298001Y58146D01*
X298059Y58107D01*
X298114Y58065D01*
X298168Y58020D01*
X298218Y57972D01*
X298266Y57922D01*
X298311Y57868D01*
X298353Y57813D01*
X298392Y57755D01*
X298427Y57695D01*
X298459Y57633D01*
X298487Y57569D01*
X298512Y57504D01*
X298533Y57438D01*
X298551Y57370D01*
X298564Y57302D01*
X298574Y57233D01*
X298580Y57164D01*
X298582Y57094D01*
X298582Y55852D01*
X298580Y55782D01*
X298574Y55713D01*
X298564Y55644D01*
X298551Y55576D01*
X298533Y55508D01*
X298512Y55442D01*
X298487Y55377D01*
X298459Y55313D01*
X298427Y55251D01*
X298392Y55191D01*
X298353Y55133D01*
X298311Y55078D01*
X298266Y55024D01*
X298218Y54974D01*
X298168Y54926D01*
X298114Y54881D01*
X298059Y54839D01*
X298001Y54800D01*
X297941Y54765D01*
X297879Y54733D01*
X297815Y54705D01*
X297750Y54680D01*
X297684Y54659D01*
X297616Y54641D01*
X297548Y54628D01*
X297479Y54618D01*
X297410Y54612D01*
X297340Y54610D01*
X297270Y54612D01*
X297201Y54618D01*
X297132Y54628D01*
X297064Y54641D01*
X296996Y54659D01*
X296930Y54680D01*
X296865Y54705D01*
X296801Y54733D01*
X296739Y54765D01*
X296679Y54800D01*
X296621Y54839D01*
X296566Y54881D01*
X296512Y54926D01*
X296462Y54974D01*
X296414Y55024D01*
X296369Y55078D01*
X296327Y55133D01*
X296288Y55191D01*
X296253Y55251D01*
X296221Y55313D01*
X296193Y55377D01*
X296168Y55442D01*
X296147Y55508D01*
X296129Y55576D01*
X296116Y55644D01*
X296106Y55713D01*
X296100Y55782D01*
X296098Y55852D01*
X301036Y54610D02*
X301036Y58335D01*
X302588Y58335D01*
X302646Y58333D01*
X302705Y58328D01*
X302762Y58319D01*
X302820Y58306D01*
X302876Y58289D01*
X302931Y58270D01*
X302984Y58246D01*
X303037Y58220D01*
X303087Y58190D01*
X303135Y58157D01*
X303181Y58121D01*
X303225Y58083D01*
X303267Y58041D01*
X303305Y57997D01*
X303341Y57951D01*
X303374Y57903D01*
X303404Y57853D01*
X303430Y57800D01*
X303454Y57747D01*
X303473Y57692D01*
X303490Y57636D01*
X303503Y57578D01*
X303512Y57521D01*
X303517Y57462D01*
X303519Y57404D01*
X303519Y54610D01*
X306876Y54610D02*
X308428Y54610D01*
X306876Y54610D02*
X306818Y54612D01*
X306759Y54617D01*
X306702Y54626D01*
X306644Y54639D01*
X306588Y54656D01*
X306533Y54675D01*
X306480Y54699D01*
X306427Y54725D01*
X306377Y54755D01*
X306329Y54788D01*
X306283Y54824D01*
X306239Y54862D01*
X306197Y54904D01*
X306159Y54948D01*
X306123Y54994D01*
X306090Y55042D01*
X306060Y55092D01*
X306034Y55145D01*
X306010Y55198D01*
X305991Y55253D01*
X305974Y55309D01*
X305961Y55367D01*
X305952Y55424D01*
X305947Y55483D01*
X305945Y55541D01*
X305945Y57404D01*
X305947Y57462D01*
X305952Y57521D01*
X305961Y57578D01*
X305974Y57636D01*
X305991Y57692D01*
X306010Y57747D01*
X306034Y57800D01*
X306060Y57853D01*
X306090Y57903D01*
X306123Y57951D01*
X306159Y57997D01*
X306197Y58041D01*
X306239Y58083D01*
X306283Y58121D01*
X306329Y58157D01*
X306377Y58190D01*
X306427Y58220D01*
X306480Y58246D01*
X306533Y58270D01*
X306588Y58289D01*
X306644Y58306D01*
X306702Y58319D01*
X306759Y58328D01*
X306818Y58333D01*
X306876Y58335D01*
X308428Y58335D01*
X308428Y53679D01*
X308426Y53618D01*
X308420Y53557D01*
X308410Y53497D01*
X308396Y53438D01*
X308379Y53380D01*
X308357Y53323D01*
X308332Y53267D01*
X308303Y53214D01*
X308271Y53162D01*
X308236Y53112D01*
X308197Y53065D01*
X308155Y53021D01*
X308111Y52979D01*
X308064Y52940D01*
X308014Y52905D01*
X307963Y52873D01*
X307909Y52844D01*
X307853Y52819D01*
X307796Y52797D01*
X307738Y52780D01*
X307679Y52766D01*
X307619Y52756D01*
X307558Y52750D01*
X307497Y52748D01*
X307497Y52747D02*
X306255Y52747D01*
X259391Y46708D02*
X259389Y46638D01*
X259383Y46569D01*
X259373Y46500D01*
X259360Y46432D01*
X259342Y46364D01*
X259321Y46298D01*
X259296Y46233D01*
X259268Y46169D01*
X259236Y46107D01*
X259201Y46047D01*
X259162Y45989D01*
X259120Y45934D01*
X259075Y45880D01*
X259027Y45830D01*
X258977Y45782D01*
X258923Y45737D01*
X258868Y45695D01*
X258810Y45656D01*
X258750Y45621D01*
X258688Y45589D01*
X258624Y45561D01*
X258559Y45536D01*
X258493Y45515D01*
X258425Y45497D01*
X258357Y45484D01*
X258288Y45474D01*
X258219Y45468D01*
X258149Y45466D01*
X258050Y45468D01*
X257952Y45473D01*
X257854Y45483D01*
X257756Y45496D01*
X257659Y45512D01*
X257562Y45532D01*
X257467Y45556D01*
X257372Y45584D01*
X257278Y45615D01*
X257186Y45649D01*
X257095Y45687D01*
X257005Y45728D01*
X256917Y45773D01*
X256831Y45821D01*
X256747Y45872D01*
X256665Y45926D01*
X256584Y45984D01*
X256506Y46044D01*
X256431Y46107D01*
X256357Y46173D01*
X256287Y46242D01*
X256441Y49812D02*
X256443Y49882D01*
X256449Y49951D01*
X256459Y50020D01*
X256472Y50088D01*
X256490Y50156D01*
X256511Y50222D01*
X256536Y50287D01*
X256564Y50351D01*
X256596Y50413D01*
X256631Y50473D01*
X256670Y50531D01*
X256712Y50586D01*
X256757Y50640D01*
X256805Y50690D01*
X256855Y50738D01*
X256909Y50783D01*
X256964Y50825D01*
X257022Y50864D01*
X257082Y50899D01*
X257144Y50931D01*
X257208Y50959D01*
X257273Y50984D01*
X257339Y51005D01*
X257407Y51023D01*
X257475Y51036D01*
X257544Y51046D01*
X257613Y51052D01*
X257683Y51054D01*
X257777Y51052D01*
X257870Y51046D01*
X257963Y51037D01*
X258056Y51024D01*
X258148Y51007D01*
X258239Y50987D01*
X258330Y50962D01*
X258419Y50935D01*
X258507Y50903D01*
X258594Y50868D01*
X258680Y50830D01*
X258763Y50788D01*
X258845Y50743D01*
X258926Y50695D01*
X259004Y50643D01*
X259080Y50588D01*
X257062Y48726D02*
X257003Y48762D01*
X256947Y48802D01*
X256893Y48845D01*
X256841Y48890D01*
X256792Y48939D01*
X256746Y48990D01*
X256703Y49043D01*
X256662Y49099D01*
X256625Y49157D01*
X256590Y49217D01*
X256560Y49278D01*
X256532Y49341D01*
X256508Y49406D01*
X256488Y49472D01*
X256471Y49539D01*
X256458Y49606D01*
X256449Y49674D01*
X256443Y49743D01*
X256441Y49812D01*
X258769Y47794D02*
X258828Y47758D01*
X258884Y47718D01*
X258938Y47675D01*
X258990Y47630D01*
X259039Y47581D01*
X259085Y47530D01*
X259128Y47477D01*
X259169Y47421D01*
X259206Y47363D01*
X259241Y47303D01*
X259271Y47242D01*
X259299Y47179D01*
X259323Y47114D01*
X259343Y47048D01*
X259360Y46981D01*
X259373Y46914D01*
X259382Y46846D01*
X259388Y46777D01*
X259390Y46708D01*
X258770Y47794D02*
X257062Y48726D01*
X261496Y49191D02*
X261496Y45466D01*
X261341Y50744D02*
X261341Y51054D01*
X261651Y51054D01*
X261651Y50744D01*
X261341Y50744D01*
X263912Y51054D02*
X263912Y45466D01*
X263912Y49191D02*
X265464Y49191D01*
X265522Y49189D01*
X265581Y49184D01*
X265638Y49175D01*
X265696Y49162D01*
X265752Y49145D01*
X265807Y49126D01*
X265860Y49102D01*
X265913Y49076D01*
X265963Y49046D01*
X266011Y49013D01*
X266057Y48977D01*
X266101Y48939D01*
X266143Y48897D01*
X266181Y48853D01*
X266217Y48807D01*
X266250Y48759D01*
X266280Y48709D01*
X266306Y48656D01*
X266330Y48603D01*
X266349Y48548D01*
X266366Y48492D01*
X266379Y48434D01*
X266388Y48377D01*
X266393Y48318D01*
X266395Y48260D01*
X266395Y45466D01*
X268666Y43603D02*
X269287Y43603D01*
X271150Y49191D01*
X268666Y49191D02*
X269908Y45466D01*
X273421Y46397D02*
X273421Y49191D01*
X273422Y46397D02*
X273424Y46339D01*
X273429Y46280D01*
X273438Y46223D01*
X273451Y46165D01*
X273468Y46109D01*
X273487Y46054D01*
X273511Y46001D01*
X273537Y45948D01*
X273567Y45898D01*
X273600Y45850D01*
X273636Y45804D01*
X273674Y45760D01*
X273716Y45718D01*
X273760Y45680D01*
X273806Y45644D01*
X273854Y45611D01*
X273904Y45581D01*
X273957Y45555D01*
X274010Y45531D01*
X274065Y45512D01*
X274121Y45495D01*
X274179Y45482D01*
X274236Y45473D01*
X274295Y45468D01*
X274353Y45466D01*
X275905Y45466D01*
X275905Y49191D01*
X278542Y49191D02*
X278542Y45466D01*
X278542Y49191D02*
X280094Y49191D01*
X280152Y49189D01*
X280211Y49184D01*
X280268Y49175D01*
X280326Y49162D01*
X280382Y49145D01*
X280437Y49126D01*
X280490Y49102D01*
X280543Y49076D01*
X280593Y49046D01*
X280641Y49013D01*
X280687Y48977D01*
X280731Y48939D01*
X280773Y48897D01*
X280811Y48853D01*
X280847Y48807D01*
X280880Y48759D01*
X280910Y48709D01*
X280936Y48656D01*
X280960Y48603D01*
X280979Y48548D01*
X280996Y48492D01*
X281009Y48434D01*
X281018Y48377D01*
X281023Y48318D01*
X281025Y48260D01*
X281025Y45466D01*
X284382Y45466D02*
X285934Y45466D01*
X284382Y45466D02*
X284324Y45468D01*
X284265Y45473D01*
X284208Y45482D01*
X284150Y45495D01*
X284094Y45512D01*
X284039Y45531D01*
X283986Y45555D01*
X283933Y45581D01*
X283883Y45611D01*
X283835Y45644D01*
X283789Y45680D01*
X283745Y45718D01*
X283703Y45760D01*
X283665Y45804D01*
X283629Y45850D01*
X283596Y45898D01*
X283566Y45948D01*
X283540Y46001D01*
X283516Y46054D01*
X283497Y46109D01*
X283480Y46165D01*
X283467Y46223D01*
X283458Y46280D01*
X283453Y46339D01*
X283451Y46397D01*
X283451Y48260D01*
X283453Y48318D01*
X283458Y48377D01*
X283467Y48434D01*
X283480Y48492D01*
X283497Y48548D01*
X283516Y48603D01*
X283540Y48656D01*
X283566Y48709D01*
X283596Y48759D01*
X283629Y48807D01*
X283665Y48853D01*
X283703Y48897D01*
X283745Y48939D01*
X283789Y48977D01*
X283835Y49013D01*
X283883Y49046D01*
X283933Y49076D01*
X283986Y49102D01*
X284039Y49126D01*
X284094Y49145D01*
X284150Y49162D01*
X284208Y49175D01*
X284265Y49184D01*
X284324Y49189D01*
X284382Y49191D01*
X285934Y49191D01*
X285934Y44535D01*
X285932Y44474D01*
X285926Y44413D01*
X285916Y44353D01*
X285902Y44294D01*
X285885Y44236D01*
X285863Y44179D01*
X285838Y44123D01*
X285809Y44070D01*
X285777Y44018D01*
X285742Y43968D01*
X285703Y43921D01*
X285661Y43877D01*
X285617Y43835D01*
X285570Y43796D01*
X285520Y43761D01*
X285469Y43729D01*
X285415Y43700D01*
X285359Y43675D01*
X285302Y43653D01*
X285244Y43636D01*
X285185Y43622D01*
X285125Y43612D01*
X285064Y43606D01*
X285003Y43604D01*
X285003Y43603D02*
X283761Y43603D01*
X292441Y45466D02*
X291199Y51054D01*
X293682Y49191D02*
X292441Y45466D01*
X294924Y45466D02*
X293682Y49191D01*
X296166Y51054D02*
X294924Y45466D01*
X298293Y46708D02*
X298293Y47950D01*
X298292Y47950D02*
X298294Y48020D01*
X298300Y48089D01*
X298310Y48158D01*
X298323Y48226D01*
X298341Y48294D01*
X298362Y48360D01*
X298387Y48425D01*
X298415Y48489D01*
X298447Y48551D01*
X298482Y48611D01*
X298521Y48669D01*
X298563Y48724D01*
X298608Y48778D01*
X298656Y48828D01*
X298706Y48876D01*
X298760Y48921D01*
X298815Y48963D01*
X298873Y49002D01*
X298933Y49037D01*
X298995Y49069D01*
X299059Y49097D01*
X299124Y49122D01*
X299190Y49143D01*
X299258Y49161D01*
X299326Y49174D01*
X299395Y49184D01*
X299464Y49190D01*
X299534Y49192D01*
X299604Y49190D01*
X299673Y49184D01*
X299742Y49174D01*
X299810Y49161D01*
X299878Y49143D01*
X299944Y49122D01*
X300009Y49097D01*
X300073Y49069D01*
X300135Y49037D01*
X300195Y49002D01*
X300253Y48963D01*
X300308Y48921D01*
X300362Y48876D01*
X300412Y48828D01*
X300460Y48778D01*
X300505Y48724D01*
X300547Y48669D01*
X300586Y48611D01*
X300621Y48551D01*
X300653Y48489D01*
X300681Y48425D01*
X300706Y48360D01*
X300727Y48294D01*
X300745Y48226D01*
X300758Y48158D01*
X300768Y48089D01*
X300774Y48020D01*
X300776Y47950D01*
X300776Y46708D01*
X300774Y46638D01*
X300768Y46569D01*
X300758Y46500D01*
X300745Y46432D01*
X300727Y46364D01*
X300706Y46298D01*
X300681Y46233D01*
X300653Y46169D01*
X300621Y46107D01*
X300586Y46047D01*
X300547Y45989D01*
X300505Y45934D01*
X300460Y45880D01*
X300412Y45830D01*
X300362Y45782D01*
X300308Y45737D01*
X300253Y45695D01*
X300195Y45656D01*
X300135Y45621D01*
X300073Y45589D01*
X300009Y45561D01*
X299944Y45536D01*
X299878Y45515D01*
X299810Y45497D01*
X299742Y45484D01*
X299673Y45474D01*
X299604Y45468D01*
X299534Y45466D01*
X299464Y45468D01*
X299395Y45474D01*
X299326Y45484D01*
X299258Y45497D01*
X299190Y45515D01*
X299124Y45536D01*
X299059Y45561D01*
X298995Y45589D01*
X298933Y45621D01*
X298873Y45656D01*
X298815Y45695D01*
X298760Y45737D01*
X298706Y45782D01*
X298656Y45830D01*
X298608Y45880D01*
X298563Y45934D01*
X298521Y45989D01*
X298482Y46047D01*
X298447Y46107D01*
X298415Y46169D01*
X298387Y46233D01*
X298362Y46298D01*
X298341Y46364D01*
X298323Y46432D01*
X298310Y46500D01*
X298300Y46569D01*
X298294Y46638D01*
X298292Y46708D01*
X303048Y46708D02*
X303048Y47950D01*
X303047Y47950D02*
X303049Y48020D01*
X303055Y48089D01*
X303065Y48158D01*
X303078Y48226D01*
X303096Y48294D01*
X303117Y48360D01*
X303142Y48425D01*
X303170Y48489D01*
X303202Y48551D01*
X303237Y48611D01*
X303276Y48669D01*
X303318Y48724D01*
X303363Y48778D01*
X303411Y48828D01*
X303461Y48876D01*
X303515Y48921D01*
X303570Y48963D01*
X303628Y49002D01*
X303688Y49037D01*
X303750Y49069D01*
X303814Y49097D01*
X303879Y49122D01*
X303945Y49143D01*
X304013Y49161D01*
X304081Y49174D01*
X304150Y49184D01*
X304219Y49190D01*
X304289Y49192D01*
X304359Y49190D01*
X304428Y49184D01*
X304497Y49174D01*
X304565Y49161D01*
X304633Y49143D01*
X304699Y49122D01*
X304764Y49097D01*
X304828Y49069D01*
X304890Y49037D01*
X304950Y49002D01*
X305008Y48963D01*
X305063Y48921D01*
X305117Y48876D01*
X305167Y48828D01*
X305215Y48778D01*
X305260Y48724D01*
X305302Y48669D01*
X305341Y48611D01*
X305376Y48551D01*
X305408Y48489D01*
X305436Y48425D01*
X305461Y48360D01*
X305482Y48294D01*
X305500Y48226D01*
X305513Y48158D01*
X305523Y48089D01*
X305529Y48020D01*
X305531Y47950D01*
X305531Y46708D01*
X305529Y46638D01*
X305523Y46569D01*
X305513Y46500D01*
X305500Y46432D01*
X305482Y46364D01*
X305461Y46298D01*
X305436Y46233D01*
X305408Y46169D01*
X305376Y46107D01*
X305341Y46047D01*
X305302Y45989D01*
X305260Y45934D01*
X305215Y45880D01*
X305167Y45830D01*
X305117Y45782D01*
X305063Y45737D01*
X305008Y45695D01*
X304950Y45656D01*
X304890Y45621D01*
X304828Y45589D01*
X304764Y45561D01*
X304699Y45536D01*
X304633Y45515D01*
X304565Y45497D01*
X304497Y45484D01*
X304428Y45474D01*
X304359Y45468D01*
X304289Y45466D01*
X304219Y45468D01*
X304150Y45474D01*
X304081Y45484D01*
X304013Y45497D01*
X303945Y45515D01*
X303879Y45536D01*
X303814Y45561D01*
X303750Y45589D01*
X303688Y45621D01*
X303628Y45656D01*
X303570Y45695D01*
X303515Y45737D01*
X303461Y45782D01*
X303411Y45830D01*
X303363Y45880D01*
X303318Y45934D01*
X303276Y45989D01*
X303237Y46047D01*
X303202Y46107D01*
X303170Y46169D01*
X303142Y46233D01*
X303117Y46298D01*
X303096Y46364D01*
X303078Y46432D01*
X303065Y46500D01*
X303055Y46569D01*
X303049Y46638D01*
X303047Y46708D01*
X258149Y41910D02*
X256286Y36322D01*
X260011Y36322D02*
X258149Y41910D01*
X259546Y37719D02*
X256752Y37719D01*
X262210Y37253D02*
X262210Y40047D01*
X262211Y37253D02*
X262213Y37195D01*
X262218Y37136D01*
X262227Y37079D01*
X262240Y37021D01*
X262257Y36965D01*
X262276Y36910D01*
X262300Y36857D01*
X262326Y36804D01*
X262356Y36754D01*
X262389Y36706D01*
X262425Y36660D01*
X262463Y36616D01*
X262505Y36574D01*
X262549Y36536D01*
X262595Y36500D01*
X262643Y36467D01*
X262693Y36437D01*
X262746Y36411D01*
X262799Y36387D01*
X262854Y36368D01*
X262910Y36351D01*
X262968Y36338D01*
X263025Y36329D01*
X263084Y36324D01*
X263142Y36322D01*
X264694Y36322D01*
X264694Y40047D01*
X267614Y38495D02*
X269166Y37874D01*
X267614Y38495D02*
X267563Y38517D01*
X267514Y38543D01*
X267466Y38572D01*
X267421Y38605D01*
X267378Y38641D01*
X267337Y38679D01*
X267300Y38721D01*
X267265Y38764D01*
X267233Y38810D01*
X267205Y38859D01*
X267180Y38909D01*
X267159Y38960D01*
X267141Y39013D01*
X267127Y39067D01*
X267117Y39122D01*
X267111Y39178D01*
X267108Y39233D01*
X267109Y39289D01*
X267115Y39345D01*
X267124Y39400D01*
X267136Y39454D01*
X267153Y39508D01*
X267173Y39560D01*
X267197Y39610D01*
X267224Y39659D01*
X267255Y39706D01*
X267289Y39750D01*
X267325Y39792D01*
X267365Y39832D01*
X267407Y39868D01*
X267452Y39902D01*
X267499Y39932D01*
X267547Y39959D01*
X267598Y39983D01*
X267650Y40003D01*
X267704Y40019D01*
X267758Y40032D01*
X267813Y40041D01*
X267869Y40046D01*
X267925Y40047D01*
X267924Y40048D02*
X268035Y40044D01*
X268146Y40038D01*
X268256Y40027D01*
X268366Y40013D01*
X268476Y39996D01*
X268585Y39976D01*
X268693Y39952D01*
X268800Y39924D01*
X268907Y39893D01*
X269012Y39859D01*
X269117Y39822D01*
X269220Y39781D01*
X269322Y39737D01*
X269166Y37874D02*
X269217Y37852D01*
X269266Y37826D01*
X269314Y37797D01*
X269359Y37764D01*
X269402Y37728D01*
X269443Y37690D01*
X269480Y37648D01*
X269515Y37605D01*
X269547Y37559D01*
X269575Y37510D01*
X269600Y37460D01*
X269621Y37409D01*
X269639Y37356D01*
X269653Y37302D01*
X269663Y37247D01*
X269669Y37191D01*
X269672Y37136D01*
X269671Y37080D01*
X269665Y37024D01*
X269656Y36969D01*
X269644Y36915D01*
X269627Y36861D01*
X269607Y36809D01*
X269583Y36759D01*
X269556Y36710D01*
X269525Y36663D01*
X269491Y36619D01*
X269455Y36577D01*
X269415Y36537D01*
X269373Y36501D01*
X269328Y36467D01*
X269281Y36437D01*
X269233Y36410D01*
X269182Y36386D01*
X269130Y36366D01*
X269076Y36350D01*
X269022Y36337D01*
X268967Y36328D01*
X268911Y36323D01*
X268855Y36322D01*
X268856Y36322D02*
X268722Y36325D01*
X268588Y36332D01*
X268454Y36343D01*
X268321Y36356D01*
X268188Y36374D01*
X268055Y36394D01*
X267923Y36418D01*
X267792Y36446D01*
X267661Y36476D01*
X267532Y36510D01*
X267403Y36548D01*
X267275Y36588D01*
X267148Y36632D01*
X271437Y40047D02*
X273299Y40047D01*
X272058Y41910D02*
X272058Y37253D01*
X272060Y37195D01*
X272065Y37136D01*
X272074Y37079D01*
X272087Y37021D01*
X272104Y36965D01*
X272123Y36910D01*
X272147Y36857D01*
X272173Y36804D01*
X272203Y36754D01*
X272236Y36706D01*
X272272Y36660D01*
X272310Y36616D01*
X272352Y36574D01*
X272396Y36536D01*
X272442Y36500D01*
X272490Y36467D01*
X272541Y36437D01*
X272593Y36411D01*
X272646Y36387D01*
X272701Y36368D01*
X272757Y36351D01*
X272815Y36338D01*
X272872Y36329D01*
X272931Y36324D01*
X272989Y36322D01*
X273299Y36322D01*
X275339Y36322D02*
X275339Y40047D01*
X275184Y41600D02*
X275184Y41910D01*
X275494Y41910D01*
X275494Y41600D01*
X275184Y41600D01*
X277755Y40047D02*
X277755Y36322D01*
X277755Y40047D02*
X279307Y40047D01*
X279365Y40045D01*
X279424Y40040D01*
X279481Y40031D01*
X279539Y40018D01*
X279595Y40001D01*
X279650Y39982D01*
X279703Y39958D01*
X279756Y39932D01*
X279806Y39902D01*
X279854Y39869D01*
X279900Y39833D01*
X279944Y39795D01*
X279986Y39753D01*
X280024Y39709D01*
X280060Y39663D01*
X280093Y39615D01*
X280123Y39565D01*
X280149Y39512D01*
X280173Y39459D01*
X280192Y39404D01*
X280209Y39348D01*
X280222Y39290D01*
X280231Y39233D01*
X280236Y39174D01*
X280238Y39116D01*
X280239Y39116D02*
X280239Y36322D01*
X287354Y36322D02*
X287424Y36324D01*
X287493Y36330D01*
X287562Y36340D01*
X287630Y36353D01*
X287698Y36371D01*
X287764Y36392D01*
X287829Y36417D01*
X287893Y36445D01*
X287955Y36477D01*
X288015Y36512D01*
X288073Y36551D01*
X288128Y36593D01*
X288182Y36638D01*
X288232Y36686D01*
X288280Y36736D01*
X288325Y36790D01*
X288367Y36845D01*
X288406Y36903D01*
X288441Y36963D01*
X288473Y37025D01*
X288501Y37089D01*
X288526Y37154D01*
X288547Y37220D01*
X288565Y37288D01*
X288578Y37356D01*
X288588Y37425D01*
X288594Y37494D01*
X288596Y37564D01*
X287354Y36322D02*
X287255Y36324D01*
X287157Y36329D01*
X287059Y36339D01*
X286961Y36352D01*
X286864Y36368D01*
X286767Y36388D01*
X286672Y36412D01*
X286577Y36440D01*
X286483Y36471D01*
X286391Y36505D01*
X286300Y36543D01*
X286210Y36584D01*
X286122Y36629D01*
X286036Y36677D01*
X285952Y36728D01*
X285870Y36782D01*
X285789Y36840D01*
X285711Y36900D01*
X285636Y36963D01*
X285562Y37029D01*
X285492Y37098D01*
X285646Y40668D02*
X285648Y40738D01*
X285654Y40807D01*
X285664Y40876D01*
X285677Y40944D01*
X285695Y41012D01*
X285716Y41078D01*
X285741Y41143D01*
X285769Y41207D01*
X285801Y41269D01*
X285836Y41329D01*
X285875Y41387D01*
X285917Y41442D01*
X285962Y41496D01*
X286010Y41546D01*
X286060Y41594D01*
X286114Y41639D01*
X286169Y41681D01*
X286227Y41720D01*
X286287Y41755D01*
X286349Y41787D01*
X286413Y41815D01*
X286478Y41840D01*
X286544Y41861D01*
X286612Y41879D01*
X286680Y41892D01*
X286749Y41902D01*
X286818Y41908D01*
X286888Y41910D01*
X286982Y41908D01*
X287075Y41902D01*
X287168Y41893D01*
X287261Y41880D01*
X287353Y41863D01*
X287444Y41843D01*
X287535Y41818D01*
X287624Y41791D01*
X287712Y41759D01*
X287799Y41724D01*
X287885Y41686D01*
X287968Y41644D01*
X288050Y41599D01*
X288131Y41551D01*
X288209Y41499D01*
X288285Y41444D01*
X286268Y39582D02*
X286209Y39618D01*
X286153Y39658D01*
X286099Y39701D01*
X286047Y39746D01*
X285998Y39795D01*
X285952Y39846D01*
X285909Y39899D01*
X285868Y39955D01*
X285831Y40013D01*
X285796Y40073D01*
X285766Y40134D01*
X285738Y40197D01*
X285714Y40262D01*
X285694Y40328D01*
X285677Y40395D01*
X285664Y40462D01*
X285655Y40530D01*
X285649Y40599D01*
X285647Y40668D01*
X287974Y38650D02*
X288033Y38614D01*
X288089Y38574D01*
X288143Y38531D01*
X288195Y38486D01*
X288244Y38437D01*
X288290Y38386D01*
X288333Y38333D01*
X288374Y38277D01*
X288411Y38219D01*
X288446Y38159D01*
X288476Y38098D01*
X288504Y38035D01*
X288528Y37970D01*
X288548Y37904D01*
X288565Y37837D01*
X288578Y37770D01*
X288587Y37702D01*
X288593Y37633D01*
X288595Y37564D01*
X287975Y38650D02*
X286267Y39582D01*
X291677Y36322D02*
X292919Y36322D01*
X291677Y36322D02*
X291619Y36324D01*
X291560Y36329D01*
X291503Y36338D01*
X291445Y36351D01*
X291389Y36368D01*
X291334Y36387D01*
X291281Y36411D01*
X291228Y36437D01*
X291178Y36467D01*
X291130Y36500D01*
X291084Y36536D01*
X291040Y36574D01*
X290998Y36616D01*
X290960Y36660D01*
X290924Y36706D01*
X290891Y36754D01*
X290861Y36804D01*
X290835Y36857D01*
X290811Y36910D01*
X290792Y36965D01*
X290775Y37021D01*
X290762Y37079D01*
X290753Y37136D01*
X290748Y37195D01*
X290746Y37253D01*
X290746Y39116D01*
X290748Y39174D01*
X290753Y39233D01*
X290762Y39290D01*
X290775Y39348D01*
X290792Y39404D01*
X290811Y39459D01*
X290835Y39512D01*
X290861Y39565D01*
X290891Y39615D01*
X290924Y39663D01*
X290960Y39709D01*
X290998Y39753D01*
X291040Y39795D01*
X291084Y39833D01*
X291130Y39869D01*
X291178Y39902D01*
X291228Y39932D01*
X291281Y39958D01*
X291334Y39982D01*
X291389Y40001D01*
X291445Y40018D01*
X291503Y40031D01*
X291560Y40040D01*
X291619Y40045D01*
X291677Y40047D01*
X292919Y40047D01*
X295128Y41910D02*
X295128Y36322D01*
X295128Y40047D02*
X296681Y40047D01*
X296739Y40045D01*
X296798Y40040D01*
X296855Y40031D01*
X296913Y40018D01*
X296969Y40001D01*
X297024Y39982D01*
X297077Y39958D01*
X297130Y39932D01*
X297180Y39902D01*
X297228Y39869D01*
X297274Y39833D01*
X297318Y39795D01*
X297360Y39753D01*
X297398Y39709D01*
X297434Y39663D01*
X297467Y39615D01*
X297497Y39565D01*
X297523Y39512D01*
X297547Y39459D01*
X297566Y39404D01*
X297583Y39348D01*
X297596Y39290D01*
X297605Y39233D01*
X297610Y39174D01*
X297612Y39116D01*
X297612Y36322D01*
X300249Y37253D02*
X300249Y40047D01*
X300249Y37253D02*
X300251Y37195D01*
X300256Y37136D01*
X300265Y37079D01*
X300278Y37021D01*
X300295Y36965D01*
X300314Y36910D01*
X300338Y36857D01*
X300364Y36804D01*
X300394Y36754D01*
X300427Y36706D01*
X300463Y36660D01*
X300501Y36616D01*
X300543Y36574D01*
X300587Y36536D01*
X300633Y36500D01*
X300681Y36467D01*
X300731Y36437D01*
X300784Y36411D01*
X300837Y36387D01*
X300892Y36368D01*
X300948Y36351D01*
X301006Y36338D01*
X301063Y36329D01*
X301122Y36324D01*
X301180Y36322D01*
X302733Y36322D01*
X302733Y40047D01*
X305256Y41910D02*
X305256Y37253D01*
X305257Y37253D02*
X305259Y37195D01*
X305264Y37136D01*
X305273Y37079D01*
X305286Y37021D01*
X305303Y36965D01*
X305322Y36910D01*
X305346Y36857D01*
X305372Y36804D01*
X305402Y36754D01*
X305435Y36706D01*
X305471Y36660D01*
X305509Y36616D01*
X305551Y36574D01*
X305595Y36536D01*
X305641Y36500D01*
X305689Y36467D01*
X305739Y36437D01*
X305792Y36411D01*
X305845Y36387D01*
X305900Y36368D01*
X305956Y36351D01*
X306014Y36338D01*
X306071Y36329D01*
X306130Y36324D01*
X306188Y36322D01*
X307647Y40047D02*
X309509Y40047D01*
X308267Y41910D02*
X308267Y37253D01*
X308268Y37253D02*
X308270Y37195D01*
X308275Y37136D01*
X308284Y37079D01*
X308297Y37021D01*
X308314Y36965D01*
X308333Y36910D01*
X308357Y36857D01*
X308383Y36804D01*
X308413Y36754D01*
X308446Y36706D01*
X308482Y36660D01*
X308520Y36616D01*
X308562Y36574D01*
X308606Y36536D01*
X308652Y36500D01*
X308700Y36467D01*
X308751Y36437D01*
X308803Y36411D01*
X308856Y36387D01*
X308911Y36368D01*
X308967Y36351D01*
X309025Y36338D01*
X309082Y36329D01*
X309141Y36324D01*
X309199Y36322D01*
X309509Y36322D01*
X311405Y40047D02*
X313888Y40047D01*
X311405Y36322D01*
X313888Y36322D01*
D88*
X230632Y451414D02*
X230632Y454011D01*
X230632Y451414D02*
X230630Y451315D01*
X230624Y451215D01*
X230615Y451116D01*
X230602Y451018D01*
X230585Y450920D01*
X230564Y450822D01*
X230539Y450726D01*
X230511Y450631D01*
X230479Y450537D01*
X230444Y450444D01*
X230405Y450352D01*
X230362Y450262D01*
X230317Y450174D01*
X230267Y450087D01*
X230215Y450003D01*
X230159Y449920D01*
X230101Y449840D01*
X230039Y449762D01*
X229974Y449687D01*
X229906Y449614D01*
X229836Y449544D01*
X229763Y449476D01*
X229688Y449411D01*
X229610Y449349D01*
X229530Y449291D01*
X229447Y449235D01*
X229363Y449183D01*
X229276Y449133D01*
X229188Y449088D01*
X229098Y449045D01*
X229006Y449006D01*
X228913Y448971D01*
X228819Y448939D01*
X228724Y448911D01*
X228628Y448886D01*
X228530Y448865D01*
X228432Y448848D01*
X228334Y448835D01*
X228235Y448826D01*
X228135Y448820D01*
X228036Y448818D01*
X221544Y448818D01*
X221445Y448820D01*
X221345Y448826D01*
X221246Y448835D01*
X221148Y448848D01*
X221050Y448866D01*
X220952Y448886D01*
X220856Y448911D01*
X220760Y448939D01*
X220666Y448971D01*
X220573Y449006D01*
X220482Y449045D01*
X220392Y449088D01*
X220303Y449133D01*
X220217Y449183D01*
X220132Y449235D01*
X220050Y449291D01*
X219970Y449350D01*
X219892Y449411D01*
X219816Y449476D01*
X219743Y449544D01*
X219673Y449614D01*
X219605Y449687D01*
X219540Y449763D01*
X219479Y449841D01*
X219420Y449921D01*
X219364Y450003D01*
X219312Y450088D01*
X219263Y450174D01*
X219217Y450263D01*
X219174Y450353D01*
X219135Y450444D01*
X219100Y450537D01*
X219068Y450631D01*
X219040Y450727D01*
X219015Y450823D01*
X218995Y450921D01*
X218977Y451019D01*
X218964Y451117D01*
X218955Y451216D01*
X218949Y451315D01*
X218947Y451415D01*
X218948Y451414D02*
X218948Y454011D01*
X221544Y458376D02*
X218948Y461622D01*
X230632Y461622D01*
X230632Y464867D02*
X230632Y458376D01*
X221544Y469806D02*
X218948Y473052D01*
X230632Y473052D01*
X230632Y476297D02*
X230632Y469806D01*
X197612Y454011D02*
X197612Y451414D01*
X197610Y451315D01*
X197604Y451215D01*
X197595Y451116D01*
X197582Y451018D01*
X197565Y450920D01*
X197544Y450822D01*
X197519Y450726D01*
X197491Y450631D01*
X197459Y450537D01*
X197424Y450444D01*
X197385Y450352D01*
X197342Y450262D01*
X197297Y450174D01*
X197247Y450087D01*
X197195Y450003D01*
X197139Y449920D01*
X197081Y449840D01*
X197019Y449762D01*
X196954Y449687D01*
X196886Y449614D01*
X196816Y449544D01*
X196743Y449476D01*
X196668Y449411D01*
X196590Y449349D01*
X196510Y449291D01*
X196427Y449235D01*
X196343Y449183D01*
X196256Y449133D01*
X196168Y449088D01*
X196078Y449045D01*
X195986Y449006D01*
X195893Y448971D01*
X195799Y448939D01*
X195704Y448911D01*
X195608Y448886D01*
X195510Y448865D01*
X195412Y448848D01*
X195314Y448835D01*
X195215Y448826D01*
X195115Y448820D01*
X195016Y448818D01*
X188524Y448818D01*
X188425Y448820D01*
X188325Y448826D01*
X188226Y448835D01*
X188128Y448848D01*
X188030Y448866D01*
X187932Y448886D01*
X187836Y448911D01*
X187740Y448939D01*
X187646Y448971D01*
X187553Y449006D01*
X187462Y449045D01*
X187372Y449088D01*
X187283Y449133D01*
X187197Y449183D01*
X187112Y449235D01*
X187030Y449291D01*
X186950Y449350D01*
X186872Y449411D01*
X186796Y449476D01*
X186723Y449544D01*
X186653Y449614D01*
X186585Y449687D01*
X186520Y449763D01*
X186459Y449841D01*
X186400Y449921D01*
X186344Y450003D01*
X186292Y450088D01*
X186243Y450174D01*
X186197Y450263D01*
X186154Y450353D01*
X186115Y450444D01*
X186080Y450537D01*
X186048Y450631D01*
X186020Y450727D01*
X185995Y450823D01*
X185975Y450921D01*
X185957Y451019D01*
X185944Y451117D01*
X185935Y451216D01*
X185929Y451315D01*
X185927Y451415D01*
X185928Y451414D02*
X185928Y454011D01*
X188524Y458376D02*
X185928Y461622D01*
X197612Y461622D01*
X197612Y464867D02*
X197612Y458376D01*
X185928Y473376D02*
X185930Y473483D01*
X185936Y473589D01*
X185946Y473695D01*
X185959Y473801D01*
X185977Y473907D01*
X185998Y474011D01*
X186023Y474115D01*
X186052Y474218D01*
X186084Y474319D01*
X186121Y474419D01*
X186161Y474518D01*
X186204Y474616D01*
X186251Y474712D01*
X186302Y474806D01*
X186356Y474898D01*
X186413Y474988D01*
X186473Y475076D01*
X186537Y475161D01*
X186604Y475244D01*
X186674Y475325D01*
X186746Y475403D01*
X186822Y475479D01*
X186900Y475551D01*
X186981Y475621D01*
X187064Y475688D01*
X187149Y475752D01*
X187237Y475812D01*
X187327Y475869D01*
X187419Y475923D01*
X187513Y475974D01*
X187609Y476021D01*
X187707Y476064D01*
X187806Y476104D01*
X187906Y476141D01*
X188007Y476173D01*
X188110Y476202D01*
X188214Y476227D01*
X188318Y476248D01*
X188424Y476266D01*
X188530Y476279D01*
X188636Y476289D01*
X188742Y476295D01*
X188849Y476297D01*
X185928Y473376D02*
X185930Y473255D01*
X185936Y473134D01*
X185946Y473014D01*
X185959Y472893D01*
X185977Y472774D01*
X185998Y472654D01*
X186023Y472536D01*
X186052Y472419D01*
X186085Y472302D01*
X186121Y472187D01*
X186162Y472073D01*
X186205Y471960D01*
X186253Y471848D01*
X186304Y471739D01*
X186359Y471631D01*
X186417Y471524D01*
X186478Y471420D01*
X186543Y471318D01*
X186611Y471218D01*
X186682Y471120D01*
X186756Y471024D01*
X186833Y470931D01*
X186914Y470841D01*
X186997Y470753D01*
X187083Y470668D01*
X187172Y470585D01*
X187263Y470506D01*
X187357Y470429D01*
X187453Y470356D01*
X187551Y470286D01*
X187652Y470219D01*
X187755Y470155D01*
X187860Y470095D01*
X187967Y470037D01*
X188075Y469984D01*
X188185Y469934D01*
X188297Y469888D01*
X188410Y469845D01*
X188525Y469806D01*
X191121Y475323D02*
X191043Y475402D01*
X190963Y475478D01*
X190880Y475551D01*
X190794Y475621D01*
X190707Y475688D01*
X190616Y475752D01*
X190524Y475812D01*
X190430Y475870D01*
X190333Y475924D01*
X190235Y475974D01*
X190135Y476021D01*
X190034Y476065D01*
X189931Y476105D01*
X189826Y476141D01*
X189721Y476173D01*
X189614Y476202D01*
X189507Y476227D01*
X189398Y476249D01*
X189289Y476266D01*
X189180Y476280D01*
X189070Y476289D01*
X188959Y476295D01*
X188849Y476297D01*
X191121Y475324D02*
X197612Y469806D01*
X197612Y476297D01*
X164592Y454011D02*
X164592Y451414D01*
X164590Y451315D01*
X164584Y451215D01*
X164575Y451116D01*
X164562Y451018D01*
X164545Y450920D01*
X164524Y450822D01*
X164499Y450726D01*
X164471Y450631D01*
X164439Y450537D01*
X164404Y450444D01*
X164365Y450352D01*
X164322Y450262D01*
X164277Y450174D01*
X164227Y450087D01*
X164175Y450003D01*
X164119Y449920D01*
X164061Y449840D01*
X163999Y449762D01*
X163934Y449687D01*
X163866Y449614D01*
X163796Y449544D01*
X163723Y449476D01*
X163648Y449411D01*
X163570Y449349D01*
X163490Y449291D01*
X163407Y449235D01*
X163323Y449183D01*
X163236Y449133D01*
X163148Y449088D01*
X163058Y449045D01*
X162966Y449006D01*
X162873Y448971D01*
X162779Y448939D01*
X162684Y448911D01*
X162588Y448886D01*
X162490Y448865D01*
X162392Y448848D01*
X162294Y448835D01*
X162195Y448826D01*
X162095Y448820D01*
X161996Y448818D01*
X155504Y448818D01*
X155405Y448820D01*
X155305Y448826D01*
X155206Y448835D01*
X155108Y448848D01*
X155010Y448866D01*
X154912Y448886D01*
X154816Y448911D01*
X154720Y448939D01*
X154626Y448971D01*
X154533Y449006D01*
X154442Y449045D01*
X154352Y449088D01*
X154263Y449133D01*
X154177Y449183D01*
X154092Y449235D01*
X154010Y449291D01*
X153930Y449350D01*
X153852Y449411D01*
X153776Y449476D01*
X153703Y449544D01*
X153633Y449614D01*
X153565Y449687D01*
X153500Y449763D01*
X153439Y449841D01*
X153380Y449921D01*
X153324Y450003D01*
X153272Y450088D01*
X153223Y450174D01*
X153177Y450263D01*
X153134Y450353D01*
X153095Y450444D01*
X153060Y450537D01*
X153028Y450631D01*
X153000Y450727D01*
X152975Y450823D01*
X152955Y450921D01*
X152937Y451019D01*
X152924Y451117D01*
X152915Y451216D01*
X152909Y451315D01*
X152907Y451415D01*
X152908Y451414D02*
X152908Y454011D01*
X155504Y458376D02*
X152908Y461622D01*
X164592Y461622D01*
X164592Y464867D02*
X164592Y458376D01*
X164592Y469806D02*
X164592Y473052D01*
X164590Y473165D01*
X164584Y473278D01*
X164574Y473391D01*
X164560Y473504D01*
X164543Y473616D01*
X164521Y473727D01*
X164496Y473837D01*
X164466Y473947D01*
X164433Y474055D01*
X164396Y474162D01*
X164356Y474268D01*
X164311Y474372D01*
X164263Y474475D01*
X164212Y474576D01*
X164157Y474675D01*
X164099Y474772D01*
X164037Y474867D01*
X163972Y474960D01*
X163904Y475050D01*
X163833Y475138D01*
X163758Y475224D01*
X163681Y475307D01*
X163601Y475387D01*
X163518Y475464D01*
X163432Y475539D01*
X163344Y475610D01*
X163254Y475678D01*
X163161Y475743D01*
X163066Y475805D01*
X162969Y475863D01*
X162870Y475918D01*
X162769Y475969D01*
X162666Y476017D01*
X162562Y476062D01*
X162456Y476102D01*
X162349Y476139D01*
X162241Y476172D01*
X162131Y476202D01*
X162021Y476227D01*
X161910Y476249D01*
X161798Y476266D01*
X161685Y476280D01*
X161572Y476290D01*
X161459Y476296D01*
X161346Y476298D01*
X161233Y476296D01*
X161120Y476290D01*
X161007Y476280D01*
X160894Y476266D01*
X160782Y476249D01*
X160671Y476227D01*
X160561Y476202D01*
X160451Y476172D01*
X160343Y476139D01*
X160236Y476102D01*
X160130Y476062D01*
X160026Y476017D01*
X159923Y475969D01*
X159822Y475918D01*
X159723Y475863D01*
X159626Y475805D01*
X159531Y475743D01*
X159438Y475678D01*
X159348Y475610D01*
X159260Y475539D01*
X159174Y475464D01*
X159091Y475387D01*
X159011Y475307D01*
X158934Y475224D01*
X158859Y475138D01*
X158788Y475050D01*
X158720Y474960D01*
X158655Y474867D01*
X158593Y474772D01*
X158535Y474675D01*
X158480Y474576D01*
X158429Y474475D01*
X158381Y474372D01*
X158336Y474268D01*
X158296Y474162D01*
X158259Y474055D01*
X158226Y473947D01*
X158196Y473837D01*
X158171Y473727D01*
X158149Y473616D01*
X158132Y473504D01*
X158118Y473391D01*
X158108Y473278D01*
X158102Y473165D01*
X158100Y473052D01*
X152908Y473701D02*
X152908Y469806D01*
X152908Y473701D02*
X152910Y473802D01*
X152916Y473902D01*
X152926Y474002D01*
X152939Y474102D01*
X152957Y474201D01*
X152978Y474300D01*
X153003Y474397D01*
X153032Y474494D01*
X153065Y474589D01*
X153101Y474683D01*
X153141Y474775D01*
X153184Y474866D01*
X153231Y474955D01*
X153281Y475042D01*
X153335Y475128D01*
X153392Y475211D01*
X153452Y475291D01*
X153515Y475370D01*
X153582Y475446D01*
X153651Y475519D01*
X153723Y475589D01*
X153797Y475657D01*
X153874Y475722D01*
X153954Y475783D01*
X154036Y475842D01*
X154120Y475897D01*
X154206Y475949D01*
X154294Y475998D01*
X154384Y476043D01*
X154476Y476085D01*
X154569Y476123D01*
X154664Y476157D01*
X154759Y476188D01*
X154856Y476215D01*
X154954Y476238D01*
X155053Y476258D01*
X155153Y476273D01*
X155253Y476285D01*
X155353Y476293D01*
X155454Y476297D01*
X155554Y476297D01*
X155655Y476293D01*
X155755Y476285D01*
X155855Y476273D01*
X155955Y476258D01*
X156054Y476238D01*
X156152Y476215D01*
X156249Y476188D01*
X156344Y476157D01*
X156439Y476123D01*
X156532Y476085D01*
X156624Y476043D01*
X156714Y475998D01*
X156802Y475949D01*
X156888Y475897D01*
X156972Y475842D01*
X157054Y475783D01*
X157134Y475722D01*
X157211Y475657D01*
X157285Y475589D01*
X157357Y475519D01*
X157426Y475446D01*
X157493Y475370D01*
X157556Y475291D01*
X157616Y475211D01*
X157673Y475128D01*
X157727Y475042D01*
X157777Y474955D01*
X157824Y474866D01*
X157867Y474775D01*
X157907Y474683D01*
X157943Y474589D01*
X157976Y474494D01*
X158005Y474397D01*
X158030Y474300D01*
X158051Y474201D01*
X158069Y474102D01*
X158082Y474002D01*
X158092Y473902D01*
X158098Y473802D01*
X158100Y473701D01*
X158101Y473701D02*
X158101Y471104D01*
D89*
X177673Y134775D02*
X177673Y132856D01*
X177671Y132770D01*
X177665Y132684D01*
X177656Y132598D01*
X177642Y132513D01*
X177625Y132429D01*
X177604Y132345D01*
X177579Y132263D01*
X177551Y132182D01*
X177519Y132102D01*
X177483Y132023D01*
X177444Y131947D01*
X177401Y131872D01*
X177356Y131799D01*
X177307Y131728D01*
X177254Y131660D01*
X177199Y131593D01*
X177141Y131530D01*
X177080Y131469D01*
X177017Y131411D01*
X176950Y131356D01*
X176882Y131304D01*
X176811Y131254D01*
X176738Y131209D01*
X176663Y131166D01*
X176587Y131127D01*
X176508Y131091D01*
X176428Y131059D01*
X176347Y131031D01*
X176265Y131006D01*
X176181Y130985D01*
X176097Y130968D01*
X176012Y130954D01*
X175926Y130945D01*
X175840Y130939D01*
X175754Y130937D01*
X170956Y130937D01*
X170870Y130939D01*
X170784Y130945D01*
X170698Y130954D01*
X170613Y130968D01*
X170529Y130985D01*
X170445Y131006D01*
X170363Y131031D01*
X170282Y131059D01*
X170202Y131091D01*
X170123Y131127D01*
X170047Y131166D01*
X169972Y131209D01*
X169899Y131254D01*
X169828Y131303D01*
X169760Y131356D01*
X169693Y131411D01*
X169630Y131469D01*
X169569Y131530D01*
X169511Y131593D01*
X169456Y131660D01*
X169404Y131728D01*
X169354Y131799D01*
X169309Y131872D01*
X169266Y131947D01*
X169227Y132023D01*
X169191Y132102D01*
X169159Y132182D01*
X169131Y132263D01*
X169106Y132345D01*
X169085Y132429D01*
X169068Y132513D01*
X169054Y132598D01*
X169045Y132684D01*
X169039Y132770D01*
X169037Y132856D01*
X169037Y134775D01*
X170956Y138595D02*
X169037Y140994D01*
X177673Y140994D01*
X177673Y138595D02*
X177673Y143393D01*
X175754Y147739D02*
X169037Y149658D01*
X175754Y147739D02*
X175754Y152537D01*
X173835Y151098D02*
X177673Y151098D01*
X205613Y134775D02*
X205613Y132856D01*
X205611Y132770D01*
X205605Y132684D01*
X205596Y132598D01*
X205582Y132513D01*
X205565Y132429D01*
X205544Y132345D01*
X205519Y132263D01*
X205491Y132182D01*
X205459Y132102D01*
X205423Y132023D01*
X205384Y131947D01*
X205341Y131872D01*
X205296Y131799D01*
X205247Y131728D01*
X205194Y131660D01*
X205139Y131593D01*
X205081Y131530D01*
X205020Y131469D01*
X204957Y131411D01*
X204890Y131356D01*
X204822Y131304D01*
X204751Y131254D01*
X204678Y131209D01*
X204603Y131166D01*
X204527Y131127D01*
X204448Y131091D01*
X204368Y131059D01*
X204287Y131031D01*
X204205Y131006D01*
X204121Y130985D01*
X204037Y130968D01*
X203952Y130954D01*
X203866Y130945D01*
X203780Y130939D01*
X203694Y130937D01*
X198896Y130937D01*
X198810Y130939D01*
X198724Y130945D01*
X198638Y130954D01*
X198553Y130968D01*
X198469Y130985D01*
X198385Y131006D01*
X198303Y131031D01*
X198222Y131059D01*
X198142Y131091D01*
X198063Y131127D01*
X197987Y131166D01*
X197912Y131209D01*
X197839Y131254D01*
X197768Y131303D01*
X197700Y131356D01*
X197633Y131411D01*
X197570Y131469D01*
X197509Y131530D01*
X197451Y131593D01*
X197396Y131660D01*
X197344Y131728D01*
X197294Y131799D01*
X197249Y131872D01*
X197206Y131947D01*
X197167Y132023D01*
X197131Y132102D01*
X197099Y132182D01*
X197071Y132263D01*
X197046Y132345D01*
X197025Y132429D01*
X197008Y132513D01*
X196994Y132598D01*
X196985Y132684D01*
X196979Y132770D01*
X196977Y132856D01*
X196977Y134775D01*
X198896Y138595D02*
X196977Y140994D01*
X205613Y140994D01*
X205613Y138595D02*
X205613Y143393D01*
X205613Y147739D02*
X205613Y150618D01*
X205611Y150704D01*
X205605Y150790D01*
X205596Y150876D01*
X205582Y150961D01*
X205565Y151045D01*
X205544Y151129D01*
X205519Y151211D01*
X205491Y151292D01*
X205459Y151372D01*
X205423Y151451D01*
X205384Y151527D01*
X205341Y151602D01*
X205296Y151675D01*
X205247Y151746D01*
X205194Y151814D01*
X205139Y151881D01*
X205081Y151944D01*
X205020Y152005D01*
X204957Y152063D01*
X204890Y152118D01*
X204822Y152171D01*
X204751Y152220D01*
X204678Y152265D01*
X204603Y152308D01*
X204527Y152347D01*
X204448Y152383D01*
X204368Y152415D01*
X204287Y152443D01*
X204205Y152468D01*
X204121Y152489D01*
X204037Y152506D01*
X203952Y152520D01*
X203866Y152529D01*
X203780Y152535D01*
X203694Y152537D01*
X202734Y152537D01*
X202648Y152535D01*
X202562Y152529D01*
X202476Y152520D01*
X202391Y152506D01*
X202307Y152489D01*
X202223Y152468D01*
X202141Y152443D01*
X202060Y152415D01*
X201980Y152383D01*
X201901Y152347D01*
X201825Y152308D01*
X201750Y152265D01*
X201677Y152220D01*
X201606Y152171D01*
X201538Y152118D01*
X201471Y152063D01*
X201408Y152005D01*
X201347Y151944D01*
X201289Y151881D01*
X201234Y151814D01*
X201182Y151746D01*
X201132Y151675D01*
X201087Y151602D01*
X201044Y151527D01*
X201005Y151451D01*
X200969Y151372D01*
X200937Y151292D01*
X200909Y151211D01*
X200884Y151129D01*
X200863Y151045D01*
X200846Y150961D01*
X200832Y150876D01*
X200823Y150790D01*
X200817Y150704D01*
X200815Y150618D01*
X200815Y147739D01*
X196977Y147739D01*
X196977Y152537D01*
D88*
X130161Y486918D02*
X127564Y486918D01*
X127465Y486920D01*
X127365Y486926D01*
X127266Y486935D01*
X127168Y486948D01*
X127070Y486965D01*
X126972Y486986D01*
X126876Y487011D01*
X126781Y487039D01*
X126687Y487071D01*
X126594Y487106D01*
X126502Y487145D01*
X126412Y487188D01*
X126324Y487233D01*
X126237Y487283D01*
X126153Y487335D01*
X126070Y487391D01*
X125990Y487449D01*
X125912Y487511D01*
X125837Y487576D01*
X125764Y487644D01*
X125694Y487714D01*
X125626Y487787D01*
X125561Y487862D01*
X125499Y487940D01*
X125441Y488020D01*
X125385Y488103D01*
X125333Y488187D01*
X125283Y488274D01*
X125238Y488362D01*
X125195Y488452D01*
X125156Y488544D01*
X125121Y488637D01*
X125089Y488731D01*
X125061Y488826D01*
X125036Y488922D01*
X125015Y489020D01*
X124998Y489118D01*
X124985Y489216D01*
X124976Y489315D01*
X124970Y489415D01*
X124968Y489514D01*
X124968Y496006D01*
X124970Y496105D01*
X124976Y496205D01*
X124985Y496304D01*
X124998Y496402D01*
X125015Y496500D01*
X125036Y496598D01*
X125061Y496694D01*
X125089Y496789D01*
X125121Y496883D01*
X125156Y496976D01*
X125195Y497068D01*
X125238Y497158D01*
X125283Y497246D01*
X125333Y497333D01*
X125385Y497417D01*
X125441Y497500D01*
X125499Y497580D01*
X125561Y497658D01*
X125626Y497733D01*
X125694Y497806D01*
X125764Y497876D01*
X125837Y497944D01*
X125912Y498009D01*
X125990Y498071D01*
X126070Y498129D01*
X126153Y498185D01*
X126237Y498237D01*
X126324Y498287D01*
X126412Y498332D01*
X126502Y498375D01*
X126594Y498414D01*
X126686Y498449D01*
X126781Y498481D01*
X126876Y498509D01*
X126972Y498534D01*
X127070Y498555D01*
X127168Y498572D01*
X127266Y498585D01*
X127365Y498594D01*
X127465Y498600D01*
X127564Y498602D01*
X130161Y498602D01*
X134526Y496006D02*
X137772Y498602D01*
X137772Y486918D01*
X141017Y486918D02*
X134526Y486918D01*
X145956Y493409D02*
X149851Y493409D01*
X149950Y493407D01*
X150050Y493401D01*
X150149Y493392D01*
X150247Y493379D01*
X150345Y493362D01*
X150443Y493341D01*
X150539Y493316D01*
X150634Y493288D01*
X150728Y493256D01*
X150821Y493221D01*
X150913Y493182D01*
X151003Y493139D01*
X151091Y493094D01*
X151178Y493044D01*
X151262Y492992D01*
X151345Y492936D01*
X151425Y492878D01*
X151503Y492816D01*
X151578Y492751D01*
X151651Y492683D01*
X151721Y492613D01*
X151789Y492540D01*
X151854Y492465D01*
X151916Y492387D01*
X151974Y492307D01*
X152030Y492224D01*
X152082Y492140D01*
X152132Y492053D01*
X152177Y491965D01*
X152220Y491875D01*
X152259Y491783D01*
X152294Y491690D01*
X152326Y491596D01*
X152354Y491501D01*
X152379Y491405D01*
X152400Y491307D01*
X152417Y491209D01*
X152430Y491111D01*
X152439Y491012D01*
X152445Y490912D01*
X152447Y490813D01*
X152447Y490164D01*
X152448Y490164D02*
X152446Y490051D01*
X152440Y489938D01*
X152430Y489825D01*
X152416Y489712D01*
X152399Y489600D01*
X152377Y489489D01*
X152352Y489379D01*
X152322Y489269D01*
X152289Y489161D01*
X152252Y489054D01*
X152212Y488948D01*
X152167Y488844D01*
X152119Y488741D01*
X152068Y488640D01*
X152013Y488541D01*
X151955Y488444D01*
X151893Y488349D01*
X151828Y488256D01*
X151760Y488166D01*
X151689Y488078D01*
X151614Y487992D01*
X151537Y487909D01*
X151457Y487829D01*
X151374Y487752D01*
X151288Y487677D01*
X151200Y487606D01*
X151110Y487538D01*
X151017Y487473D01*
X150922Y487411D01*
X150825Y487353D01*
X150726Y487298D01*
X150625Y487247D01*
X150522Y487199D01*
X150418Y487154D01*
X150312Y487114D01*
X150205Y487077D01*
X150097Y487044D01*
X149987Y487014D01*
X149877Y486989D01*
X149766Y486967D01*
X149654Y486950D01*
X149541Y486936D01*
X149428Y486926D01*
X149315Y486920D01*
X149202Y486918D01*
X149089Y486920D01*
X148976Y486926D01*
X148863Y486936D01*
X148750Y486950D01*
X148638Y486967D01*
X148527Y486989D01*
X148417Y487014D01*
X148307Y487044D01*
X148199Y487077D01*
X148092Y487114D01*
X147986Y487154D01*
X147882Y487199D01*
X147779Y487247D01*
X147678Y487298D01*
X147579Y487353D01*
X147482Y487411D01*
X147387Y487473D01*
X147294Y487538D01*
X147204Y487606D01*
X147116Y487677D01*
X147030Y487752D01*
X146947Y487829D01*
X146867Y487909D01*
X146790Y487992D01*
X146715Y488078D01*
X146644Y488166D01*
X146576Y488256D01*
X146511Y488349D01*
X146449Y488444D01*
X146391Y488541D01*
X146336Y488640D01*
X146285Y488741D01*
X146237Y488844D01*
X146192Y488948D01*
X146152Y489054D01*
X146115Y489161D01*
X146082Y489269D01*
X146052Y489379D01*
X146027Y489489D01*
X146005Y489600D01*
X145988Y489712D01*
X145974Y489825D01*
X145964Y489938D01*
X145958Y490051D01*
X145956Y490164D01*
X145956Y493409D01*
X145958Y493552D01*
X145964Y493695D01*
X145974Y493838D01*
X145988Y493980D01*
X146005Y494122D01*
X146027Y494264D01*
X146052Y494405D01*
X146082Y494545D01*
X146115Y494684D01*
X146152Y494822D01*
X146193Y494959D01*
X146237Y495095D01*
X146286Y495230D01*
X146338Y495363D01*
X146393Y495495D01*
X146453Y495625D01*
X146516Y495754D01*
X146582Y495881D01*
X146652Y496005D01*
X146725Y496128D01*
X146802Y496249D01*
X146882Y496368D01*
X146965Y496484D01*
X147051Y496599D01*
X147140Y496710D01*
X147233Y496820D01*
X147328Y496926D01*
X147427Y497030D01*
X147528Y497131D01*
X147632Y497230D01*
X147738Y497325D01*
X147848Y497418D01*
X147959Y497507D01*
X148074Y497593D01*
X148190Y497676D01*
X148309Y497756D01*
X148430Y497833D01*
X148552Y497906D01*
X148677Y497976D01*
X148804Y498042D01*
X148933Y498105D01*
X149063Y498165D01*
X149195Y498220D01*
X149328Y498272D01*
X149463Y498321D01*
X149599Y498365D01*
X149736Y498406D01*
X149874Y498443D01*
X150013Y498476D01*
X150153Y498506D01*
X150294Y498531D01*
X150436Y498553D01*
X150578Y498570D01*
X150720Y498584D01*
X150863Y498594D01*
X151006Y498600D01*
X151149Y498602D01*
X119446Y417068D02*
X116849Y417068D01*
X116750Y417070D01*
X116650Y417076D01*
X116551Y417085D01*
X116453Y417098D01*
X116355Y417115D01*
X116257Y417136D01*
X116161Y417161D01*
X116066Y417189D01*
X115972Y417221D01*
X115879Y417256D01*
X115787Y417295D01*
X115697Y417338D01*
X115609Y417383D01*
X115522Y417433D01*
X115438Y417485D01*
X115355Y417541D01*
X115275Y417599D01*
X115197Y417661D01*
X115122Y417726D01*
X115049Y417794D01*
X114979Y417864D01*
X114911Y417937D01*
X114846Y418012D01*
X114784Y418090D01*
X114726Y418170D01*
X114670Y418253D01*
X114618Y418337D01*
X114568Y418424D01*
X114523Y418512D01*
X114480Y418602D01*
X114441Y418694D01*
X114406Y418787D01*
X114374Y418881D01*
X114346Y418976D01*
X114321Y419072D01*
X114300Y419170D01*
X114283Y419268D01*
X114270Y419366D01*
X114261Y419465D01*
X114255Y419565D01*
X114253Y419664D01*
X114253Y426156D01*
X114255Y426255D01*
X114261Y426355D01*
X114270Y426454D01*
X114283Y426552D01*
X114300Y426650D01*
X114321Y426748D01*
X114346Y426844D01*
X114374Y426939D01*
X114406Y427033D01*
X114441Y427126D01*
X114480Y427218D01*
X114523Y427308D01*
X114568Y427396D01*
X114618Y427483D01*
X114670Y427567D01*
X114726Y427650D01*
X114784Y427730D01*
X114846Y427808D01*
X114911Y427883D01*
X114979Y427956D01*
X115049Y428026D01*
X115122Y428094D01*
X115197Y428159D01*
X115275Y428221D01*
X115355Y428279D01*
X115438Y428335D01*
X115522Y428387D01*
X115609Y428437D01*
X115697Y428482D01*
X115787Y428525D01*
X115879Y428564D01*
X115971Y428599D01*
X116066Y428631D01*
X116161Y428659D01*
X116257Y428684D01*
X116355Y428705D01*
X116453Y428722D01*
X116551Y428735D01*
X116650Y428744D01*
X116750Y428750D01*
X116849Y428752D01*
X119446Y428752D01*
X123811Y426156D02*
X127056Y428752D01*
X127056Y417068D01*
X123811Y417068D02*
X130302Y417068D01*
X135241Y427454D02*
X135241Y428752D01*
X141732Y428752D01*
X138486Y417068D01*
D90*
X265430Y261620D02*
X259080Y255270D01*
X259080Y242570D02*
X265430Y236220D01*
X259080Y229870D01*
X259080Y217170D02*
X265430Y210820D01*
X259080Y204470D01*
X259080Y191770D02*
X265430Y185420D01*
X259080Y179070D01*
X259080Y166370D02*
X265430Y160020D01*
X265430Y261620D02*
X303530Y261620D01*
X309880Y255270D01*
X309880Y242570D01*
X303530Y236220D01*
X309880Y229870D01*
X309880Y217170D01*
X303530Y210820D01*
X309880Y204470D01*
X309880Y191770D01*
X303530Y185420D01*
X309880Y179070D01*
X309880Y166370D01*
X303530Y160020D01*
X265430Y160020D01*
X259080Y166370D02*
X259080Y179070D01*
X259080Y191770D02*
X259080Y204470D01*
X259080Y217170D02*
X259080Y229870D01*
X259080Y242570D02*
X259080Y255270D01*
X256540Y255270D02*
X256540Y242570D01*
X259080Y255270D02*
X265430Y261620D01*
X303530Y261620D01*
X309880Y255270D01*
D91*
X313055Y255356D02*
X316809Y255356D01*
X316874Y255354D01*
X316938Y255348D01*
X317002Y255338D01*
X317066Y255325D01*
X317128Y255307D01*
X317189Y255286D01*
X317249Y255262D01*
X317307Y255233D01*
X317364Y255201D01*
X317418Y255166D01*
X317470Y255128D01*
X317520Y255086D01*
X317567Y255042D01*
X317611Y254995D01*
X317653Y254945D01*
X317691Y254893D01*
X317726Y254839D01*
X317758Y254782D01*
X317787Y254724D01*
X317811Y254664D01*
X317832Y254603D01*
X317850Y254541D01*
X317863Y254477D01*
X317873Y254413D01*
X317879Y254349D01*
X317881Y254284D01*
X317881Y253747D01*
X314127Y258304D02*
X313055Y259644D01*
X317881Y259644D01*
X317881Y258304D02*
X317881Y260985D01*
D90*
X80010Y462280D02*
X67310Y462280D01*
X60960Y468630D01*
X60960Y481330D02*
X67310Y487680D01*
X60960Y468630D02*
X54610Y462280D01*
X41910Y462280D01*
X35560Y468630D01*
X35560Y481330D02*
X41910Y487680D01*
X54610Y487680D01*
X60960Y481330D01*
X86360Y481330D02*
X86360Y468630D01*
X80010Y462280D01*
X86360Y481330D02*
X80010Y487680D01*
X67310Y487680D01*
X35560Y481330D02*
X35560Y468630D01*
D91*
X80096Y460375D02*
X80096Y456621D01*
X80094Y456556D01*
X80088Y456492D01*
X80078Y456428D01*
X80065Y456364D01*
X80047Y456302D01*
X80026Y456241D01*
X80002Y456181D01*
X79973Y456123D01*
X79941Y456066D01*
X79906Y456012D01*
X79868Y455960D01*
X79826Y455910D01*
X79782Y455863D01*
X79735Y455819D01*
X79685Y455777D01*
X79633Y455739D01*
X79579Y455704D01*
X79522Y455672D01*
X79464Y455643D01*
X79404Y455619D01*
X79343Y455598D01*
X79281Y455580D01*
X79217Y455567D01*
X79153Y455557D01*
X79089Y455551D01*
X79024Y455549D01*
X78487Y455549D01*
X84519Y460375D02*
X84587Y460373D01*
X84654Y460367D01*
X84721Y460358D01*
X84788Y460345D01*
X84853Y460328D01*
X84918Y460307D01*
X84981Y460283D01*
X85043Y460255D01*
X85103Y460224D01*
X85161Y460190D01*
X85217Y460152D01*
X85272Y460112D01*
X85323Y460068D01*
X85372Y460021D01*
X85419Y459972D01*
X85463Y459921D01*
X85503Y459866D01*
X85541Y459810D01*
X85575Y459752D01*
X85606Y459692D01*
X85634Y459630D01*
X85658Y459567D01*
X85679Y459502D01*
X85696Y459437D01*
X85709Y459370D01*
X85718Y459303D01*
X85724Y459236D01*
X85726Y459168D01*
X84519Y460375D02*
X84441Y460373D01*
X84363Y460367D01*
X84286Y460357D01*
X84209Y460344D01*
X84133Y460326D01*
X84058Y460305D01*
X83984Y460280D01*
X83912Y460251D01*
X83841Y460219D01*
X83772Y460183D01*
X83704Y460144D01*
X83639Y460101D01*
X83576Y460055D01*
X83515Y460006D01*
X83457Y459954D01*
X83402Y459899D01*
X83349Y459842D01*
X83300Y459782D01*
X83253Y459719D01*
X83210Y459655D01*
X83170Y459588D01*
X83133Y459519D01*
X83100Y459448D01*
X83070Y459376D01*
X83044Y459303D01*
X85323Y458230D02*
X85372Y458279D01*
X85419Y458331D01*
X85462Y458386D01*
X85503Y458443D01*
X85541Y458502D01*
X85575Y458563D01*
X85606Y458626D01*
X85634Y458690D01*
X85658Y458756D01*
X85678Y458822D01*
X85695Y458890D01*
X85708Y458959D01*
X85717Y459028D01*
X85723Y459098D01*
X85725Y459168D01*
X85323Y458230D02*
X83044Y455549D01*
X85725Y455549D01*
D88*
X132588Y351028D02*
X144272Y351028D01*
X144272Y356221D01*
X144272Y360934D02*
X144272Y366127D01*
X144272Y360934D02*
X132588Y360934D01*
X132588Y366127D01*
X137781Y364829D02*
X137781Y360934D01*
X132588Y370817D02*
X144272Y370817D01*
X132588Y370817D02*
X132588Y374063D01*
X132590Y374176D01*
X132596Y374289D01*
X132606Y374402D01*
X132620Y374515D01*
X132637Y374627D01*
X132659Y374738D01*
X132684Y374848D01*
X132714Y374958D01*
X132747Y375066D01*
X132784Y375173D01*
X132824Y375279D01*
X132869Y375383D01*
X132917Y375486D01*
X132968Y375587D01*
X133023Y375686D01*
X133081Y375783D01*
X133143Y375878D01*
X133208Y375971D01*
X133276Y376061D01*
X133347Y376149D01*
X133422Y376235D01*
X133499Y376318D01*
X133579Y376398D01*
X133662Y376475D01*
X133748Y376550D01*
X133836Y376621D01*
X133926Y376689D01*
X134019Y376754D01*
X134114Y376816D01*
X134211Y376874D01*
X134310Y376929D01*
X134411Y376980D01*
X134514Y377028D01*
X134618Y377073D01*
X134724Y377113D01*
X134831Y377150D01*
X134939Y377183D01*
X135049Y377213D01*
X135159Y377238D01*
X135270Y377260D01*
X135382Y377277D01*
X135495Y377291D01*
X135608Y377301D01*
X135721Y377307D01*
X135834Y377309D01*
X141026Y377309D01*
X141139Y377307D01*
X141252Y377301D01*
X141365Y377291D01*
X141478Y377277D01*
X141590Y377260D01*
X141701Y377238D01*
X141811Y377213D01*
X141921Y377183D01*
X142029Y377150D01*
X142136Y377113D01*
X142242Y377073D01*
X142346Y377028D01*
X142449Y376980D01*
X142550Y376929D01*
X142649Y376874D01*
X142746Y376816D01*
X142841Y376754D01*
X142934Y376689D01*
X143024Y376621D01*
X143112Y376550D01*
X143198Y376475D01*
X143281Y376398D01*
X143361Y376318D01*
X143438Y376235D01*
X143513Y376149D01*
X143584Y376061D01*
X143652Y375971D01*
X143717Y375878D01*
X143779Y375783D01*
X143837Y375686D01*
X143892Y375587D01*
X143943Y375486D01*
X143991Y375383D01*
X144036Y375279D01*
X144076Y375173D01*
X144113Y375066D01*
X144146Y374958D01*
X144176Y374848D01*
X144201Y374738D01*
X144223Y374627D01*
X144240Y374515D01*
X144254Y374402D01*
X144264Y374289D01*
X144270Y374176D01*
X144272Y374063D01*
X144272Y370817D01*
X144272Y382628D02*
X144272Y386523D01*
X144270Y386622D01*
X144264Y386722D01*
X144255Y386821D01*
X144242Y386919D01*
X144225Y387017D01*
X144204Y387115D01*
X144179Y387211D01*
X144151Y387306D01*
X144119Y387400D01*
X144084Y387493D01*
X144045Y387585D01*
X144002Y387675D01*
X143957Y387763D01*
X143907Y387850D01*
X143855Y387934D01*
X143799Y388017D01*
X143741Y388097D01*
X143679Y388175D01*
X143614Y388250D01*
X143546Y388323D01*
X143476Y388393D01*
X143403Y388461D01*
X143328Y388526D01*
X143250Y388588D01*
X143170Y388646D01*
X143087Y388702D01*
X143003Y388754D01*
X142916Y388804D01*
X142828Y388849D01*
X142738Y388892D01*
X142646Y388931D01*
X142553Y388966D01*
X142459Y388998D01*
X142364Y389026D01*
X142268Y389051D01*
X142170Y389072D01*
X142072Y389089D01*
X141974Y389102D01*
X141875Y389111D01*
X141775Y389117D01*
X141676Y389119D01*
X140377Y389119D01*
X140278Y389117D01*
X140178Y389111D01*
X140079Y389102D01*
X139981Y389089D01*
X139883Y389072D01*
X139785Y389051D01*
X139689Y389026D01*
X139594Y388998D01*
X139500Y388966D01*
X139407Y388931D01*
X139315Y388892D01*
X139225Y388849D01*
X139137Y388804D01*
X139050Y388754D01*
X138966Y388702D01*
X138883Y388646D01*
X138803Y388588D01*
X138725Y388526D01*
X138650Y388461D01*
X138577Y388393D01*
X138507Y388323D01*
X138439Y388250D01*
X138374Y388175D01*
X138312Y388097D01*
X138254Y388017D01*
X138198Y387934D01*
X138146Y387850D01*
X138096Y387763D01*
X138051Y387675D01*
X138008Y387585D01*
X137969Y387493D01*
X137934Y387400D01*
X137902Y387306D01*
X137874Y387211D01*
X137849Y387115D01*
X137828Y387017D01*
X137811Y386919D01*
X137798Y386821D01*
X137789Y386722D01*
X137783Y386622D01*
X137781Y386523D01*
X137781Y382628D01*
X132588Y382628D01*
X132588Y389119D01*
D92*
X157480Y364220D03*
D88*
X106172Y351028D02*
X94488Y351028D01*
X106172Y351028D02*
X106172Y356221D01*
X106172Y360934D02*
X106172Y366127D01*
X106172Y360934D02*
X94488Y360934D01*
X94488Y366127D01*
X99681Y364829D02*
X99681Y360934D01*
X94488Y370817D02*
X106172Y370817D01*
X94488Y370817D02*
X94488Y374063D01*
X94490Y374176D01*
X94496Y374289D01*
X94506Y374402D01*
X94520Y374515D01*
X94537Y374627D01*
X94559Y374738D01*
X94584Y374848D01*
X94614Y374958D01*
X94647Y375066D01*
X94684Y375173D01*
X94724Y375279D01*
X94769Y375383D01*
X94817Y375486D01*
X94868Y375587D01*
X94923Y375686D01*
X94981Y375783D01*
X95043Y375878D01*
X95108Y375971D01*
X95176Y376061D01*
X95247Y376149D01*
X95322Y376235D01*
X95399Y376318D01*
X95479Y376398D01*
X95562Y376475D01*
X95648Y376550D01*
X95736Y376621D01*
X95826Y376689D01*
X95919Y376754D01*
X96014Y376816D01*
X96111Y376874D01*
X96210Y376929D01*
X96311Y376980D01*
X96414Y377028D01*
X96518Y377073D01*
X96624Y377113D01*
X96731Y377150D01*
X96839Y377183D01*
X96949Y377213D01*
X97059Y377238D01*
X97170Y377260D01*
X97282Y377277D01*
X97395Y377291D01*
X97508Y377301D01*
X97621Y377307D01*
X97734Y377309D01*
X102926Y377309D01*
X103039Y377307D01*
X103152Y377301D01*
X103265Y377291D01*
X103378Y377277D01*
X103490Y377260D01*
X103601Y377238D01*
X103711Y377213D01*
X103821Y377183D01*
X103929Y377150D01*
X104036Y377113D01*
X104142Y377073D01*
X104246Y377028D01*
X104349Y376980D01*
X104450Y376929D01*
X104549Y376874D01*
X104646Y376816D01*
X104741Y376754D01*
X104834Y376689D01*
X104924Y376621D01*
X105012Y376550D01*
X105098Y376475D01*
X105181Y376398D01*
X105261Y376318D01*
X105338Y376235D01*
X105413Y376149D01*
X105484Y376061D01*
X105552Y375971D01*
X105617Y375878D01*
X105679Y375783D01*
X105737Y375686D01*
X105792Y375587D01*
X105843Y375486D01*
X105891Y375383D01*
X105936Y375279D01*
X105976Y375173D01*
X106013Y375066D01*
X106046Y374958D01*
X106076Y374848D01*
X106101Y374738D01*
X106123Y374627D01*
X106140Y374515D01*
X106154Y374402D01*
X106164Y374289D01*
X106170Y374176D01*
X106172Y374063D01*
X106172Y370817D01*
X99681Y382628D02*
X99681Y386523D01*
X99683Y386622D01*
X99689Y386722D01*
X99698Y386821D01*
X99711Y386919D01*
X99728Y387017D01*
X99749Y387115D01*
X99774Y387211D01*
X99802Y387306D01*
X99834Y387400D01*
X99869Y387493D01*
X99908Y387585D01*
X99951Y387675D01*
X99996Y387763D01*
X100046Y387850D01*
X100098Y387934D01*
X100154Y388017D01*
X100212Y388097D01*
X100274Y388175D01*
X100339Y388250D01*
X100407Y388323D01*
X100477Y388393D01*
X100550Y388461D01*
X100625Y388526D01*
X100703Y388588D01*
X100783Y388646D01*
X100866Y388702D01*
X100950Y388754D01*
X101037Y388804D01*
X101125Y388849D01*
X101215Y388892D01*
X101307Y388931D01*
X101400Y388966D01*
X101494Y388998D01*
X101589Y389026D01*
X101685Y389051D01*
X101783Y389072D01*
X101881Y389089D01*
X101979Y389102D01*
X102078Y389111D01*
X102178Y389117D01*
X102277Y389119D01*
X102926Y389119D01*
X102926Y389120D02*
X103039Y389118D01*
X103152Y389112D01*
X103265Y389102D01*
X103378Y389088D01*
X103490Y389071D01*
X103601Y389049D01*
X103711Y389024D01*
X103821Y388994D01*
X103929Y388961D01*
X104036Y388924D01*
X104142Y388884D01*
X104246Y388839D01*
X104349Y388791D01*
X104450Y388740D01*
X104549Y388685D01*
X104646Y388627D01*
X104741Y388565D01*
X104834Y388500D01*
X104924Y388432D01*
X105012Y388361D01*
X105098Y388286D01*
X105181Y388209D01*
X105261Y388129D01*
X105338Y388046D01*
X105413Y387960D01*
X105484Y387872D01*
X105552Y387782D01*
X105617Y387689D01*
X105679Y387594D01*
X105737Y387497D01*
X105792Y387398D01*
X105843Y387297D01*
X105891Y387194D01*
X105936Y387090D01*
X105976Y386984D01*
X106013Y386877D01*
X106046Y386769D01*
X106076Y386659D01*
X106101Y386549D01*
X106123Y386438D01*
X106140Y386326D01*
X106154Y386213D01*
X106164Y386100D01*
X106170Y385987D01*
X106172Y385874D01*
X106170Y385761D01*
X106164Y385648D01*
X106154Y385535D01*
X106140Y385422D01*
X106123Y385310D01*
X106101Y385199D01*
X106076Y385089D01*
X106046Y384979D01*
X106013Y384871D01*
X105976Y384764D01*
X105936Y384658D01*
X105891Y384554D01*
X105843Y384451D01*
X105792Y384350D01*
X105737Y384251D01*
X105679Y384154D01*
X105617Y384059D01*
X105552Y383966D01*
X105484Y383876D01*
X105413Y383788D01*
X105338Y383702D01*
X105261Y383619D01*
X105181Y383539D01*
X105098Y383462D01*
X105012Y383387D01*
X104924Y383316D01*
X104834Y383248D01*
X104741Y383183D01*
X104646Y383121D01*
X104549Y383063D01*
X104450Y383008D01*
X104349Y382957D01*
X104246Y382909D01*
X104142Y382864D01*
X104036Y382824D01*
X103929Y382787D01*
X103821Y382754D01*
X103711Y382724D01*
X103601Y382699D01*
X103490Y382677D01*
X103378Y382660D01*
X103265Y382646D01*
X103152Y382636D01*
X103039Y382630D01*
X102926Y382628D01*
X99681Y382628D01*
X99538Y382630D01*
X99395Y382636D01*
X99252Y382646D01*
X99110Y382660D01*
X98968Y382677D01*
X98826Y382699D01*
X98685Y382724D01*
X98545Y382754D01*
X98406Y382787D01*
X98268Y382824D01*
X98131Y382865D01*
X97995Y382909D01*
X97860Y382958D01*
X97727Y383010D01*
X97595Y383065D01*
X97465Y383125D01*
X97336Y383188D01*
X97209Y383254D01*
X97085Y383324D01*
X96962Y383397D01*
X96841Y383474D01*
X96722Y383553D01*
X96606Y383637D01*
X96491Y383723D01*
X96380Y383812D01*
X96271Y383905D01*
X96164Y384000D01*
X96060Y384099D01*
X95959Y384200D01*
X95860Y384304D01*
X95765Y384410D01*
X95672Y384520D01*
X95583Y384631D01*
X95497Y384745D01*
X95414Y384862D01*
X95334Y384981D01*
X95257Y385102D01*
X95184Y385224D01*
X95114Y385349D01*
X95048Y385476D01*
X94985Y385605D01*
X94925Y385735D01*
X94870Y385867D01*
X94818Y386000D01*
X94769Y386135D01*
X94725Y386271D01*
X94684Y386408D01*
X94647Y386546D01*
X94614Y386685D01*
X94584Y386825D01*
X94559Y386966D01*
X94537Y387108D01*
X94520Y387250D01*
X94506Y387392D01*
X94496Y387535D01*
X94490Y387678D01*
X94488Y387821D01*
D92*
X119380Y364220D03*
D88*
X108712Y305308D02*
X97028Y305308D01*
X97028Y308554D01*
X97030Y308667D01*
X97036Y308780D01*
X97046Y308893D01*
X97060Y309006D01*
X97077Y309118D01*
X97099Y309229D01*
X97124Y309339D01*
X97154Y309449D01*
X97187Y309557D01*
X97224Y309664D01*
X97264Y309770D01*
X97309Y309874D01*
X97357Y309977D01*
X97408Y310078D01*
X97463Y310177D01*
X97521Y310274D01*
X97583Y310369D01*
X97648Y310462D01*
X97716Y310552D01*
X97787Y310640D01*
X97862Y310726D01*
X97939Y310809D01*
X98019Y310889D01*
X98102Y310966D01*
X98188Y311041D01*
X98276Y311112D01*
X98366Y311180D01*
X98459Y311245D01*
X98554Y311307D01*
X98651Y311365D01*
X98750Y311420D01*
X98851Y311471D01*
X98954Y311519D01*
X99058Y311564D01*
X99164Y311604D01*
X99271Y311641D01*
X99379Y311674D01*
X99489Y311704D01*
X99599Y311729D01*
X99710Y311751D01*
X99822Y311768D01*
X99935Y311782D01*
X100048Y311792D01*
X100161Y311798D01*
X100274Y311800D01*
X100387Y311798D01*
X100500Y311792D01*
X100613Y311782D01*
X100726Y311768D01*
X100838Y311751D01*
X100949Y311729D01*
X101059Y311704D01*
X101169Y311674D01*
X101277Y311641D01*
X101384Y311604D01*
X101490Y311564D01*
X101594Y311519D01*
X101697Y311471D01*
X101798Y311420D01*
X101897Y311365D01*
X101994Y311307D01*
X102089Y311245D01*
X102182Y311180D01*
X102272Y311112D01*
X102360Y311041D01*
X102446Y310966D01*
X102529Y310889D01*
X102609Y310809D01*
X102686Y310726D01*
X102761Y310640D01*
X102832Y310552D01*
X102900Y310462D01*
X102965Y310369D01*
X103027Y310274D01*
X103085Y310177D01*
X103140Y310078D01*
X103191Y309977D01*
X103239Y309874D01*
X103284Y309770D01*
X103324Y309664D01*
X103361Y309557D01*
X103394Y309449D01*
X103424Y309339D01*
X103449Y309229D01*
X103471Y309118D01*
X103488Y309006D01*
X103502Y308893D01*
X103512Y308780D01*
X103518Y308667D01*
X103520Y308554D01*
X103519Y308554D02*
X103519Y305308D01*
X103519Y309203D02*
X108712Y311799D01*
X99624Y316664D02*
X97028Y319910D01*
X108712Y319910D01*
X108712Y323155D02*
X108712Y316664D01*
X102870Y328094D02*
X102640Y328097D01*
X102410Y328105D01*
X102181Y328119D01*
X101952Y328138D01*
X101723Y328163D01*
X101495Y328193D01*
X101268Y328228D01*
X101042Y328269D01*
X100817Y328315D01*
X100593Y328367D01*
X100370Y328424D01*
X100149Y328486D01*
X99929Y328554D01*
X99711Y328627D01*
X99495Y328705D01*
X99281Y328788D01*
X99069Y328876D01*
X98858Y328969D01*
X98651Y329068D01*
X98561Y329101D01*
X98472Y329137D01*
X98384Y329177D01*
X98299Y329221D01*
X98215Y329268D01*
X98133Y329318D01*
X98053Y329372D01*
X97976Y329428D01*
X97900Y329488D01*
X97827Y329551D01*
X97757Y329616D01*
X97689Y329685D01*
X97625Y329756D01*
X97563Y329829D01*
X97504Y329905D01*
X97448Y329983D01*
X97395Y330064D01*
X97346Y330146D01*
X97300Y330230D01*
X97257Y330317D01*
X97218Y330404D01*
X97182Y330494D01*
X97150Y330584D01*
X97122Y330676D01*
X97097Y330769D01*
X97076Y330863D01*
X97059Y330957D01*
X97045Y331052D01*
X97036Y331148D01*
X97030Y331244D01*
X97028Y331340D01*
X97030Y331436D01*
X97036Y331532D01*
X97045Y331628D01*
X97059Y331723D01*
X97076Y331817D01*
X97097Y331911D01*
X97122Y332004D01*
X97150Y332096D01*
X97182Y332186D01*
X97218Y332276D01*
X97257Y332364D01*
X97300Y332450D01*
X97346Y332534D01*
X97395Y332616D01*
X97448Y332697D01*
X97504Y332775D01*
X97563Y332851D01*
X97625Y332924D01*
X97689Y332995D01*
X97757Y333064D01*
X97827Y333129D01*
X97900Y333192D01*
X97976Y333252D01*
X98053Y333308D01*
X98133Y333362D01*
X98215Y333412D01*
X98299Y333459D01*
X98384Y333503D01*
X98472Y333543D01*
X98561Y333579D01*
X98651Y333612D01*
X98858Y333711D01*
X99069Y333804D01*
X99281Y333892D01*
X99495Y333975D01*
X99711Y334053D01*
X99929Y334126D01*
X100149Y334194D01*
X100370Y334256D01*
X100593Y334313D01*
X100817Y334365D01*
X101042Y334411D01*
X101268Y334452D01*
X101495Y334487D01*
X101723Y334517D01*
X101952Y334542D01*
X102181Y334561D01*
X102410Y334575D01*
X102640Y334583D01*
X102870Y334586D01*
X102870Y328094D02*
X103100Y328097D01*
X103330Y328105D01*
X103559Y328119D01*
X103788Y328138D01*
X104017Y328163D01*
X104245Y328193D01*
X104472Y328228D01*
X104698Y328269D01*
X104923Y328315D01*
X105147Y328367D01*
X105370Y328424D01*
X105591Y328486D01*
X105811Y328554D01*
X106029Y328627D01*
X106245Y328705D01*
X106459Y328788D01*
X106671Y328876D01*
X106882Y328969D01*
X107089Y329068D01*
X107179Y329101D01*
X107268Y329137D01*
X107356Y329178D01*
X107441Y329221D01*
X107525Y329268D01*
X107607Y329318D01*
X107687Y329372D01*
X107764Y329428D01*
X107840Y329488D01*
X107913Y329551D01*
X107983Y329616D01*
X108051Y329685D01*
X108115Y329756D01*
X108177Y329829D01*
X108236Y329905D01*
X108292Y329983D01*
X108345Y330064D01*
X108394Y330146D01*
X108440Y330230D01*
X108483Y330317D01*
X108522Y330404D01*
X108558Y330494D01*
X108590Y330584D01*
X108618Y330676D01*
X108643Y330769D01*
X108664Y330863D01*
X108681Y330957D01*
X108695Y331052D01*
X108704Y331148D01*
X108710Y331244D01*
X108712Y331340D01*
X107089Y333612D02*
X106882Y333711D01*
X106671Y333804D01*
X106459Y333892D01*
X106245Y333975D01*
X106029Y334053D01*
X105811Y334126D01*
X105591Y334194D01*
X105370Y334256D01*
X105147Y334313D01*
X104923Y334365D01*
X104698Y334411D01*
X104472Y334452D01*
X104245Y334487D01*
X104017Y334517D01*
X103788Y334542D01*
X103559Y334561D01*
X103330Y334575D01*
X103100Y334583D01*
X102870Y334586D01*
X107089Y333612D02*
X107179Y333579D01*
X107268Y333543D01*
X107356Y333503D01*
X107441Y333459D01*
X107525Y333412D01*
X107607Y333362D01*
X107687Y333308D01*
X107764Y333252D01*
X107840Y333192D01*
X107913Y333129D01*
X107983Y333064D01*
X108051Y332995D01*
X108115Y332924D01*
X108177Y332851D01*
X108236Y332775D01*
X108292Y332697D01*
X108345Y332616D01*
X108394Y332534D01*
X108440Y332450D01*
X108483Y332363D01*
X108522Y332276D01*
X108558Y332186D01*
X108590Y332096D01*
X108618Y332004D01*
X108643Y331911D01*
X108664Y331817D01*
X108681Y331723D01*
X108695Y331628D01*
X108704Y331532D01*
X108710Y331436D01*
X108712Y331340D01*
X106116Y328743D02*
X99624Y333936D01*
D93*
X119365Y319734D03*
X119365Y305002D03*
D88*
X226568Y310388D02*
X226568Y322072D01*
X229814Y322072D01*
X229927Y322070D01*
X230040Y322064D01*
X230153Y322054D01*
X230266Y322040D01*
X230378Y322023D01*
X230489Y322001D01*
X230599Y321976D01*
X230709Y321946D01*
X230817Y321913D01*
X230924Y321876D01*
X231030Y321836D01*
X231134Y321791D01*
X231237Y321743D01*
X231338Y321692D01*
X231437Y321637D01*
X231534Y321579D01*
X231629Y321517D01*
X231722Y321452D01*
X231812Y321384D01*
X231900Y321313D01*
X231986Y321238D01*
X232069Y321161D01*
X232149Y321081D01*
X232226Y320998D01*
X232301Y320912D01*
X232372Y320824D01*
X232440Y320734D01*
X232505Y320641D01*
X232567Y320546D01*
X232625Y320449D01*
X232680Y320350D01*
X232731Y320249D01*
X232779Y320146D01*
X232824Y320042D01*
X232864Y319936D01*
X232901Y319829D01*
X232934Y319721D01*
X232964Y319611D01*
X232989Y319501D01*
X233011Y319390D01*
X233028Y319278D01*
X233042Y319165D01*
X233052Y319052D01*
X233058Y318939D01*
X233060Y318826D01*
X233058Y318713D01*
X233052Y318600D01*
X233042Y318487D01*
X233028Y318374D01*
X233011Y318262D01*
X232989Y318151D01*
X232964Y318041D01*
X232934Y317931D01*
X232901Y317823D01*
X232864Y317716D01*
X232824Y317610D01*
X232779Y317506D01*
X232731Y317403D01*
X232680Y317302D01*
X232625Y317203D01*
X232567Y317106D01*
X232505Y317011D01*
X232440Y316918D01*
X232372Y316828D01*
X232301Y316740D01*
X232226Y316654D01*
X232149Y316571D01*
X232069Y316491D01*
X231986Y316414D01*
X231900Y316339D01*
X231812Y316268D01*
X231722Y316200D01*
X231629Y316135D01*
X231534Y316073D01*
X231437Y316015D01*
X231338Y315960D01*
X231237Y315909D01*
X231134Y315861D01*
X231030Y315816D01*
X230924Y315776D01*
X230817Y315739D01*
X230709Y315706D01*
X230599Y315676D01*
X230489Y315651D01*
X230378Y315629D01*
X230266Y315612D01*
X230153Y315598D01*
X230040Y315588D01*
X229927Y315582D01*
X229814Y315580D01*
X229814Y315581D02*
X226568Y315581D01*
X230463Y315581D02*
X233059Y310388D01*
X237924Y313634D02*
X237926Y313747D01*
X237932Y313860D01*
X237942Y313973D01*
X237956Y314086D01*
X237973Y314198D01*
X237995Y314309D01*
X238020Y314419D01*
X238050Y314529D01*
X238083Y314637D01*
X238120Y314744D01*
X238160Y314850D01*
X238205Y314954D01*
X238253Y315057D01*
X238304Y315158D01*
X238359Y315257D01*
X238417Y315354D01*
X238479Y315449D01*
X238544Y315542D01*
X238612Y315632D01*
X238683Y315720D01*
X238758Y315806D01*
X238835Y315889D01*
X238915Y315969D01*
X238998Y316046D01*
X239084Y316121D01*
X239172Y316192D01*
X239262Y316260D01*
X239355Y316325D01*
X239450Y316387D01*
X239547Y316445D01*
X239646Y316500D01*
X239747Y316551D01*
X239850Y316599D01*
X239954Y316644D01*
X240060Y316684D01*
X240167Y316721D01*
X240275Y316754D01*
X240385Y316784D01*
X240495Y316809D01*
X240606Y316831D01*
X240718Y316848D01*
X240831Y316862D01*
X240944Y316872D01*
X241057Y316878D01*
X241170Y316880D01*
X241283Y316878D01*
X241396Y316872D01*
X241509Y316862D01*
X241622Y316848D01*
X241734Y316831D01*
X241845Y316809D01*
X241955Y316784D01*
X242065Y316754D01*
X242173Y316721D01*
X242280Y316684D01*
X242386Y316644D01*
X242490Y316599D01*
X242593Y316551D01*
X242694Y316500D01*
X242793Y316445D01*
X242890Y316387D01*
X242985Y316325D01*
X243078Y316260D01*
X243168Y316192D01*
X243256Y316121D01*
X243342Y316046D01*
X243425Y315969D01*
X243505Y315889D01*
X243582Y315806D01*
X243657Y315720D01*
X243728Y315632D01*
X243796Y315542D01*
X243861Y315449D01*
X243923Y315354D01*
X243981Y315257D01*
X244036Y315158D01*
X244087Y315057D01*
X244135Y314954D01*
X244180Y314850D01*
X244220Y314744D01*
X244257Y314637D01*
X244290Y314529D01*
X244320Y314419D01*
X244345Y314309D01*
X244367Y314198D01*
X244384Y314086D01*
X244398Y313973D01*
X244408Y313860D01*
X244414Y313747D01*
X244416Y313634D01*
X244414Y313521D01*
X244408Y313408D01*
X244398Y313295D01*
X244384Y313182D01*
X244367Y313070D01*
X244345Y312959D01*
X244320Y312849D01*
X244290Y312739D01*
X244257Y312631D01*
X244220Y312524D01*
X244180Y312418D01*
X244135Y312314D01*
X244087Y312211D01*
X244036Y312110D01*
X243981Y312011D01*
X243923Y311914D01*
X243861Y311819D01*
X243796Y311726D01*
X243728Y311636D01*
X243657Y311548D01*
X243582Y311462D01*
X243505Y311379D01*
X243425Y311299D01*
X243342Y311222D01*
X243256Y311147D01*
X243168Y311076D01*
X243078Y311008D01*
X242985Y310943D01*
X242890Y310881D01*
X242793Y310823D01*
X242694Y310768D01*
X242593Y310717D01*
X242490Y310669D01*
X242386Y310624D01*
X242280Y310584D01*
X242173Y310547D01*
X242065Y310514D01*
X241955Y310484D01*
X241845Y310459D01*
X241734Y310437D01*
X241622Y310420D01*
X241509Y310406D01*
X241396Y310396D01*
X241283Y310390D01*
X241170Y310388D01*
X241057Y310390D01*
X240944Y310396D01*
X240831Y310406D01*
X240718Y310420D01*
X240606Y310437D01*
X240495Y310459D01*
X240385Y310484D01*
X240275Y310514D01*
X240167Y310547D01*
X240060Y310584D01*
X239954Y310624D01*
X239850Y310669D01*
X239747Y310717D01*
X239646Y310768D01*
X239547Y310823D01*
X239450Y310881D01*
X239355Y310943D01*
X239262Y311008D01*
X239172Y311076D01*
X239084Y311147D01*
X238998Y311222D01*
X238915Y311299D01*
X238835Y311379D01*
X238758Y311462D01*
X238683Y311548D01*
X238612Y311636D01*
X238544Y311726D01*
X238479Y311819D01*
X238417Y311914D01*
X238359Y312011D01*
X238304Y312110D01*
X238253Y312211D01*
X238205Y312314D01*
X238160Y312418D01*
X238120Y312524D01*
X238083Y312631D01*
X238050Y312739D01*
X238020Y312849D01*
X237995Y312959D01*
X237973Y313070D01*
X237956Y313182D01*
X237942Y313295D01*
X237932Y313408D01*
X237926Y313521D01*
X237924Y313634D01*
X238574Y319476D02*
X238576Y319577D01*
X238582Y319677D01*
X238592Y319777D01*
X238605Y319877D01*
X238623Y319976D01*
X238644Y320075D01*
X238669Y320172D01*
X238698Y320269D01*
X238731Y320364D01*
X238767Y320458D01*
X238807Y320550D01*
X238850Y320641D01*
X238897Y320730D01*
X238947Y320817D01*
X239001Y320903D01*
X239058Y320986D01*
X239118Y321066D01*
X239181Y321145D01*
X239248Y321221D01*
X239317Y321294D01*
X239389Y321364D01*
X239463Y321432D01*
X239540Y321497D01*
X239620Y321558D01*
X239702Y321617D01*
X239786Y321672D01*
X239872Y321724D01*
X239960Y321773D01*
X240050Y321818D01*
X240142Y321860D01*
X240235Y321898D01*
X240330Y321932D01*
X240425Y321963D01*
X240522Y321990D01*
X240620Y322013D01*
X240719Y322033D01*
X240819Y322048D01*
X240919Y322060D01*
X241019Y322068D01*
X241120Y322072D01*
X241220Y322072D01*
X241321Y322068D01*
X241421Y322060D01*
X241521Y322048D01*
X241621Y322033D01*
X241720Y322013D01*
X241818Y321990D01*
X241915Y321963D01*
X242010Y321932D01*
X242105Y321898D01*
X242198Y321860D01*
X242290Y321818D01*
X242380Y321773D01*
X242468Y321724D01*
X242554Y321672D01*
X242638Y321617D01*
X242720Y321558D01*
X242800Y321497D01*
X242877Y321432D01*
X242951Y321364D01*
X243023Y321294D01*
X243092Y321221D01*
X243159Y321145D01*
X243222Y321066D01*
X243282Y320986D01*
X243339Y320903D01*
X243393Y320817D01*
X243443Y320730D01*
X243490Y320641D01*
X243533Y320550D01*
X243573Y320458D01*
X243609Y320364D01*
X243642Y320269D01*
X243671Y320172D01*
X243696Y320075D01*
X243717Y319976D01*
X243735Y319877D01*
X243748Y319777D01*
X243758Y319677D01*
X243764Y319577D01*
X243766Y319476D01*
X243764Y319375D01*
X243758Y319275D01*
X243748Y319175D01*
X243735Y319075D01*
X243717Y318976D01*
X243696Y318877D01*
X243671Y318780D01*
X243642Y318683D01*
X243609Y318588D01*
X243573Y318494D01*
X243533Y318402D01*
X243490Y318311D01*
X243443Y318222D01*
X243393Y318135D01*
X243339Y318049D01*
X243282Y317966D01*
X243222Y317886D01*
X243159Y317807D01*
X243092Y317731D01*
X243023Y317658D01*
X242951Y317588D01*
X242877Y317520D01*
X242800Y317455D01*
X242720Y317394D01*
X242638Y317335D01*
X242554Y317280D01*
X242468Y317228D01*
X242380Y317179D01*
X242290Y317134D01*
X242198Y317092D01*
X242105Y317054D01*
X242010Y317020D01*
X241915Y316989D01*
X241818Y316962D01*
X241720Y316939D01*
X241621Y316919D01*
X241521Y316904D01*
X241421Y316892D01*
X241321Y316884D01*
X241220Y316880D01*
X241120Y316880D01*
X241019Y316884D01*
X240919Y316892D01*
X240819Y316904D01*
X240719Y316919D01*
X240620Y316939D01*
X240522Y316962D01*
X240425Y316989D01*
X240330Y317020D01*
X240235Y317054D01*
X240142Y317092D01*
X240050Y317134D01*
X239960Y317179D01*
X239872Y317228D01*
X239786Y317280D01*
X239702Y317335D01*
X239620Y317394D01*
X239540Y317455D01*
X239463Y317520D01*
X239389Y317588D01*
X239317Y317658D01*
X239248Y317731D01*
X239181Y317807D01*
X239118Y317886D01*
X239058Y317966D01*
X239001Y318049D01*
X238947Y318135D01*
X238897Y318222D01*
X238850Y318311D01*
X238807Y318402D01*
X238767Y318494D01*
X238731Y318588D01*
X238698Y318683D01*
X238669Y318780D01*
X238644Y318877D01*
X238623Y318976D01*
X238605Y319075D01*
X238592Y319175D01*
X238582Y319275D01*
X238576Y319375D01*
X238574Y319476D01*
D94*
X240994Y299735D03*
X226262Y299735D03*
D88*
X179832Y301685D02*
X168148Y301685D01*
X168148Y304930D01*
X168150Y305043D01*
X168156Y305156D01*
X168166Y305269D01*
X168180Y305382D01*
X168197Y305494D01*
X168219Y305605D01*
X168244Y305715D01*
X168274Y305825D01*
X168307Y305933D01*
X168344Y306040D01*
X168384Y306146D01*
X168429Y306250D01*
X168477Y306353D01*
X168528Y306454D01*
X168583Y306553D01*
X168641Y306650D01*
X168703Y306745D01*
X168768Y306838D01*
X168836Y306928D01*
X168907Y307016D01*
X168982Y307102D01*
X169059Y307185D01*
X169139Y307265D01*
X169222Y307342D01*
X169308Y307417D01*
X169396Y307488D01*
X169486Y307556D01*
X169579Y307621D01*
X169674Y307683D01*
X169771Y307741D01*
X169870Y307796D01*
X169971Y307847D01*
X170074Y307895D01*
X170178Y307940D01*
X170284Y307980D01*
X170391Y308017D01*
X170499Y308050D01*
X170609Y308080D01*
X170719Y308105D01*
X170830Y308127D01*
X170942Y308144D01*
X171055Y308158D01*
X171168Y308168D01*
X171281Y308174D01*
X171394Y308176D01*
X171507Y308174D01*
X171620Y308168D01*
X171733Y308158D01*
X171846Y308144D01*
X171958Y308127D01*
X172069Y308105D01*
X172179Y308080D01*
X172289Y308050D01*
X172397Y308017D01*
X172504Y307980D01*
X172610Y307940D01*
X172714Y307895D01*
X172817Y307847D01*
X172918Y307796D01*
X173017Y307741D01*
X173114Y307683D01*
X173209Y307621D01*
X173302Y307556D01*
X173392Y307488D01*
X173480Y307417D01*
X173566Y307342D01*
X173649Y307265D01*
X173729Y307185D01*
X173806Y307102D01*
X173881Y307016D01*
X173952Y306928D01*
X174020Y306838D01*
X174085Y306745D01*
X174147Y306650D01*
X174205Y306553D01*
X174260Y306454D01*
X174311Y306353D01*
X174359Y306250D01*
X174404Y306146D01*
X174444Y306040D01*
X174481Y305933D01*
X174514Y305825D01*
X174544Y305715D01*
X174569Y305605D01*
X174591Y305494D01*
X174608Y305382D01*
X174622Y305269D01*
X174632Y305156D01*
X174638Y305043D01*
X174640Y304930D01*
X174639Y304930D02*
X174639Y301685D01*
X174639Y305579D02*
X179832Y308176D01*
X174639Y315637D02*
X174639Y319532D01*
X174639Y315637D02*
X174637Y315538D01*
X174631Y315438D01*
X174622Y315339D01*
X174609Y315241D01*
X174592Y315143D01*
X174571Y315045D01*
X174546Y314949D01*
X174518Y314854D01*
X174486Y314760D01*
X174451Y314667D01*
X174412Y314575D01*
X174369Y314485D01*
X174324Y314397D01*
X174274Y314310D01*
X174222Y314226D01*
X174166Y314143D01*
X174108Y314063D01*
X174046Y313985D01*
X173981Y313910D01*
X173913Y313837D01*
X173843Y313767D01*
X173770Y313699D01*
X173695Y313634D01*
X173617Y313572D01*
X173537Y313514D01*
X173454Y313458D01*
X173370Y313406D01*
X173283Y313356D01*
X173195Y313311D01*
X173105Y313268D01*
X173013Y313229D01*
X172920Y313194D01*
X172826Y313162D01*
X172731Y313134D01*
X172635Y313109D01*
X172537Y313088D01*
X172439Y313071D01*
X172341Y313058D01*
X172242Y313049D01*
X172142Y313043D01*
X172043Y313041D01*
X171394Y313041D01*
X171394Y313040D02*
X171281Y313042D01*
X171168Y313048D01*
X171055Y313058D01*
X170942Y313072D01*
X170830Y313089D01*
X170719Y313111D01*
X170609Y313136D01*
X170499Y313166D01*
X170391Y313199D01*
X170284Y313236D01*
X170178Y313276D01*
X170074Y313321D01*
X169971Y313369D01*
X169870Y313420D01*
X169771Y313475D01*
X169674Y313533D01*
X169579Y313595D01*
X169486Y313660D01*
X169396Y313728D01*
X169308Y313799D01*
X169222Y313874D01*
X169139Y313951D01*
X169059Y314031D01*
X168982Y314114D01*
X168907Y314200D01*
X168836Y314288D01*
X168768Y314378D01*
X168703Y314471D01*
X168641Y314566D01*
X168583Y314663D01*
X168528Y314762D01*
X168477Y314863D01*
X168429Y314966D01*
X168384Y315070D01*
X168344Y315176D01*
X168307Y315283D01*
X168274Y315391D01*
X168244Y315501D01*
X168219Y315611D01*
X168197Y315722D01*
X168180Y315834D01*
X168166Y315947D01*
X168156Y316060D01*
X168150Y316173D01*
X168148Y316286D01*
X168150Y316399D01*
X168156Y316512D01*
X168166Y316625D01*
X168180Y316738D01*
X168197Y316850D01*
X168219Y316961D01*
X168244Y317071D01*
X168274Y317181D01*
X168307Y317289D01*
X168344Y317396D01*
X168384Y317502D01*
X168429Y317606D01*
X168477Y317709D01*
X168528Y317810D01*
X168583Y317909D01*
X168641Y318006D01*
X168703Y318101D01*
X168768Y318194D01*
X168836Y318284D01*
X168907Y318372D01*
X168982Y318458D01*
X169059Y318541D01*
X169139Y318621D01*
X169222Y318698D01*
X169308Y318773D01*
X169396Y318844D01*
X169486Y318912D01*
X169579Y318977D01*
X169674Y319039D01*
X169771Y319097D01*
X169870Y319152D01*
X169971Y319203D01*
X170074Y319251D01*
X170178Y319296D01*
X170284Y319336D01*
X170391Y319373D01*
X170499Y319406D01*
X170609Y319436D01*
X170719Y319461D01*
X170830Y319483D01*
X170942Y319500D01*
X171055Y319514D01*
X171168Y319524D01*
X171281Y319530D01*
X171394Y319532D01*
X174639Y319532D01*
X174782Y319530D01*
X174925Y319524D01*
X175068Y319514D01*
X175210Y319500D01*
X175352Y319483D01*
X175494Y319461D01*
X175635Y319436D01*
X175775Y319406D01*
X175914Y319373D01*
X176052Y319336D01*
X176189Y319295D01*
X176325Y319251D01*
X176460Y319202D01*
X176593Y319150D01*
X176725Y319095D01*
X176855Y319035D01*
X176984Y318972D01*
X177111Y318906D01*
X177236Y318836D01*
X177358Y318763D01*
X177479Y318686D01*
X177598Y318606D01*
X177714Y318523D01*
X177829Y318437D01*
X177940Y318348D01*
X178050Y318255D01*
X178156Y318160D01*
X178260Y318061D01*
X178361Y317960D01*
X178460Y317856D01*
X178555Y317750D01*
X178648Y317640D01*
X178737Y317529D01*
X178823Y317414D01*
X178906Y317298D01*
X178986Y317179D01*
X179063Y317058D01*
X179136Y316936D01*
X179206Y316811D01*
X179272Y316684D01*
X179335Y316555D01*
X179395Y316425D01*
X179450Y316293D01*
X179502Y316160D01*
X179551Y316025D01*
X179595Y315889D01*
X179636Y315752D01*
X179673Y315614D01*
X179706Y315475D01*
X179736Y315335D01*
X179761Y315194D01*
X179783Y315052D01*
X179800Y314910D01*
X179814Y314768D01*
X179824Y314625D01*
X179830Y314482D01*
X179832Y314339D01*
D93*
X157495Y305106D03*
X157495Y319838D03*
D95*
X170180Y253246D02*
X173716Y249711D01*
X170180Y253246D02*
X166644Y249711D01*
X127754Y210820D02*
X131289Y207284D01*
X127754Y210820D02*
X131289Y214356D01*
X173716Y171929D02*
X170180Y168394D01*
X166644Y171929D01*
D91*
X209071Y207284D02*
X209778Y207992D01*
X209778Y213648D01*
X209071Y214356D01*
X210192Y219305D02*
X210194Y219368D01*
X210200Y219430D01*
X210210Y219492D01*
X210223Y219554D01*
X210241Y219614D01*
X210262Y219673D01*
X210287Y219731D01*
X210316Y219787D01*
X210348Y219841D01*
X210383Y219893D01*
X210421Y219942D01*
X210463Y219990D01*
X210507Y220034D01*
X210555Y220076D01*
X210604Y220114D01*
X210656Y220149D01*
X210710Y220181D01*
X210766Y220210D01*
X210824Y220235D01*
X210883Y220256D01*
X210943Y220274D01*
X211005Y220287D01*
X211067Y220297D01*
X211129Y220303D01*
X211192Y220305D01*
X211255Y220303D01*
X211317Y220297D01*
X211379Y220287D01*
X211441Y220274D01*
X211501Y220256D01*
X211560Y220235D01*
X211618Y220210D01*
X211674Y220181D01*
X211728Y220149D01*
X211780Y220114D01*
X211829Y220076D01*
X211877Y220034D01*
X211921Y219990D01*
X211963Y219942D01*
X212001Y219893D01*
X212036Y219841D01*
X212068Y219787D01*
X212097Y219731D01*
X212122Y219673D01*
X212143Y219614D01*
X212161Y219554D01*
X212174Y219492D01*
X212184Y219430D01*
X212190Y219368D01*
X212192Y219305D01*
X212190Y219242D01*
X212184Y219180D01*
X212174Y219118D01*
X212161Y219056D01*
X212143Y218996D01*
X212122Y218937D01*
X212097Y218879D01*
X212068Y218823D01*
X212036Y218769D01*
X212001Y218717D01*
X211963Y218668D01*
X211921Y218620D01*
X211877Y218576D01*
X211829Y218534D01*
X211780Y218496D01*
X211728Y218461D01*
X211674Y218429D01*
X211618Y218400D01*
X211560Y218375D01*
X211501Y218354D01*
X211441Y218336D01*
X211379Y218323D01*
X211317Y218313D01*
X211255Y218307D01*
X211192Y218305D01*
X211129Y218307D01*
X211067Y218313D01*
X211005Y218323D01*
X210943Y218336D01*
X210883Y218354D01*
X210824Y218375D01*
X210766Y218400D01*
X210710Y218429D01*
X210656Y218461D01*
X210604Y218496D01*
X210555Y218534D01*
X210507Y218576D01*
X210463Y218620D01*
X210421Y218668D01*
X210383Y218717D01*
X210348Y218769D01*
X210316Y218823D01*
X210287Y218879D01*
X210262Y218937D01*
X210241Y218996D01*
X210223Y219056D01*
X210210Y219118D01*
X210200Y219180D01*
X210194Y219242D01*
X210192Y219305D01*
X98540Y382550D02*
X33540Y382550D01*
X33540Y417550D01*
X98540Y417550D01*
X98540Y382550D01*
X111964Y410603D02*
X122916Y410603D01*
X123044Y410605D01*
X123173Y410611D01*
X123301Y410621D01*
X123429Y410634D01*
X123556Y410652D01*
X123683Y410673D01*
X123808Y410699D01*
X123934Y410728D01*
X124058Y410761D01*
X124181Y410797D01*
X124303Y410838D01*
X124423Y410882D01*
X124543Y410930D01*
X124660Y410981D01*
X124777Y411036D01*
X124891Y411095D01*
X125003Y411157D01*
X125114Y411222D01*
X125223Y411291D01*
X125329Y411363D01*
X125433Y411438D01*
X125535Y411516D01*
X125634Y411598D01*
X125731Y411682D01*
X125825Y411769D01*
X125917Y411859D01*
X126006Y411952D01*
X126092Y412048D01*
X126174Y412146D01*
X126254Y412247D01*
X126331Y412350D01*
X126405Y412455D01*
X126475Y412562D01*
X126542Y412672D01*
X126606Y412784D01*
X126666Y412897D01*
X126723Y413012D01*
X126776Y413129D01*
X126826Y413248D01*
X126872Y413368D01*
X126914Y413489D01*
X126952Y413612D01*
X126987Y413735D01*
X127018Y413860D01*
X127045Y413985D01*
X127069Y414112D01*
X127088Y414239D01*
X127104Y414366D01*
X127116Y414494D01*
X127124Y414622D01*
X127128Y414751D01*
X127128Y414879D01*
X127124Y415008D01*
X127116Y415136D01*
X127104Y415264D01*
X127088Y415391D01*
X127069Y415518D01*
X127045Y415645D01*
X127018Y415770D01*
X126987Y415895D01*
X126952Y416018D01*
X126914Y416141D01*
X126872Y416262D01*
X126826Y416382D01*
X126776Y416501D01*
X126723Y416618D01*
X126666Y416733D01*
X126606Y416846D01*
X126542Y416958D01*
X126475Y417068D01*
X126405Y417175D01*
X126331Y417280D01*
X126254Y417383D01*
X126174Y417484D01*
X126092Y417582D01*
X126006Y417678D01*
X125917Y417771D01*
X125825Y417861D01*
X125731Y417948D01*
X125634Y418032D01*
X125535Y418114D01*
X125433Y418192D01*
X125329Y418267D01*
X125223Y418339D01*
X125114Y418408D01*
X125003Y418473D01*
X124891Y418535D01*
X124777Y418594D01*
X124660Y418649D01*
X124543Y418700D01*
X124423Y418748D01*
X124303Y418792D01*
X124181Y418833D01*
X124058Y418869D01*
X123934Y418902D01*
X123808Y418931D01*
X123683Y418957D01*
X123556Y418978D01*
X123429Y418996D01*
X123301Y419009D01*
X123173Y419019D01*
X123044Y419025D01*
X122916Y419027D01*
X111964Y419027D01*
X127128Y425704D02*
X127128Y429916D01*
X127126Y430044D01*
X127120Y430173D01*
X127110Y430301D01*
X127097Y430429D01*
X127079Y430556D01*
X127058Y430683D01*
X127032Y430808D01*
X127003Y430934D01*
X126970Y431058D01*
X126934Y431181D01*
X126893Y431303D01*
X126849Y431423D01*
X126801Y431543D01*
X126750Y431660D01*
X126695Y431777D01*
X126636Y431891D01*
X126574Y432003D01*
X126509Y432114D01*
X126440Y432223D01*
X126368Y432329D01*
X126293Y432433D01*
X126215Y432535D01*
X126133Y432634D01*
X126049Y432731D01*
X125962Y432825D01*
X125872Y432917D01*
X125779Y433006D01*
X125683Y433092D01*
X125585Y433174D01*
X125484Y433254D01*
X125381Y433331D01*
X125276Y433405D01*
X125169Y433475D01*
X125059Y433542D01*
X124947Y433606D01*
X124834Y433666D01*
X124719Y433723D01*
X124602Y433776D01*
X124483Y433826D01*
X124363Y433872D01*
X124242Y433914D01*
X124119Y433952D01*
X123996Y433987D01*
X123871Y434018D01*
X123746Y434045D01*
X123619Y434069D01*
X123492Y434088D01*
X123365Y434104D01*
X123237Y434116D01*
X123109Y434124D01*
X122980Y434128D01*
X122852Y434128D01*
X122723Y434124D01*
X122595Y434116D01*
X122467Y434104D01*
X122340Y434088D01*
X122213Y434069D01*
X122086Y434045D01*
X121961Y434018D01*
X121836Y433987D01*
X121713Y433952D01*
X121590Y433914D01*
X121469Y433872D01*
X121349Y433826D01*
X121230Y433776D01*
X121113Y433723D01*
X120998Y433666D01*
X120885Y433606D01*
X120773Y433542D01*
X120663Y433475D01*
X120556Y433405D01*
X120451Y433331D01*
X120348Y433254D01*
X120247Y433174D01*
X120149Y433092D01*
X120053Y433006D01*
X119960Y432917D01*
X119870Y432825D01*
X119783Y432731D01*
X119699Y432634D01*
X119617Y432535D01*
X119539Y432433D01*
X119464Y432329D01*
X119392Y432223D01*
X119323Y432114D01*
X119258Y432003D01*
X119196Y431891D01*
X119137Y431777D01*
X119082Y431660D01*
X119031Y431543D01*
X118983Y431423D01*
X118939Y431303D01*
X118898Y431181D01*
X118862Y431058D01*
X118829Y430934D01*
X118800Y430808D01*
X118774Y430683D01*
X118753Y430556D01*
X118735Y430429D01*
X118722Y430301D01*
X118712Y430173D01*
X118706Y430044D01*
X118704Y429916D01*
X111964Y430758D02*
X111964Y425704D01*
X111964Y430758D02*
X111966Y430873D01*
X111972Y430988D01*
X111982Y431103D01*
X111995Y431217D01*
X112013Y431331D01*
X112034Y431444D01*
X112060Y431556D01*
X112089Y431667D01*
X112122Y431777D01*
X112159Y431887D01*
X112199Y431994D01*
X112243Y432101D01*
X112291Y432205D01*
X112342Y432308D01*
X112397Y432410D01*
X112455Y432509D01*
X112516Y432606D01*
X112581Y432701D01*
X112649Y432794D01*
X112720Y432885D01*
X112794Y432973D01*
X112871Y433058D01*
X112951Y433141D01*
X113034Y433221D01*
X113119Y433298D01*
X113207Y433372D01*
X113298Y433443D01*
X113391Y433511D01*
X113486Y433576D01*
X113583Y433637D01*
X113682Y433695D01*
X113784Y433750D01*
X113887Y433801D01*
X113991Y433849D01*
X114098Y433893D01*
X114205Y433933D01*
X114315Y433970D01*
X114425Y434003D01*
X114536Y434032D01*
X114648Y434058D01*
X114761Y434079D01*
X114875Y434097D01*
X114989Y434110D01*
X115104Y434120D01*
X115219Y434126D01*
X115334Y434128D01*
X115449Y434126D01*
X115564Y434120D01*
X115679Y434110D01*
X115793Y434097D01*
X115907Y434079D01*
X116020Y434058D01*
X116132Y434032D01*
X116243Y434003D01*
X116353Y433970D01*
X116463Y433933D01*
X116570Y433893D01*
X116677Y433849D01*
X116781Y433801D01*
X116884Y433750D01*
X116986Y433695D01*
X117085Y433637D01*
X117182Y433576D01*
X117277Y433511D01*
X117370Y433443D01*
X117461Y433372D01*
X117549Y433298D01*
X117634Y433221D01*
X117717Y433141D01*
X117797Y433058D01*
X117874Y432973D01*
X117948Y432885D01*
X118019Y432794D01*
X118087Y432701D01*
X118152Y432606D01*
X118213Y432509D01*
X118271Y432410D01*
X118326Y432308D01*
X118377Y432205D01*
X118425Y432101D01*
X118469Y431994D01*
X118509Y431887D01*
X118546Y431777D01*
X118579Y431667D01*
X118608Y431556D01*
X118634Y431444D01*
X118655Y431331D01*
X118673Y431217D01*
X118686Y431103D01*
X118696Y430988D01*
X118702Y430873D01*
X118704Y430758D01*
X118704Y427389D01*
D96*
X100040Y437550D02*
X100042Y437613D01*
X100048Y437675D01*
X100058Y437737D01*
X100071Y437799D01*
X100089Y437859D01*
X100110Y437918D01*
X100135Y437976D01*
X100164Y438032D01*
X100196Y438086D01*
X100231Y438138D01*
X100269Y438187D01*
X100311Y438235D01*
X100355Y438279D01*
X100403Y438321D01*
X100452Y438359D01*
X100504Y438394D01*
X100558Y438426D01*
X100614Y438455D01*
X100672Y438480D01*
X100731Y438501D01*
X100791Y438519D01*
X100853Y438532D01*
X100915Y438542D01*
X100977Y438548D01*
X101040Y438550D01*
X101103Y438548D01*
X101165Y438542D01*
X101227Y438532D01*
X101289Y438519D01*
X101349Y438501D01*
X101408Y438480D01*
X101466Y438455D01*
X101522Y438426D01*
X101576Y438394D01*
X101628Y438359D01*
X101677Y438321D01*
X101725Y438279D01*
X101769Y438235D01*
X101811Y438187D01*
X101849Y438138D01*
X101884Y438086D01*
X101916Y438032D01*
X101945Y437976D01*
X101970Y437918D01*
X101991Y437859D01*
X102009Y437799D01*
X102022Y437737D01*
X102032Y437675D01*
X102038Y437613D01*
X102040Y437550D01*
X102038Y437487D01*
X102032Y437425D01*
X102022Y437363D01*
X102009Y437301D01*
X101991Y437241D01*
X101970Y437182D01*
X101945Y437124D01*
X101916Y437068D01*
X101884Y437014D01*
X101849Y436962D01*
X101811Y436913D01*
X101769Y436865D01*
X101725Y436821D01*
X101677Y436779D01*
X101628Y436741D01*
X101576Y436706D01*
X101522Y436674D01*
X101466Y436645D01*
X101408Y436620D01*
X101349Y436599D01*
X101289Y436581D01*
X101227Y436568D01*
X101165Y436558D01*
X101103Y436552D01*
X101040Y436550D01*
X100977Y436552D01*
X100915Y436558D01*
X100853Y436568D01*
X100791Y436581D01*
X100731Y436599D01*
X100672Y436620D01*
X100614Y436645D01*
X100558Y436674D01*
X100504Y436706D01*
X100452Y436741D01*
X100403Y436779D01*
X100355Y436821D01*
X100311Y436865D01*
X100269Y436913D01*
X100231Y436962D01*
X100196Y437014D01*
X100164Y437068D01*
X100135Y437124D01*
X100110Y437182D01*
X100089Y437241D01*
X100071Y437301D01*
X100058Y437363D01*
X100048Y437425D01*
X100042Y437487D01*
X100040Y437550D01*
D90*
X98180Y264760D02*
X98180Y252760D01*
X98180Y264760D02*
X84180Y264760D01*
X98180Y224668D02*
X98180Y212760D01*
X84180Y212760D01*
X46180Y259700D02*
X46180Y264760D01*
X53180Y264760D01*
X46180Y217760D02*
X46180Y212760D01*
X53180Y212760D01*
D91*
X63136Y267335D02*
X61528Y272161D01*
X64745Y272161D02*
X63136Y267335D01*
X67529Y267335D02*
X67529Y272161D01*
X68869Y272161D01*
X68940Y272159D01*
X69012Y272153D01*
X69082Y272144D01*
X69152Y272131D01*
X69222Y272114D01*
X69290Y272093D01*
X69357Y272069D01*
X69423Y272041D01*
X69487Y272010D01*
X69550Y271975D01*
X69610Y271937D01*
X69669Y271896D01*
X69725Y271852D01*
X69779Y271805D01*
X69830Y271756D01*
X69878Y271703D01*
X69924Y271648D01*
X69966Y271591D01*
X70006Y271531D01*
X70042Y271470D01*
X70075Y271406D01*
X70104Y271341D01*
X70130Y271275D01*
X70153Y271207D01*
X70172Y271138D01*
X70187Y271068D01*
X70198Y270998D01*
X70206Y270927D01*
X70210Y270856D01*
X70210Y270784D01*
X70206Y270713D01*
X70198Y270642D01*
X70187Y270572D01*
X70172Y270502D01*
X70153Y270433D01*
X70130Y270365D01*
X70104Y270299D01*
X70075Y270234D01*
X70042Y270170D01*
X70006Y270109D01*
X69966Y270049D01*
X69924Y269992D01*
X69878Y269937D01*
X69830Y269884D01*
X69779Y269835D01*
X69725Y269788D01*
X69669Y269744D01*
X69610Y269703D01*
X69550Y269665D01*
X69487Y269630D01*
X69423Y269599D01*
X69357Y269571D01*
X69290Y269547D01*
X69222Y269526D01*
X69152Y269509D01*
X69082Y269496D01*
X69012Y269487D01*
X68940Y269481D01*
X68869Y269479D01*
X68869Y269480D02*
X67529Y269480D01*
X69137Y269480D02*
X70210Y267335D01*
X72951Y271089D02*
X74292Y272161D01*
X74292Y267335D01*
X75632Y267335D02*
X72951Y267335D01*
D90*
X98180Y206340D02*
X98180Y194340D01*
X98180Y206340D02*
X84180Y206340D01*
X98180Y166248D02*
X98180Y154340D01*
X84180Y154340D01*
X46180Y201280D02*
X46180Y206340D01*
X53180Y206340D01*
X46180Y159340D02*
X46180Y154340D01*
X53180Y154340D01*
D91*
X63136Y208915D02*
X61528Y213741D01*
X64745Y213741D02*
X63136Y208915D01*
X67529Y208915D02*
X67529Y213741D01*
X68869Y213741D01*
X68940Y213739D01*
X69012Y213733D01*
X69082Y213724D01*
X69152Y213711D01*
X69222Y213694D01*
X69290Y213673D01*
X69357Y213649D01*
X69423Y213621D01*
X69487Y213590D01*
X69550Y213555D01*
X69610Y213517D01*
X69669Y213476D01*
X69725Y213432D01*
X69779Y213385D01*
X69830Y213336D01*
X69878Y213283D01*
X69924Y213228D01*
X69966Y213171D01*
X70006Y213111D01*
X70042Y213050D01*
X70075Y212986D01*
X70104Y212921D01*
X70130Y212855D01*
X70153Y212787D01*
X70172Y212718D01*
X70187Y212648D01*
X70198Y212578D01*
X70206Y212507D01*
X70210Y212436D01*
X70210Y212364D01*
X70206Y212293D01*
X70198Y212222D01*
X70187Y212152D01*
X70172Y212082D01*
X70153Y212013D01*
X70130Y211945D01*
X70104Y211879D01*
X70075Y211814D01*
X70042Y211750D01*
X70006Y211689D01*
X69966Y211629D01*
X69924Y211572D01*
X69878Y211517D01*
X69830Y211464D01*
X69779Y211415D01*
X69725Y211368D01*
X69669Y211324D01*
X69610Y211283D01*
X69550Y211245D01*
X69487Y211210D01*
X69423Y211179D01*
X69357Y211151D01*
X69290Y211127D01*
X69222Y211106D01*
X69152Y211089D01*
X69082Y211076D01*
X69012Y211067D01*
X68940Y211061D01*
X68869Y211059D01*
X68869Y211060D02*
X67529Y211060D01*
X69137Y211060D02*
X70210Y208915D01*
X74426Y213741D02*
X74494Y213739D01*
X74561Y213733D01*
X74628Y213724D01*
X74695Y213711D01*
X74760Y213694D01*
X74825Y213673D01*
X74888Y213649D01*
X74950Y213621D01*
X75010Y213590D01*
X75068Y213556D01*
X75124Y213518D01*
X75179Y213478D01*
X75230Y213434D01*
X75279Y213387D01*
X75326Y213338D01*
X75370Y213287D01*
X75410Y213232D01*
X75448Y213176D01*
X75482Y213118D01*
X75513Y213058D01*
X75541Y212996D01*
X75565Y212933D01*
X75586Y212868D01*
X75603Y212803D01*
X75616Y212736D01*
X75625Y212669D01*
X75631Y212602D01*
X75633Y212534D01*
X74426Y213741D02*
X74348Y213739D01*
X74270Y213733D01*
X74193Y213723D01*
X74116Y213710D01*
X74040Y213692D01*
X73965Y213671D01*
X73891Y213646D01*
X73819Y213617D01*
X73748Y213585D01*
X73679Y213549D01*
X73611Y213510D01*
X73546Y213467D01*
X73483Y213421D01*
X73422Y213372D01*
X73364Y213320D01*
X73309Y213265D01*
X73256Y213208D01*
X73207Y213148D01*
X73160Y213085D01*
X73117Y213021D01*
X73077Y212954D01*
X73040Y212885D01*
X73007Y212814D01*
X72977Y212742D01*
X72951Y212669D01*
X75231Y211596D02*
X75280Y211645D01*
X75327Y211697D01*
X75370Y211752D01*
X75411Y211809D01*
X75449Y211868D01*
X75483Y211929D01*
X75514Y211992D01*
X75542Y212056D01*
X75566Y212122D01*
X75586Y212188D01*
X75603Y212256D01*
X75616Y212325D01*
X75625Y212394D01*
X75631Y212464D01*
X75633Y212534D01*
X75230Y211596D02*
X72951Y208915D01*
X75632Y208915D01*
D90*
X242044Y173062D02*
X245243Y173018D01*
X245288Y176217D01*
X225316Y192698D02*
X222117Y192742D01*
X222072Y189543D01*
X245470Y189216D02*
X245514Y192416D01*
X242315Y192460D01*
X221890Y176544D02*
X221846Y173344D01*
X225045Y173300D01*
X231916Y192606D02*
X235715Y192553D01*
X235444Y173154D02*
X231645Y173207D01*
D91*
X229300Y171305D02*
X230877Y169004D01*
X232517Y171260D01*
X230877Y169004D02*
X230841Y166457D01*
X236528Y171205D02*
X236596Y171202D01*
X236663Y171195D01*
X236730Y171185D01*
X236796Y171171D01*
X236861Y171153D01*
X236926Y171132D01*
X236988Y171107D01*
X237050Y171078D01*
X237110Y171046D01*
X237167Y171011D01*
X237223Y170973D01*
X237277Y170931D01*
X237328Y170887D01*
X237376Y170839D01*
X237422Y170790D01*
X237465Y170737D01*
X237505Y170683D01*
X237542Y170626D01*
X237575Y170567D01*
X237606Y170506D01*
X237632Y170444D01*
X237656Y170381D01*
X237675Y170316D01*
X237691Y170250D01*
X237704Y170184D01*
X237712Y170116D01*
X237717Y170049D01*
X237718Y169981D01*
X236529Y171204D02*
X236451Y171203D01*
X236373Y171198D01*
X236295Y171190D01*
X236219Y171177D01*
X236142Y171160D01*
X236067Y171140D01*
X235993Y171116D01*
X235920Y171089D01*
X235849Y171057D01*
X235779Y171022D01*
X235711Y170984D01*
X235645Y170942D01*
X235581Y170897D01*
X235520Y170849D01*
X235461Y170798D01*
X235405Y170744D01*
X235352Y170687D01*
X235301Y170628D01*
X235254Y170566D01*
X235209Y170502D01*
X235168Y170435D01*
X235131Y170367D01*
X235097Y170297D01*
X235066Y170225D01*
X235039Y170152D01*
X237303Y169048D02*
X237353Y169097D01*
X237400Y169149D01*
X237444Y169203D01*
X237486Y169259D01*
X237524Y169317D01*
X237559Y169378D01*
X237591Y169440D01*
X237620Y169504D01*
X237645Y169569D01*
X237666Y169636D01*
X237684Y169704D01*
X237698Y169772D01*
X237708Y169841D01*
X237715Y169911D01*
X237718Y169981D01*
X237303Y169048D02*
X234987Y166399D01*
X237667Y166362D01*
D90*
X253520Y351000D02*
X193520Y351000D01*
X253520Y351000D02*
X253520Y411000D01*
X193520Y411000D01*
X193520Y351000D01*
X206020Y381000D02*
X206025Y381429D01*
X206041Y381859D01*
X206067Y382287D01*
X206104Y382715D01*
X206152Y383142D01*
X206209Y383568D01*
X206278Y383992D01*
X206356Y384414D01*
X206445Y384834D01*
X206544Y385252D01*
X206654Y385667D01*
X206774Y386080D01*
X206903Y386489D01*
X207043Y386896D01*
X207193Y387298D01*
X207352Y387697D01*
X207521Y388092D01*
X207700Y388482D01*
X207889Y388868D01*
X208086Y389249D01*
X208293Y389626D01*
X208510Y389997D01*
X208735Y390362D01*
X208969Y390722D01*
X209212Y391077D01*
X209464Y391425D01*
X209724Y391767D01*
X209992Y392102D01*
X210269Y392431D01*
X210553Y392752D01*
X210846Y393067D01*
X211146Y393374D01*
X211453Y393674D01*
X211768Y393967D01*
X212089Y394251D01*
X212418Y394528D01*
X212753Y394796D01*
X213095Y395056D01*
X213443Y395308D01*
X213798Y395551D01*
X214158Y395785D01*
X214523Y396010D01*
X214894Y396227D01*
X215271Y396434D01*
X215652Y396631D01*
X216038Y396820D01*
X216428Y396999D01*
X216823Y397168D01*
X217222Y397327D01*
X217624Y397477D01*
X218031Y397617D01*
X218440Y397746D01*
X218853Y397866D01*
X219268Y397976D01*
X219686Y398075D01*
X220106Y398164D01*
X220528Y398242D01*
X220952Y398311D01*
X221378Y398368D01*
X221805Y398416D01*
X222233Y398453D01*
X222661Y398479D01*
X223091Y398495D01*
X223520Y398500D01*
X223949Y398495D01*
X224379Y398479D01*
X224807Y398453D01*
X225235Y398416D01*
X225662Y398368D01*
X226088Y398311D01*
X226512Y398242D01*
X226934Y398164D01*
X227354Y398075D01*
X227772Y397976D01*
X228187Y397866D01*
X228600Y397746D01*
X229009Y397617D01*
X229416Y397477D01*
X229818Y397327D01*
X230217Y397168D01*
X230612Y396999D01*
X231002Y396820D01*
X231388Y396631D01*
X231769Y396434D01*
X232146Y396227D01*
X232517Y396010D01*
X232882Y395785D01*
X233242Y395551D01*
X233597Y395308D01*
X233945Y395056D01*
X234287Y394796D01*
X234622Y394528D01*
X234951Y394251D01*
X235272Y393967D01*
X235587Y393674D01*
X235894Y393374D01*
X236194Y393067D01*
X236487Y392752D01*
X236771Y392431D01*
X237048Y392102D01*
X237316Y391767D01*
X237576Y391425D01*
X237828Y391077D01*
X238071Y390722D01*
X238305Y390362D01*
X238530Y389997D01*
X238747Y389626D01*
X238954Y389249D01*
X239151Y388868D01*
X239340Y388482D01*
X239519Y388092D01*
X239688Y387697D01*
X239847Y387298D01*
X239997Y386896D01*
X240137Y386489D01*
X240266Y386080D01*
X240386Y385667D01*
X240496Y385252D01*
X240595Y384834D01*
X240684Y384414D01*
X240762Y383992D01*
X240831Y383568D01*
X240888Y383142D01*
X240936Y382715D01*
X240973Y382287D01*
X240999Y381859D01*
X241015Y381429D01*
X241020Y381000D01*
X241015Y380571D01*
X240999Y380141D01*
X240973Y379713D01*
X240936Y379285D01*
X240888Y378858D01*
X240831Y378432D01*
X240762Y378008D01*
X240684Y377586D01*
X240595Y377166D01*
X240496Y376748D01*
X240386Y376333D01*
X240266Y375920D01*
X240137Y375511D01*
X239997Y375104D01*
X239847Y374702D01*
X239688Y374303D01*
X239519Y373908D01*
X239340Y373518D01*
X239151Y373132D01*
X238954Y372751D01*
X238747Y372374D01*
X238530Y372003D01*
X238305Y371638D01*
X238071Y371278D01*
X237828Y370923D01*
X237576Y370575D01*
X237316Y370233D01*
X237048Y369898D01*
X236771Y369569D01*
X236487Y369248D01*
X236194Y368933D01*
X235894Y368626D01*
X235587Y368326D01*
X235272Y368033D01*
X234951Y367749D01*
X234622Y367472D01*
X234287Y367204D01*
X233945Y366944D01*
X233597Y366692D01*
X233242Y366449D01*
X232882Y366215D01*
X232517Y365990D01*
X232146Y365773D01*
X231769Y365566D01*
X231388Y365369D01*
X231002Y365180D01*
X230612Y365001D01*
X230217Y364832D01*
X229818Y364673D01*
X229416Y364523D01*
X229009Y364383D01*
X228600Y364254D01*
X228187Y364134D01*
X227772Y364024D01*
X227354Y363925D01*
X226934Y363836D01*
X226512Y363758D01*
X226088Y363689D01*
X225662Y363632D01*
X225235Y363584D01*
X224807Y363547D01*
X224379Y363521D01*
X223949Y363505D01*
X223520Y363500D01*
X223091Y363505D01*
X222661Y363521D01*
X222233Y363547D01*
X221805Y363584D01*
X221378Y363632D01*
X220952Y363689D01*
X220528Y363758D01*
X220106Y363836D01*
X219686Y363925D01*
X219268Y364024D01*
X218853Y364134D01*
X218440Y364254D01*
X218031Y364383D01*
X217624Y364523D01*
X217222Y364673D01*
X216823Y364832D01*
X216428Y365001D01*
X216038Y365180D01*
X215652Y365369D01*
X215271Y365566D01*
X214894Y365773D01*
X214523Y365990D01*
X214158Y366215D01*
X213798Y366449D01*
X213443Y366692D01*
X213095Y366944D01*
X212753Y367204D01*
X212418Y367472D01*
X212089Y367749D01*
X211768Y368033D01*
X211453Y368326D01*
X211146Y368626D01*
X210846Y368933D01*
X210553Y369248D01*
X210269Y369569D01*
X209992Y369898D01*
X209724Y370233D01*
X209464Y370575D01*
X209212Y370923D01*
X208969Y371278D01*
X208735Y371638D01*
X208510Y372003D01*
X208293Y372374D01*
X208086Y372751D01*
X207889Y373132D01*
X207700Y373518D01*
X207521Y373908D01*
X207352Y374303D01*
X207193Y374702D01*
X207043Y375104D01*
X206903Y375511D01*
X206774Y375920D01*
X206654Y376333D01*
X206544Y376748D01*
X206445Y377166D01*
X206356Y377586D01*
X206278Y378008D01*
X206209Y378432D01*
X206152Y378858D01*
X206104Y379285D01*
X206067Y379713D01*
X206041Y380141D01*
X206025Y380571D01*
X206020Y381000D01*
D91*
X221136Y413385D02*
X221201Y413387D01*
X221265Y413393D01*
X221329Y413403D01*
X221393Y413416D01*
X221455Y413434D01*
X221516Y413455D01*
X221576Y413479D01*
X221634Y413508D01*
X221691Y413540D01*
X221745Y413575D01*
X221797Y413613D01*
X221847Y413655D01*
X221894Y413699D01*
X221938Y413746D01*
X221980Y413796D01*
X222018Y413848D01*
X222053Y413902D01*
X222085Y413959D01*
X222114Y414017D01*
X222138Y414077D01*
X222159Y414138D01*
X222177Y414200D01*
X222190Y414264D01*
X222200Y414328D01*
X222206Y414392D01*
X222208Y414457D01*
X221136Y413385D02*
X221042Y413387D01*
X220948Y413393D01*
X220854Y413403D01*
X220761Y413416D01*
X220669Y413434D01*
X220577Y413455D01*
X220486Y413480D01*
X220396Y413509D01*
X220308Y413542D01*
X220221Y413578D01*
X220136Y413618D01*
X220052Y413661D01*
X219971Y413708D01*
X219891Y413758D01*
X219813Y413811D01*
X219738Y413868D01*
X219665Y413927D01*
X219595Y413990D01*
X219527Y414055D01*
X219662Y417139D02*
X219664Y417204D01*
X219670Y417268D01*
X219680Y417332D01*
X219693Y417396D01*
X219711Y417458D01*
X219732Y417519D01*
X219756Y417579D01*
X219785Y417637D01*
X219817Y417694D01*
X219852Y417748D01*
X219890Y417800D01*
X219932Y417850D01*
X219976Y417897D01*
X220023Y417941D01*
X220073Y417983D01*
X220125Y418021D01*
X220179Y418056D01*
X220236Y418088D01*
X220294Y418117D01*
X220354Y418141D01*
X220415Y418162D01*
X220477Y418180D01*
X220541Y418193D01*
X220605Y418203D01*
X220669Y418209D01*
X220734Y418211D01*
X220820Y418209D01*
X220906Y418204D01*
X220992Y418194D01*
X221077Y418181D01*
X221162Y418165D01*
X221246Y418145D01*
X221329Y418121D01*
X221411Y418094D01*
X221491Y418063D01*
X221571Y418029D01*
X221648Y417991D01*
X221724Y417950D01*
X221798Y417906D01*
X221870Y417859D01*
X221941Y417809D01*
X220198Y416201D02*
X220145Y416234D01*
X220094Y416271D01*
X220045Y416310D01*
X219998Y416352D01*
X219954Y416397D01*
X219913Y416444D01*
X219874Y416493D01*
X219838Y416545D01*
X219805Y416599D01*
X219776Y416654D01*
X219750Y416711D01*
X219727Y416770D01*
X219707Y416829D01*
X219691Y416890D01*
X219678Y416951D01*
X219669Y417014D01*
X219664Y417076D01*
X219662Y417139D01*
X221673Y415395D02*
X221726Y415362D01*
X221777Y415325D01*
X221826Y415286D01*
X221873Y415244D01*
X221917Y415199D01*
X221958Y415152D01*
X221997Y415103D01*
X222033Y415051D01*
X222066Y414997D01*
X222095Y414942D01*
X222121Y414885D01*
X222144Y414826D01*
X222164Y414767D01*
X222180Y414706D01*
X222193Y414645D01*
X222202Y414582D01*
X222207Y414520D01*
X222209Y414457D01*
X221673Y415396D02*
X220198Y416200D01*
X224831Y417139D02*
X226172Y418211D01*
X226172Y413385D01*
X227512Y413385D02*
X224831Y413385D01*
D97*
X145961Y9573D03*
D87*
X194015Y10827D02*
X198234Y10827D01*
X198314Y10829D01*
X198393Y10835D01*
X198472Y10845D01*
X198551Y10858D01*
X198628Y10876D01*
X198705Y10897D01*
X198781Y10922D01*
X198855Y10951D01*
X198928Y10983D01*
X198999Y11019D01*
X199068Y11058D01*
X199136Y11101D01*
X199201Y11146D01*
X199264Y11195D01*
X199324Y11247D01*
X199382Y11302D01*
X199437Y11360D01*
X199489Y11420D01*
X199538Y11483D01*
X199583Y11548D01*
X199626Y11616D01*
X199665Y11685D01*
X199701Y11756D01*
X199733Y11829D01*
X199762Y11903D01*
X199787Y11979D01*
X199808Y12056D01*
X199826Y12133D01*
X199839Y12212D01*
X199849Y12291D01*
X199855Y12370D01*
X199857Y12450D01*
X199855Y12530D01*
X199849Y12609D01*
X199839Y12688D01*
X199826Y12767D01*
X199808Y12844D01*
X199787Y12921D01*
X199762Y12997D01*
X199733Y13071D01*
X199701Y13144D01*
X199665Y13215D01*
X199626Y13284D01*
X199583Y13352D01*
X199538Y13417D01*
X199489Y13480D01*
X199437Y13540D01*
X199382Y13598D01*
X199324Y13653D01*
X199264Y13705D01*
X199201Y13754D01*
X199136Y13799D01*
X199068Y13842D01*
X198999Y13881D01*
X198928Y13917D01*
X198855Y13949D01*
X198781Y13978D01*
X198705Y14003D01*
X198628Y14024D01*
X198551Y14042D01*
X198472Y14055D01*
X198393Y14065D01*
X198314Y14071D01*
X198234Y14073D01*
X194015Y14073D01*
X195313Y16732D02*
X194015Y18355D01*
X199857Y18355D01*
X199857Y16732D02*
X199857Y19978D01*
D90*
X25400Y100330D02*
X25400Y113030D01*
X31750Y119380D01*
X44450Y119380D02*
X50800Y113030D01*
X25400Y74930D02*
X31750Y68580D01*
X25400Y74930D02*
X25400Y87630D01*
X31750Y93980D01*
X44450Y93980D02*
X50800Y87630D01*
X50800Y74930D01*
X44450Y68580D01*
X31750Y93980D02*
X25400Y100330D01*
X44450Y93980D02*
X50800Y100330D01*
X50800Y113030D01*
X25400Y36830D02*
X25400Y24130D01*
X25400Y36830D02*
X31750Y43180D01*
X44450Y43180D02*
X50800Y36830D01*
X31750Y43180D02*
X25400Y49530D01*
X25400Y62230D01*
X31750Y68580D01*
X44450Y68580D02*
X50800Y62230D01*
X50800Y49530D01*
X44450Y43180D01*
X44450Y17780D02*
X31750Y17780D01*
X25400Y24130D01*
X44450Y17780D02*
X50800Y24130D01*
X50800Y36830D01*
X44450Y119380D02*
X31750Y119380D01*
D91*
X22423Y20024D02*
X18669Y20024D01*
X22423Y20023D02*
X22488Y20021D01*
X22552Y20015D01*
X22616Y20005D01*
X22680Y19992D01*
X22742Y19974D01*
X22803Y19953D01*
X22863Y19929D01*
X22921Y19900D01*
X22978Y19868D01*
X23032Y19833D01*
X23084Y19795D01*
X23134Y19753D01*
X23181Y19709D01*
X23225Y19662D01*
X23267Y19612D01*
X23305Y19560D01*
X23340Y19506D01*
X23372Y19449D01*
X23401Y19391D01*
X23425Y19331D01*
X23446Y19270D01*
X23464Y19208D01*
X23477Y19144D01*
X23487Y19080D01*
X23493Y19016D01*
X23495Y18951D01*
X23495Y18415D01*
X22423Y22972D02*
X18669Y24044D01*
X22423Y22972D02*
X22423Y25653D01*
X23495Y24848D02*
X21350Y24848D01*
D90*
X289560Y121920D02*
X302260Y121920D01*
X289560Y121920D02*
X283210Y128270D01*
X283210Y140970D02*
X289560Y147320D01*
X283210Y128270D02*
X276860Y121920D01*
X264160Y121920D01*
X257810Y128270D01*
X257810Y140970D02*
X264160Y147320D01*
X276860Y147320D01*
X283210Y140970D01*
X308610Y140970D02*
X308610Y128270D01*
X302260Y121920D01*
X308610Y140970D02*
X302260Y147320D01*
X289560Y147320D01*
X257810Y140970D02*
X257810Y128270D01*
D91*
X302346Y120015D02*
X302346Y116261D01*
X302344Y116196D01*
X302338Y116132D01*
X302328Y116068D01*
X302315Y116004D01*
X302297Y115942D01*
X302276Y115881D01*
X302252Y115821D01*
X302223Y115763D01*
X302191Y115706D01*
X302156Y115652D01*
X302118Y115600D01*
X302076Y115550D01*
X302032Y115503D01*
X301985Y115459D01*
X301935Y115417D01*
X301883Y115379D01*
X301829Y115344D01*
X301772Y115312D01*
X301714Y115283D01*
X301654Y115259D01*
X301593Y115238D01*
X301531Y115220D01*
X301467Y115207D01*
X301403Y115197D01*
X301339Y115191D01*
X301274Y115189D01*
X300737Y115189D01*
X305294Y115189D02*
X306634Y115189D01*
X306705Y115191D01*
X306777Y115197D01*
X306847Y115206D01*
X306917Y115219D01*
X306987Y115236D01*
X307055Y115257D01*
X307122Y115281D01*
X307188Y115309D01*
X307252Y115340D01*
X307315Y115375D01*
X307375Y115413D01*
X307434Y115454D01*
X307490Y115498D01*
X307544Y115545D01*
X307595Y115594D01*
X307643Y115647D01*
X307689Y115702D01*
X307731Y115759D01*
X307771Y115819D01*
X307807Y115880D01*
X307840Y115944D01*
X307869Y116009D01*
X307895Y116075D01*
X307918Y116143D01*
X307937Y116212D01*
X307952Y116282D01*
X307963Y116352D01*
X307971Y116423D01*
X307975Y116494D01*
X307975Y116566D01*
X307971Y116637D01*
X307963Y116708D01*
X307952Y116778D01*
X307937Y116848D01*
X307918Y116917D01*
X307895Y116985D01*
X307869Y117051D01*
X307840Y117116D01*
X307807Y117180D01*
X307771Y117241D01*
X307731Y117301D01*
X307689Y117358D01*
X307643Y117413D01*
X307595Y117466D01*
X307544Y117515D01*
X307490Y117562D01*
X307434Y117606D01*
X307375Y117647D01*
X307315Y117685D01*
X307252Y117720D01*
X307188Y117751D01*
X307122Y117779D01*
X307055Y117803D01*
X306987Y117824D01*
X306917Y117841D01*
X306847Y117854D01*
X306777Y117863D01*
X306705Y117869D01*
X306634Y117871D01*
X306903Y120015D02*
X305294Y120015D01*
X306903Y120015D02*
X306968Y120013D01*
X307032Y120007D01*
X307096Y119997D01*
X307160Y119984D01*
X307222Y119966D01*
X307283Y119945D01*
X307343Y119921D01*
X307401Y119892D01*
X307458Y119860D01*
X307512Y119825D01*
X307564Y119787D01*
X307614Y119745D01*
X307661Y119701D01*
X307705Y119654D01*
X307747Y119604D01*
X307785Y119552D01*
X307820Y119498D01*
X307852Y119441D01*
X307881Y119383D01*
X307905Y119323D01*
X307926Y119262D01*
X307944Y119200D01*
X307957Y119136D01*
X307967Y119072D01*
X307973Y119008D01*
X307975Y118943D01*
X307973Y118878D01*
X307967Y118814D01*
X307957Y118750D01*
X307944Y118686D01*
X307926Y118624D01*
X307905Y118563D01*
X307881Y118503D01*
X307852Y118445D01*
X307820Y118388D01*
X307785Y118334D01*
X307747Y118282D01*
X307705Y118232D01*
X307661Y118185D01*
X307614Y118141D01*
X307564Y118099D01*
X307512Y118061D01*
X307458Y118026D01*
X307401Y117994D01*
X307343Y117965D01*
X307283Y117941D01*
X307222Y117920D01*
X307160Y117902D01*
X307096Y117889D01*
X307032Y117879D01*
X306968Y117873D01*
X306903Y117871D01*
X306903Y117870D02*
X305830Y117870D01*
M02*
