G04 EAGLE Gerber X2 export*
%TF.Part,Single*%
%TF.FileFunction,Soldermask,Top,1*%
%TF.FilePolarity,Negative*%
%TF.GenerationSoftware,Autodesk,EAGLE,9.0.1*%
%TF.CreationDate,2019-06-07T13:03:31Z*%
G75*
%MOMM*%
%FSLAX34Y34*%
%LPD*%
%AMOC8*
5,1,8,0,0,1.08239X$1,22.5*%
G01*
%ADD10R,1.703200X1.503200*%
%ADD11R,1.727200X1.473200*%
%ADD12R,1.503200X1.703200*%
%ADD13C,2.082800*%
%ADD14R,1.403200X1.403200*%
%ADD15R,1.603200X1.303200*%
%ADD16R,1.303200X1.603200*%
%ADD17R,0.711200X0.711200*%
%ADD18C,0.433200*%
%ADD19R,4.473200X4.473200*%
%ADD20R,1.703200X2.203200*%
%ADD21R,4.003200X2.203200*%
%ADD22R,1.503200X1.503200*%
%ADD23R,2.203200X1.604800*%
%ADD24R,0.953200X0.903200*%
%ADD25R,1.753200X1.503200*%
%ADD26R,0.523200X0.683200*%
%ADD27R,0.683200X0.523200*%
%ADD28C,0.010463*%
%ADD29R,0.873200X0.873200*%
%ADD30C,0.859600*%


D10*
X241300Y448700D03*
X241300Y465700D03*
X208280Y448700D03*
X208280Y465700D03*
X175260Y448700D03*
X175260Y465700D03*
D11*
X187960Y130175D03*
X187960Y149225D03*
X215900Y130175D03*
X215900Y149225D03*
D12*
X124850Y476250D03*
X141850Y476250D03*
X141850Y439420D03*
X124850Y439420D03*
D13*
X271780Y248920D03*
X297180Y248920D03*
X271780Y223520D03*
X297180Y223520D03*
X271780Y198120D03*
X297180Y198120D03*
X271780Y172720D03*
X297180Y172720D03*
X73660Y474980D03*
X48260Y474980D03*
D14*
X157480Y373720D03*
X157480Y352720D03*
X119380Y373720D03*
X119380Y352720D03*
D15*
X119380Y302420D03*
X119380Y322420D03*
D16*
X223680Y299720D03*
X243680Y299720D03*
D15*
X157480Y322420D03*
X157480Y302420D03*
D17*
X60960Y139700D03*
X60960Y281940D03*
X73660Y139700D03*
X73660Y281940D03*
D18*
X187610Y189854D02*
X190226Y187238D01*
X186691Y183703D02*
X184075Y186319D01*
X180539Y182783D02*
X183155Y180167D01*
X179620Y176632D02*
X177004Y179248D01*
X173468Y175712D02*
X176084Y173096D01*
X193762Y190774D02*
X191146Y193390D01*
X194681Y196925D02*
X197297Y194309D01*
X200833Y197845D02*
X198217Y200461D01*
X201752Y203996D02*
X204368Y201380D01*
X207904Y204916D02*
X205288Y207532D01*
X187610Y231786D02*
X190226Y234402D01*
X186691Y237937D02*
X184075Y235321D01*
X180539Y238857D02*
X183155Y241473D01*
X179620Y245008D02*
X177004Y242392D01*
X173468Y245928D02*
X176084Y248544D01*
X193762Y230866D02*
X191146Y228250D01*
X194681Y224715D02*
X197297Y227331D01*
X200833Y223795D02*
X198217Y221179D01*
X201752Y217644D02*
X204368Y220260D01*
X207904Y216724D02*
X205288Y214108D01*
X149214Y228250D02*
X146598Y230866D01*
X143063Y227331D02*
X145679Y224715D01*
X142143Y221179D02*
X139527Y223795D01*
X135992Y220260D02*
X138608Y217644D01*
X135072Y214108D02*
X132456Y216724D01*
X150134Y234402D02*
X152750Y231786D01*
X156285Y235321D02*
X153669Y237937D01*
X157205Y241473D02*
X159821Y238857D01*
X163356Y242392D02*
X160740Y245008D01*
X164276Y248544D02*
X166892Y245928D01*
X149214Y193390D02*
X146598Y190774D01*
X143063Y194309D02*
X145679Y196925D01*
X142143Y200461D02*
X139527Y197845D01*
X135992Y201380D02*
X138608Y203996D01*
X135072Y207532D02*
X132456Y204916D01*
X150134Y187238D02*
X152750Y189854D01*
X156285Y186319D02*
X153669Y183703D01*
X157205Y180167D02*
X159821Y182783D01*
X163356Y179248D02*
X160740Y176632D01*
X164276Y173096D02*
X166892Y175712D01*
D19*
G36*
X138550Y210820D02*
X170180Y242450D01*
X201810Y210820D01*
X170180Y179190D01*
X138550Y210820D01*
G37*
D20*
X66040Y431550D03*
D21*
X66040Y368550D03*
D20*
X89040Y431550D03*
X43040Y431550D03*
D22*
X43180Y227260D03*
D23*
X100965Y238760D03*
D22*
X43180Y250260D03*
X43180Y168840D03*
D23*
X100965Y180340D03*
D22*
X43180Y191840D03*
D24*
G36*
X235658Y182368D02*
X245188Y182235D01*
X245062Y173204D01*
X235532Y173337D01*
X235658Y182368D01*
G37*
G36*
X231563Y173393D02*
X222033Y173526D01*
X222159Y182557D01*
X231689Y182424D01*
X231563Y173393D01*
G37*
G36*
X231702Y183392D02*
X222172Y183525D01*
X222298Y192556D01*
X231828Y192423D01*
X231702Y183392D01*
G37*
G36*
X235797Y192367D02*
X245327Y192234D01*
X245201Y183203D01*
X235671Y183336D01*
X235797Y192367D01*
G37*
D25*
X183770Y358500D03*
X263270Y358500D03*
X183770Y403500D03*
X263270Y403500D03*
D26*
X148461Y12573D03*
X153461Y12573D03*
X158461Y12573D03*
X163461Y12573D03*
X168461Y12573D03*
X173461Y12573D03*
X178461Y12573D03*
X183461Y12573D03*
X188461Y12573D03*
D27*
X189961Y18573D03*
X189961Y23573D03*
X189961Y28573D03*
X189961Y33573D03*
X189961Y38573D03*
X189961Y43573D03*
X189961Y48573D03*
X189961Y53573D03*
X189961Y58573D03*
X189961Y63573D03*
D26*
X188461Y69573D03*
X183461Y69573D03*
X178461Y69573D03*
X173461Y69573D03*
X168461Y69573D03*
X163461Y69573D03*
X158461Y69573D03*
X153461Y69573D03*
X148461Y69573D03*
X143461Y69573D03*
X138461Y69573D03*
X133461Y69573D03*
D27*
X132961Y63573D03*
X132961Y58573D03*
X132961Y53573D03*
X132961Y48573D03*
X148961Y63573D03*
X148961Y58573D03*
X148961Y53573D03*
X148961Y48573D03*
X148961Y43573D03*
X148961Y38573D03*
X148961Y33573D03*
X148961Y28573D03*
X148961Y23573D03*
X148961Y18573D03*
D26*
X132461Y41773D03*
D28*
X135025Y15937D02*
X135025Y9209D01*
X129897Y9209D01*
X129897Y15937D01*
X135025Y15937D01*
X135025Y9313D02*
X129897Y9313D01*
X129897Y9417D02*
X135025Y9417D01*
X135025Y9521D02*
X129897Y9521D01*
X129897Y9625D02*
X135025Y9625D01*
X135025Y9729D02*
X129897Y9729D01*
X129897Y9833D02*
X135025Y9833D01*
X135025Y9937D02*
X129897Y9937D01*
X129897Y10041D02*
X135025Y10041D01*
X135025Y10145D02*
X129897Y10145D01*
X129897Y10249D02*
X135025Y10249D01*
X135025Y10353D02*
X129897Y10353D01*
X129897Y10457D02*
X135025Y10457D01*
X135025Y10561D02*
X129897Y10561D01*
X129897Y10665D02*
X135025Y10665D01*
X135025Y10769D02*
X129897Y10769D01*
X129897Y10873D02*
X135025Y10873D01*
X135025Y10977D02*
X129897Y10977D01*
X129897Y11081D02*
X135025Y11081D01*
X135025Y11185D02*
X129897Y11185D01*
X129897Y11289D02*
X135025Y11289D01*
X135025Y11393D02*
X129897Y11393D01*
X129897Y11497D02*
X135025Y11497D01*
X135025Y11601D02*
X129897Y11601D01*
X129897Y11705D02*
X135025Y11705D01*
X135025Y11809D02*
X129897Y11809D01*
X129897Y11913D02*
X135025Y11913D01*
X135025Y12017D02*
X129897Y12017D01*
X129897Y12121D02*
X135025Y12121D01*
X135025Y12225D02*
X129897Y12225D01*
X129897Y12329D02*
X135025Y12329D01*
X135025Y12433D02*
X129897Y12433D01*
X129897Y12537D02*
X135025Y12537D01*
X135025Y12641D02*
X129897Y12641D01*
X129897Y12745D02*
X135025Y12745D01*
X135025Y12849D02*
X129897Y12849D01*
X129897Y12953D02*
X135025Y12953D01*
X135025Y13057D02*
X129897Y13057D01*
X129897Y13161D02*
X135025Y13161D01*
X135025Y13265D02*
X129897Y13265D01*
X129897Y13369D02*
X135025Y13369D01*
X135025Y13473D02*
X129897Y13473D01*
X129897Y13577D02*
X135025Y13577D01*
X135025Y13681D02*
X129897Y13681D01*
X129897Y13785D02*
X135025Y13785D01*
X135025Y13889D02*
X129897Y13889D01*
X129897Y13993D02*
X135025Y13993D01*
X135025Y14097D02*
X129897Y14097D01*
X129897Y14201D02*
X135025Y14201D01*
X135025Y14305D02*
X129897Y14305D01*
X129897Y14409D02*
X135025Y14409D01*
X135025Y14513D02*
X129897Y14513D01*
X129897Y14617D02*
X135025Y14617D01*
X135025Y14721D02*
X129897Y14721D01*
X129897Y14825D02*
X135025Y14825D01*
X135025Y14929D02*
X129897Y14929D01*
X129897Y15033D02*
X135025Y15033D01*
X135025Y15137D02*
X129897Y15137D01*
X129897Y15241D02*
X135025Y15241D01*
X135025Y15345D02*
X129897Y15345D01*
X129897Y15449D02*
X135025Y15449D01*
X135025Y15553D02*
X129897Y15553D01*
X129897Y15657D02*
X135025Y15657D01*
X135025Y15761D02*
X129897Y15761D01*
X129897Y15865D02*
X135025Y15865D01*
D26*
X142461Y41773D03*
X142461Y12573D03*
D29*
X169461Y53073D03*
X169461Y29073D03*
D13*
X38100Y30480D03*
X38100Y55880D03*
X38100Y81280D03*
X38100Y106680D03*
X295910Y134620D03*
X270510Y134620D03*
D30*
X89040Y431550D03*
X124850Y439420D03*
X141850Y476250D03*
X175260Y465700D03*
X208280Y465700D03*
X241300Y465700D03*
X157480Y373720D03*
X119380Y373720D03*
X243680Y299720D03*
X43180Y250260D03*
X43180Y191840D03*
X187960Y130175D03*
X215900Y130175D03*
X190500Y82550D03*
X182755Y50800D03*
X182755Y25400D03*
X88900Y13442D03*
X113411Y43561D03*
X152400Y249408D03*
X222250Y203200D03*
X266700Y311150D03*
X273050Y266700D03*
X247650Y254000D03*
X247650Y241300D03*
X247650Y228600D03*
X121920Y238760D03*
X132080Y248920D03*
X132080Y228600D03*
X142240Y238760D03*
X158750Y25400D03*
X127000Y107950D03*
X203200Y31750D03*
X203200Y44450D03*
X146050Y165100D03*
X167640Y81280D03*
X177800Y81280D03*
X241300Y209550D03*
X260350Y279400D03*
X69850Y120650D03*
X121920Y60960D03*
X121920Y50800D03*
X142240Y81280D03*
X141755Y57150D03*
X317500Y25400D03*
X317500Y63500D03*
X317500Y101600D03*
X279400Y25400D03*
X241300Y25400D03*
X76200Y25400D03*
M02*
