G04 EAGLE Gerber X2 export*
%TF.Part,Single*%
%TF.FileFunction,Soldermask,Bot,1*%
%TF.FilePolarity,Negative*%
%TF.GenerationSoftware,Autodesk,EAGLE,9.0.1*%
%TF.CreationDate,2019-06-07T13:03:31Z*%
G75*
%MOMM*%
%FSLAX34Y34*%
%LPD*%
%AMOC8*
5,1,8,0,0,1.08239X$1,22.5*%
G01*
%ADD10C,2.082800*%
%ADD11C,0.859600*%


D10*
X271780Y248920D03*
X297180Y248920D03*
X271780Y223520D03*
X297180Y223520D03*
X271780Y198120D03*
X297180Y198120D03*
X271780Y172720D03*
X297180Y172720D03*
X73660Y474980D03*
X48260Y474980D03*
X38100Y30480D03*
X38100Y55880D03*
X38100Y81280D03*
X38100Y106680D03*
X295910Y134620D03*
X270510Y134620D03*
D11*
X89040Y431550D03*
X124850Y439420D03*
X141850Y476250D03*
X175260Y465700D03*
X208280Y465700D03*
X241300Y465700D03*
X157480Y373720D03*
X119380Y373720D03*
X243680Y299720D03*
X43180Y250260D03*
X43180Y191840D03*
X187960Y130175D03*
X215900Y130175D03*
X190500Y82550D03*
X182755Y50800D03*
X182755Y25400D03*
X88900Y13442D03*
X113411Y43561D03*
X152400Y249408D03*
X222250Y203200D03*
X266700Y311150D03*
X273050Y266700D03*
X247650Y254000D03*
X247650Y241300D03*
X247650Y228600D03*
X121920Y238760D03*
X132080Y248920D03*
X132080Y228600D03*
X142240Y238760D03*
X158750Y25400D03*
X127000Y107950D03*
X203200Y31750D03*
X203200Y44450D03*
X146050Y165100D03*
X167640Y81280D03*
X177800Y81280D03*
X241300Y209550D03*
X260350Y279400D03*
X69850Y120650D03*
X121920Y60960D03*
X121920Y50800D03*
X142240Y81280D03*
X141755Y57150D03*
X317500Y25400D03*
X317500Y63500D03*
X317500Y101600D03*
X279400Y25400D03*
X241300Y25400D03*
X76200Y25400D03*
M02*
